<?xml version="1.0" encoding="utf-8"?>
<!-- Generator: Adobe Illustrator 28.1.0, SVG Export Plug-In . SVG Version: 6.00 Build 0)  -->
<svg version="1.1" id="Capa_1" xmlns="http://www.w3.org/2000/svg" xmlns:xlink="http://www.w3.org/1999/xlink" x="0px" y="0px"
	 viewBox="0 0 128 128" style="enable-background:new 0 0 128 128;" xml:space="preserve">
<style type="text/css">
	.st0{fill:#8F8F8F;}
	.st1{fill:#FFFFFF;}
</style>
<g>
	<g>
		<g>
			<path class="st0" d="M59.6,84.04c0.05,0.01,0.11,0.02,0.16,0.03c0.29,0.05,0.59,0.1,0.89,0.15c0.13,0.02,0.26,0.03,0.39,0.05
				c0.23,0.03,0.47,0.06,0.71,0.08c0.21,0.02,0.41,0.03,0.62,0.05c0.17,0.01,0.34,0.03,0.51,0.04c0.39,0.02,0.77,0.03,1.17,0.03
				c0.39,0,0.78-0.01,1.17-0.03c0.17-0.01,0.34-0.02,0.51-0.04c0.21-0.01,0.42-0.03,0.62-0.05c0.24-0.02,0.47-0.05,0.71-0.08
				c0.13-0.02,0.26-0.03,0.39-0.05c0.3-0.04,0.59-0.09,0.89-0.15c0.05-0.01,0.11-0.02,0.16-0.03c10.95-2.08,19.26-11.72,19.26-23.27
				V29c0-13.07-10.63-23.7-23.7-23.7S40.34,15.94,40.34,29v31.76C40.34,72.31,48.65,81.95,59.6,84.04z M67.85,81.72
				c-0.26,0.05-0.52,0.09-0.78,0.13c-0.12,0.02-0.24,0.03-0.36,0.05c-0.21,0.03-0.41,0.05-0.62,0.07c-0.19,0.02-0.38,0.03-0.56,0.04
				c-0.15,0.01-0.3,0.02-0.45,0.03c-0.35,0.02-0.69,0.03-1.04,0.03c-0.35,0-0.7-0.01-1.04-0.03c-0.15-0.01-0.3-0.02-0.45-0.03
				c-0.19-0.01-0.38-0.03-0.56-0.04c-0.21-0.02-0.41-0.05-0.62-0.07c-0.12-0.02-0.24-0.03-0.36-0.05c-0.26-0.04-0.52-0.08-0.78-0.13
				c-0.05-0.01-0.1-0.02-0.15-0.03c-8.84-1.69-15.5-8.94-15.5-17.6c0-9.91,8.73-17.97,19.46-17.97S83.5,54.18,83.5,64.09
				c0,8.66-6.66,15.9-15.5,17.6C67.95,81.7,67.9,81.71,67.85,81.72z M64.04,7.78c10.73,0,19.46,8.06,19.46,17.97
				s-8.73,17.97-19.46,17.97s-19.46-8.06-19.46-17.97S53.31,7.78,64.04,7.78z M73.62,44.06c4.28-1.95,7.77-5.17,9.92-9.12
				c0.48-0.87,1.8-0.54,1.8,0.45v19.08c0,1-1.32,1.33-1.8,0.45c-2.15-3.95-5.64-7.17-9.92-9.12C72.87,45.45,72.87,44.4,73.62,44.06z
				 M54.46,45.79c-4.28,1.95-7.77,5.17-9.92,9.12c-0.48,0.87-1.8,0.54-1.8-0.45V35.39c0-1,1.32-1.33,1.8-0.45
				c2.15,3.95,5.64,7.17,9.92,9.12C55.2,44.4,55.2,45.45,54.46,45.79z"/>
		</g>
		<g>
			<path class="st0" d="M100.53,58.73c0-1.98-1.72-3.56-3.75-3.33c-1.5,0.17-2.73,1.37-2.93,2.87c-0.19,1.43,0.53,2.72,1.66,3.37
				c0.3,0.17,0.47,0.5,0.47,0.85v0.03c0,17.63-14.13,32.19-31.76,32.29c-17.7,0.1-32.13-14.27-32.13-31.94v-0.42
				c0-0.34,0.16-0.67,0.46-0.85c1.09-0.66,1.78-1.92,1.6-3.33c-0.2-1.5-1.43-2.71-2.94-2.88c-2.02-0.22-3.74,1.35-3.74,3.33
				c0,1.27,0.71,2.38,1.76,2.95c0.3,0.16,0.47,0.49,0.47,0.82v0.36c0,18.23,14.28,33.19,32.25,34.27c0.5,0.03,0.89,0.45,0.89,0.95
				v21.24c0,0.53-0.43,0.96-0.96,0.96H30.97c-0.65,0-1.23,0.49-1.26,1.13c-0.04,0.69,0.51,1.26,1.2,1.26l66.21,0
				c0.65,0,1.23-0.49,1.26-1.13c0.04-0.69-0.51-1.26-1.2-1.26H66.19c-0.53,0-0.96-0.43-0.96-0.96V98.1c0-0.5,0.39-0.92,0.89-0.95
				c17.97-1.08,32.25-16.04,32.25-34.27v-0.41c0-0.33,0.17-0.65,0.45-0.82C99.84,61.07,100.53,59.99,100.53,58.73z"/>
		</g>
	</g>
</g>
</svg>
