<?xml version="1.0" encoding="utf-8"?>
<!-- Generator: Adobe Illustrator 28.1.0, SVG Export Plug-In . SVG Version: 6.00 Build 0)  -->
<svg version="1.1" id="Capa_1" xmlns="http://www.w3.org/2000/svg" xmlns:xlink="http://www.w3.org/1999/xlink" x="0px" y="0px"
	 viewBox="0 0 128 128" style="enable-background:new 0 0 128 128;" xml:space="preserve">
<style type="text/css">
	.st0{fill:#8F8F8F;}
	.st1{fill:#FFFFFF;}
</style>
<g>
	<g>
		<g>
			<path class="st0" d="M106.32,81.67h20.34c0.52,0,0.94-0.42,0.94-0.94V64.35c0-0.52-0.42-0.94-0.94-0.94H1.34
				c-0.52,0-0.94,0.42-0.94,0.94v16.39c0,0.52,0.42,0.94,0.94,0.94h20.34c0.37,0,0.71,0.22,0.86,0.57
				c3.36,7.75,8.79,14.38,15.79,19.22c3.75,2.6,7.83,4.58,12.12,5.93c0.88,0.28,0.88,1.51,0,1.78c-8.6,2.69-16.26,7.93-22,15.24
				l-0.3,0.38c-0.48,0.61-0.04,1.51,0.74,1.51h70.24c0.78,0,1.22-0.9,0.74-1.51l-0.3-0.38c-5.75-7.32-13.41-12.56-22-15.24
				c-0.88-0.27-0.88-1.51,0-1.78c4.28-1.34,8.36-3.33,12.12-5.93c7-4.84,12.43-11.46,15.79-19.22
				C105.61,81.9,105.94,81.67,106.32,81.67z M103.41,77.56l20.49-10.38c0.62-0.32,1.36,0.14,1.36,0.84V78.4
				c0,0.52-0.42,0.94-0.94,0.94h-20.49C102.85,79.33,102.53,78.01,103.41,77.56z M29.88,77.54L10.01,67.53
				c-0.88-0.44-0.57-1.77,0.42-1.77H30.3c0.52,0,0.94,0.42,0.94,0.94V76.7C31.24,77.4,30.5,77.85,29.88,77.54z M34.52,65.76h58.39
				c0.52,0,0.94,0.42,0.94,0.94v11.7c0,0.52-0.42,0.94-0.94,0.94H34.52c-0.52,0-0.94-0.42-0.94-0.94v-11.7
				C33.58,66.18,34,65.76,34.52,65.76z M97.12,65.76h20.49c0.99,0,1.3,1.33,0.42,1.77L97.54,77.91c-0.62,0.32-1.36-0.14-1.36-0.84
				V66.69C96.18,66.18,96.6,65.76,97.12,65.76z M4.1,67.17l20.62,10.39c0.88,0.44,0.57,1.77-0.42,1.77H3.68
				c-0.52,0-0.94-0.42-0.94-0.94V68.01C2.74,67.31,3.48,66.86,4.1,67.17z M94,123.97H34c-0.83,0-1.25-1-0.67-1.59
				c8.04-8.26,18.98-12.92,30.67-12.92c11.68,0,22.63,4.66,30.67,12.92C95.25,122.97,94.83,123.97,94,123.97z M64,107.11
				c-8.75,0-17.17-2.62-24.34-7.58c-6.12-4.23-10.97-9.9-14.19-16.51c-0.3-0.62,0.15-1.35,0.84-1.35h75.37
				c0.69,0,1.15,0.73,0.84,1.35c-3.22,6.62-8.08,12.28-14.19,16.51C81.17,104.49,72.75,107.11,64,107.11z"/>
		</g>
		<g>
			<path class="st0" d="M110.28,22.04c-5.89-6.35-12.88-11.36-20.76-14.87c-8.16-3.64-16.86-5.48-25.87-5.48
				c-15.33,0-30.13,5.53-41.68,15.56c-1.66,1.44-3.12,3.1-4.36,4.93l-0.25,0.36c-0.42,0.62,0.03,1.46,0.78,1.46h91.82
				c0.82,0,1.24-0.97,0.69-1.57L110.28,22.04z M23.04,21.67c-0.84,0-1.25-1.01-0.66-1.6c0.36-0.36,0.74-0.71,1.12-1.05
				C34.63,9.35,48.89,4.03,63.65,4.03c8.68,0,17.06,1.78,24.92,5.28c6.04,2.69,11.52,6.29,16.37,10.72
				c0.63,0.58,0.23,1.63-0.63,1.63L23.04,21.67z"/>
		</g>
	</g>
</g>
</svg>
