<?xml version="1.0" encoding="UTF-8"?><svg id="a" xmlns="http://www.w3.org/2000/svg" width="64" height="64" viewBox="0 0 64 64"><path d="M48.02,2.72H6.86v49.44c0,5.03,4.09,9.12,9.12,9.12h41.15V11.84c0-5.03-4.09-9.12-9.12-9.12ZM28.17,21.89l-.43-2.25-.69.12s-.02,0-.03,0c0,0,0,0,0,0-.14-.07-.25-.2-.33-.37-.09-.21-.22-1.14-.29-1.89,0-.13.05-.24.07-.25,0,0,.03,0,.07,0l.76.03-.05-1.52c-.02-.6.02-1.19.11-1.74.07-.44.15-.65.18-.74.82-1.99,2.68-2.41,4.14-2.41h.06c1.46-.02,3.35.4,4.18,2.41.04.09.11.3.18.74.09.55.13,1.13.11,1.74l-.05,1.52.76-.03h.01s.05,0,.05,0c.03.02.07.13.07.26-.07.75-.21,1.68-.29,1.89-.07.17-.19.3-.33.37,0,0,0,0,0,0,0,0-.02,0-.03,0l-.69-.12-.43,2.25c-.17.86-.22,1.61-.16,2.34.09,1.13.24,2.26.75,2.85.15.17.39.37,2.08,1.16l1.85.88.05.02c1.72.65,2.56.79,3.23.9.34.05.61.1.94.2,3.64,1.1,4.12,5.84,4.16,6.38.06.81.1,3.49.1,3.52v.09s.03.09.03.09c.87,3.27,1.19,6.53,1.38,8.48.11,1.14.17,1.7.27,2.04,1.18,3.92,1.68,6.03,2.23,9.33h-4.65c-1.67-4.24-2.68-8.71-2.69-12.25,0-.31-.17-1.02-2.21-6.52l-1.37-3.7v3.94c-.01.05-.03,5.48-.33,10-.19,2.75-.76,4.72-1.07,5.78-.22.76-.3,1.01-.12,1.33.2.37.43.84.68,1.42h-17.41c.24-.58.47-1.05.68-1.42.18-.32.1-.58-.12-1.33-.31-1.06-.88-3.03-1.07-5.78-.3-4.54-.6-10.26-.61-10.32l-.18-3.45-1.2,3.24c-.56,1.5-1.92,6.16-1.92,6.81-.01,3.54-1.01,8.01-2.69,12.25-1.61-.01-3.11-.51-4.36-1.34h.11c.59-3.63.58-3.85,1.83-7.99.1-.34.16-.9.27-2.05.19-1.95.51-5.2,1.38-8.48l.02-.09v-.09s.04-2.71.1-3.52c.04-.54.51-5.27,4.16-6.38.34-.1.61-.14.94-.2.67-.11,1.51-.25,3.23-.9l1.9-.9c1.69-.79,1.93-.99,2.08-1.16.51-.59.66-1.72.75-2.86.06-.73,0-1.48-.16-2.34ZM41.11,58.27c.03-.12.08-.29.13-.45.3-1.03.93-3.18,1.13-6.08.14-2.09.22-4.36.26-6.22.49,1.37.76,2.19.8,2.43.02,3.61.95,7.97,2.58,12.22h-4.03c-.29-.74-.59-1.37-.86-1.9ZM21.47,60.17h-4.03c1.63-4.25,2.56-8.62,2.57-12.22.02-.25.31-1.35.67-2.62.11,1.93.25,4.3.39,6.41.19,2.9.82,5.05,1.12,6.08.05.16.1.33.13.45-.28.53-.57,1.16-.86,1.9ZM56.02,60.17h-2.39c-.57-3.47-1.09-5.69-2.31-9.74-.07-.22-.14-.97-.22-1.77-.19-1.97-.51-5.26-1.4-8.62,0-.48-.04-2.74-.1-3.52-.22-2.87-1.71-6.59-5.17-7.63-.43-.13-.77-.19-1.13-.24-.64-.1-1.36-.22-2.93-.81l-1.83-.87c-1.17-.55-1.52-.76-1.63-.83-.11-.15-.27-.61-.38-2-.05-.61,0-1.23.14-1.96l.2-1.04c.07-.03.15-.06.22-.1.42-.22.76-.59.96-1.05.22-.5.36-1.83.41-2.38v-.07c0-.25-.05-.87-.51-1.32-.11-.1-.22-.18-.35-.25v-.18c.03-.69-.02-1.37-.13-2.01-.07-.45-.16-.79-.27-1.05-.88-2.12-2.81-3.29-5.44-3.29h-.13c-2.63,0-4.57,1.17-5.44,3.29-.11.26-.2.6-.27,1.05-.11.64-.15,1.31-.13,2.01v.18c-.12.06-.24.15-.34.25-.46.45-.51,1.07-.51,1.32v.06c.05.55.19,1.88.42,2.38.21.46.55.84.97,1.06.07.04.15.07.22.1l.2,1.04c.14.73.19,1.36.14,1.96-.11,1.38-.27,1.85-.38,2-.11.07-.46.28-1.63.83l-1.83.87c-1.56.59-2.29.71-2.93.81-.36.06-.7.11-1.13.24-3.46,1.04-4.95,4.77-5.17,7.63-.06.78-.09,3.04-.1,3.52-.88,3.36-1.21,6.65-1.4,8.62-.08.8-.15,1.55-.22,1.77-1.16,3.87-1.28,4.51-1.75,7.44-1.48-1.45-2.39-3.47-2.39-5.7V3.83h40.04c4.41,0,8,3.59,8,8v48.33Z" fill="#8f8f8f"/></svg>