<?xml version="1.0" encoding="utf-8"?>
<!-- Generator: Adobe Illustrator 28.1.0, SVG Export Plug-In . SVG Version: 6.00 Build 0)  -->
<svg version="1.1" id="Capa_1" xmlns="http://www.w3.org/2000/svg" xmlns:xlink="http://www.w3.org/1999/xlink" x="0px" y="0px"
	 viewBox="0 0 128 128" style="enable-background:new 0 0 128 128;" xml:space="preserve">
<style type="text/css">
	.st0{fill:#8F8F8F;}
	.st1{fill:#FFFFFF;}
</style>
<g>
	<g>
		<path class="st0" d="M117.78,32.64l-0.44-0.68c-0.28-0.43-0.86-0.56-1.29-0.28L97.42,43.74c-0.62,0.4-1.44-0.04-1.44-0.78v-10.4
			c0-0.51-0.42-0.93-0.93-0.93H2.04c-0.51,0-0.93,0.42-0.93,0.93v62.89c0,0.51,0.42,0.93,0.93,0.93h93.02
			c0.51,0,0.93-0.42,0.93-0.93V84.77c0-0.75,0.83-1.19,1.45-0.77l18.31,12.31c0.43,0.29,1,0.17,1.29-0.25l0.13-0.19
			c6.25-9.24,9.62-20.14,9.73-31.51C127,52.98,123.85,42.02,117.78,32.64z M92.72,94.05H4.36c-0.51,0-0.93-0.42-0.93-0.93V34.88
			c0-0.51,0.42-0.93,0.93-0.93h88.36c0.51,0,0.93,0.42,0.93,0.93v11.29V61.9c0,0.51-0.42,0.93-0.93,0.93H66.7L34.03,43.98
			c-0.62-0.36-1.4,0.09-1.4,0.81v38.43c0,0.72,0.78,1.17,1.4,0.81L66.7,65.16h26.03c0.51,0,0.93,0.42,0.93,0.93v15.35v11.67
			C93.65,93.63,93.24,94.05,92.72,94.05z M35.9,65.16h22.66c0.96,0,1.29,1.26,0.47,1.74L36.36,79.99c-0.62,0.36-1.4-0.09-1.4-0.81
			V66.1C34.96,65.58,35.38,65.16,35.9,65.16z M34.96,61.9V48.82c0-0.72,0.78-1.17,1.4-0.81l22.66,13.08
			c0.83,0.48,0.49,1.74-0.47,1.74H35.9C35.38,62.83,34.96,62.42,34.96,61.9z M115.08,93.05L96.4,80.49
			c-0.26-0.17-0.41-0.46-0.41-0.77V47.95c0-0.32,0.16-0.61,0.43-0.78l18.94-12.25c0.44-0.28,1.03-0.15,1.3,0.29
			c10.62,17.51,10.5,40.19-0.26,57.57C116.11,93.23,115.52,93.35,115.08,93.05z"/>
	</g>
</g>
</svg>
