<?xml version="1.0" encoding="utf-8"?>
<!-- Generator: Adobe Illustrator 28.1.0, SVG Export Plug-In . SVG Version: 6.00 Build 0)  -->
<svg version="1.1" id="Capa_1" xmlns="http://www.w3.org/2000/svg" xmlns:xlink="http://www.w3.org/1999/xlink" x="0px" y="0px"
	 viewBox="0 0 128 128" style="enable-background:new 0 0 128 128;" xml:space="preserve">
<style type="text/css">
	.st0{fill:#8F8F8F;}
	.st1{fill:#FFFFFF;}
</style>
<g>
	<g>
		<path class="st0" d="M123.51,118.72c0.28-0.28,0.35-0.72,0.18-1.08l-1.92-3.85l0.02-0.02l-0.4-0.75l-0.72-1.44l-0.03,0.03
			l-1.45-2.72c-3.03-5.7-7.52-10.5-13-13.92l-4.98-3.1c-0.25-0.15-0.41-0.41-0.44-0.7l-0.59-5.85c-0.28-2.74-1.44-5.34-3.3-7.37
			c-0.16-0.17-0.25-0.4-0.25-0.64V33.98c0-6.37-5.19-11.56-11.56-11.56c-0.55,0-1.1,0.05-1.66,0.14c-0.48,0.08-0.92-0.24-1.04-0.71
			c-1.29-5.01-5.81-8.67-11.16-8.67c-1.15,0-2.3,0.21-3.48,0.63c-0.39,0.14-0.82,0-1.06-0.34c-0.07-0.1-0.14-0.19-0.21-0.29
			c-2.21-2.93-5.53-4.62-9.1-4.62c-3.73,0-7.16,1.81-9.33,4.82c-0.24,0.34-0.67,0.47-1.07,0.33c-1.16-0.4-2.45-0.67-3.78-0.73
			c-0.5-0.02-0.9-0.43-0.91-0.93L42.22,0.98l-2.34,0.01l0.06,11.56c0,0.42-0.27,0.78-0.67,0.9c-0.8,0.24-1.59,0.57-2.34,1.02
			c-2.28,1.36-4.99,4.25-4.99,10.27l0,39.07c0,0.72-0.77,1.17-1.39,0.81c-2.66-1.5-5.39-2.99-7.56-3.94c-2-0.87-4.02-1.32-6.01-1.32
			c-5.24,0-8.96,2.78-10.69,5.38c-1.74,2.62-2.02,5.29-2.03,5.39c-0.16,1.48,0.41,2.95,1.51,3.94c0.19,0.17,19.29,17.38,24.63,23.03
			c5.19,5.49,11.67,8.49,18.27,8.49c0.14,0,0.29,0,0.43,0h19.65c4.06,0.05,7.95-0.79,11.62-2.47c0.18-0.08,0.39-0.1,0.59-0.06
			c0.58,0.13,1.18,0.22,1.78,0.26l5.55,0.41c0.29,0.02,0.56,0.18,0.72,0.42l3.82,5.9c3.06,4.73,7.18,8.7,12.02,11.59l3.62,2.16
			l2.12,1.19l3.85,1.92c0.36,0.18,0.79,0.11,1.08-0.18L123.51,118.72z M98.56,92.57c0.03,0.29,0.19,0.55,0.44,0.7l5.95,3.71
			c5.13,3.19,9.33,7.7,12.17,13.03l1.46,2.74c0.19,0.36,0.13,0.81-0.16,1.1l-2.32,2.32c-0.36,0.36-0.96,0.36-1.32,0L80.84,82.23
			c-0.36-0.36-0.36-0.96,0-1.32l7.19-7.19c0.36-0.36,0.96-0.36,1.32,0l5.47,5.47c1.71,1.71,2.78,3.97,3.03,6.38L98.56,92.57z
			 M68.76,103.26l-19.69,0c-6.11,0.11-12.14-2.63-16.98-7.75c-5.4-5.71-23.97-22.45-24.77-23.16c-0.55-0.49-0.83-1.22-0.75-1.96
			c0-0.02,0.25-2.23,1.65-4.34c1.4-2.1,4.43-4.34,8.75-4.34c1.66,0,3.37,0.38,5.07,1.12c2.71,1.18,6.44,3.31,9.72,5.18l1.11,0.63
			c0.62,0.36,1.4-0.09,1.4-0.81V24.74c0-3.9,1.33-6.76,3.86-8.27c0.21-0.12,0.42-0.24,0.64-0.34c0.55-0.26,1.19,0.13,1.19,0.74
			l0.03,5.15c0,0.52-0.42,0.94-0.93,0.94h-3.59c-0.52,0-0.93,0.42-0.93,0.93v20.62c0,3.35,2.72,6.07,6.07,6.07h6.02
			c0.52,0,0.93-0.42,0.93-0.93V29.04c0-2.81-1.92-5.17-4.51-5.86c-0.42-0.11-0.72-0.47-0.72-0.9l-0.03-6.1
			c0-0.47,0.38-0.85,0.85-0.83c1.45,0.06,2.91,0.42,4.2,1.07l-0.27-0.13l0.2,0.1c0.32,0.16,0.52,0.49,0.52,0.85v41.07
			c0,0.52,0.42,0.93,0.93,0.93h0.47c0.52,0,0.93-0.42,0.93-0.93l0-43.49c0-0.21,0.07-0.43,0.21-0.59c1.73-2.08,4.27-3.31,7.01-3.31
			c2.6,0,5.03,1.13,6.78,3.13c0.15,0.17,0.22,0.39,0.22,0.61l0,46.17c0,0.52,0.42,0.93,0.93,0.93h0.47c0.52,0,0.93-0.42,0.93-0.93
			v-43.4c0-0.35,0.2-0.68,0.51-0.83l0.08-0.04c1.45-0.74,2.62-1.02,3.93-1.02c3.84,0,7.14,2.37,8.51,5.76
			c0.05,0.11,0.07,0.23,0.07,0.35l0,36.67c0,0.52,0.42,0.93,0.93,0.93h0.47c0.52,0,0.93-0.42,0.93-0.93l0-32.32
			c0-0.42,0.28-0.79,0.68-0.9c0.77-0.21,1.52-0.32,2.26-0.32c5.09,0,9.22,4.14,9.22,9.22V73.1c0,0.83-1.01,1.25-1.6,0.66l-3.35-3.35
			c-0.36-0.36-0.96-0.36-1.32,0l-4.39,4.39l-8.38-8.38c-0.36-0.36-0.96-0.36-1.32,0l-0.33,0.33c-0.36,0.36-0.37,0.96,0,1.32
			l8.38,8.39l-8.34,8.34l-8.38-8.38c-0.36-0.36-0.96-0.36-1.32,0l-0.33,0.33c-0.36,0.36-0.37,0.96,0,1.32L72,86.45l-4.62,4.62
			c-0.36,0.36-0.36,0.96,0,1.32l7.2,7.2c0.41,0.41,0.85,0.79,1.31,1.14c0.62,0.47,0.44,1.44-0.31,1.65
			C73.38,102.99,71.1,103.28,68.76,103.26z M45.23,29.04v18.29c0,0.52-0.42,0.93-0.93,0.93h-3.69c-2.06,0-3.74-1.67-3.74-3.74V26.23
			c0-0.52,0.42-0.93,0.93-0.93h3.69C43.55,25.3,45.23,26.97,45.23,29.04z M106.02,119.65c-4.53-2.71-8.38-6.42-11.25-10.85
			l-4.45-6.88c-0.16-0.25-0.42-0.4-0.72-0.42l-6.7-0.5c-2.51-0.19-4.88-1.27-6.66-3.05l-5.55-5.55c-0.36-0.36-0.36-0.96,0-1.32
			l7.19-7.19c0.36-0.36,0.96-0.36,1.32,0l33.93,33.93c0.36,0.36,0.36,0.96,0,1.32l-2.46,2.46c-0.3,0.3-0.77,0.36-1.14,0.14
			L106.02,119.65z M113.22,122.34l5.88-5.88c0.45-0.45,1.21-0.33,1.5,0.24l0.24,0.48c0.18,0.36,0.11,0.79-0.18,1.08l-5.64,5.64
			c-0.28,0.28-0.72,0.35-1.08,0.18l-0.48-0.24C112.89,123.55,112.77,122.79,113.22,122.34z"/>
	</g>
</g>
</svg>
