<?xml version="1.0" encoding="utf-8"?>
<!-- Generator: Adobe Illustrator 28.1.0, SVG Export Plug-In . SVG Version: 6.00 Build 0)  -->
<svg version="1.1" id="Capa_1" xmlns="http://www.w3.org/2000/svg" xmlns:xlink="http://www.w3.org/1999/xlink" x="0px" y="0px"
	 viewBox="0 0 128 128" style="enable-background:new 0 0 128 128;" xml:space="preserve">
<style type="text/css">
	.st0{fill:#8F8F8F;}
	.st1{fill:#FFFFFF;}
</style>
<g>
	<g>
		<path class="st0" d="M86.38,17.09H41.85c-0.25,0-0.48,0.1-0.66,0.27L18.32,40.01c-0.18,0.18-0.28,0.42-0.28,0.67v22.92
			c0,0.24,0.09,0.48,0.26,0.65l45.02,46.38c0.37,0.38,0.98,0.38,1.34,0l45.02-46.38c0.17-0.17,0.26-0.41,0.26-0.65V40.67
			c0-0.25-0.1-0.49-0.27-0.66L87.04,17.37C86.86,17.19,86.63,17.09,86.38,17.09z M62.83,71.09v29.16c0,1-1.36,1.3-1.78,0.4
			L45.31,67.3c-0.34-0.72,0.32-1.51,1.09-1.3l15.74,4.19C62.55,70.3,62.83,70.67,62.83,71.09z M43.56,62.11V28.56
			c0-1.02,1.4-1.3,1.8-0.37L61.5,66.03c0.31,0.72-0.35,1.47-1.1,1.27l-16.14-4.29C43.85,62.9,43.56,62.53,43.56,62.11z M65.87,70.34
			l16.16-4.13c0.77-0.2,1.42,0.6,1.07,1.32l-16.16,33.35c-0.43,0.89-1.78,0.59-1.78-0.41V71.25C65.17,70.82,65.46,70.44,65.87,70.34
			z M67.01,66.08L83.17,28.2c0.4-0.94,1.8-0.65,1.8,0.37v33.75c0,0.43-0.29,0.8-0.7,0.91l-16.16,4.13
			C67.35,67.55,66.71,66.79,67.01,66.08z M63.4,64.55L44.72,20.73c-0.26-0.62,0.19-1.3,0.86-1.3h37.37c0.67,0,1.12,0.69,0.86,1.3
			L65.13,64.55C64.8,65.3,63.73,65.3,63.4,64.55z M39.63,59.46L21.54,41.44c-0.37-0.37-0.37-0.96,0-1.33L39.63,22.2
			c0.59-0.59,1.6-0.17,1.6,0.67V58.8C41.23,59.63,40.22,60.05,39.63,59.46z M56.02,99.74L25.97,68.78
			c-0.53-0.55-0.22-1.47,0.54-1.58l14.45-2.09c0.41-0.06,0.81,0.15,0.98,0.53l15.6,33.05C57.99,99.64,56.76,100.5,56.02,99.74z
			 M87.42,65.45l14.01,1.81c0.76,0.1,1.09,1.03,0.55,1.58L72.26,99.45c-0.74,0.76-1.98-0.1-1.51-1.06l15.71-32.42
			C86.63,65.61,87.02,65.4,87.42,65.45z M88.9,22.54l17.59,17.59c0.36,0.36,0.37,0.95,0.01,1.32l-17.59,18
			c-0.59,0.6-1.61,0.19-1.61-0.65V23.2C87.3,22.36,88.31,21.95,88.9,22.54z M21.98,45.17L38.46,61.6c0.55,0.54,0.24,1.48-0.53,1.59
			l-14.78,2.14c-0.3,0.04-0.6-0.06-0.81-0.27l-1.7-1.75c-0.17-0.17-0.26-0.41-0.26-0.65V45.84C20.38,45,21.39,44.59,21.98,45.17z
			 M104.85,65.34l-14.5-1.87c-0.77-0.1-1.1-1.04-0.56-1.6l16.22-16.59c0.59-0.6,1.61-0.19,1.61,0.65v16.71
			c0,0.24-0.09,0.48-0.26,0.65l-1.71,1.77C105.43,65.28,105.14,65.38,104.85,65.34z"/>
	</g>
</g>
</svg>
