<?xml version="1.0" encoding="utf-8"?>
<!-- Generator: Adobe Illustrator 28.1.0, SVG Export Plug-In . SVG Version: 6.00 Build 0)  -->
<svg version="1.1" id="Capa_1" xmlns="http://www.w3.org/2000/svg" xmlns:xlink="http://www.w3.org/1999/xlink" x="0px" y="0px"
	 viewBox="0 0 128 128" style="enable-background:new 0 0 128 128;" xml:space="preserve">
<style type="text/css">
	.st0{fill:#8F8F8F;}
	.st1{fill:#FFFFFF;}
</style>
<g>
	<g>
		<g>
			<path class="st0" d="M107,75.7l17.4-3.74c0.5-0.11,0.82-0.6,0.72-1.11l-8.22-38.3c-0.11-0.5-0.6-0.82-1.11-0.72l-17.4,3.74
				c-0.5,0.11-0.82,0.6-0.72,1.11l0.67,3.14c0.11,0.51-0.22,1.01-0.74,1.11l-11.63,2.23c-0.22,0.04-0.45,0-0.65-0.11L67.25,32.42
				c-0.28-0.17-0.63-0.17-0.92-0.01l-6.04,3.32c-0.26,0.14-0.57,0.15-0.84,0.03l-4.48-2.07c-0.27-0.13-0.59-0.11-0.85,0.03
				l-13.89,7.86c-0.76,0.43-1.66,0.56-2.51,0.37l-6.14-1.44c-0.49-0.12-0.8-0.61-0.7-1.1l0.7-3.25c0.11-0.5-0.21-1-0.72-1.11
				l-18.65-4c-0.5-0.11-1,0.21-1.11,0.72l-8.22,38.3c-0.11,0.5,0.21,1,0.72,1.11l18.65,4c0.5,0.11,1-0.21,1.11-0.72l0.67-3.14
				c0.12-0.56,0.71-0.88,1.24-0.68l9.34,3.54c0.53,0.2,0.76,0.83,0.48,1.33l-2.62,4.6c-0.25,0.45-0.1,1.02,0.35,1.27l5.87,3.33
				l-0.01,0.02l6.72,3.82l0,0l6.69,3.8l0,0l7.89,4.49c0.45,0.25,1.02,0.1,1.27-0.35l7.11-12.51c0.26-0.45,0.83-0.61,1.28-0.35
				l10.58,6.09c0.45,0.26,1.02,0.1,1.28-0.35l3.91-6.88l0,0l3.8-6.69l0,0l1.04-1.83l13.83-3.06c0.5-0.11,1,0.21,1.11,0.71l0.72,3.34
				C106,75.49,106.5,75.81,107,75.7z M20.46,72.41L6.37,69.38c-0.5-0.11-0.82-0.6-0.72-1.11l7.24-33.74c0.11-0.5,0.6-0.82,1.11-0.72
				l14.09,3.03c0.5,0.11,0.82,0.6,0.72,1.11l-6.49,30.24l-0.75,3.51C21.46,72.19,20.96,72.51,20.46,72.41z M101.16,37.37L114,34.61
				c0.5-0.11,1,0.21,1.11,0.72l7.24,33.74c0.11,0.5-0.21,1-0.72,1.11l-12.84,2.76c-0.5,0.11-1-0.21-1.11-0.72l-7.25-33.74
				C100.33,37.97,100.65,37.48,101.16,37.37z M35.65,79.24l2.99-5.25c0.25-0.45,0.82-0.6,1.27-0.35l3.03,1.72
				c0.45,0.25,0.6,0.82,0.35,1.27l-2.99,5.25c-0.25,0.45-0.82,0.6-1.27,0.35L36,80.52C35.55,80.26,35.39,79.69,35.65,79.24z
				 M47.94,75.05l3.03,1.72c0.45,0.25,0.6,0.82,0.35,1.27l-4.35,7.66c-0.25,0.45-0.82,0.6-1.27,0.35l-3.03-1.72
				c-0.45-0.25-0.6-0.82-0.35-1.27l4.35-7.66C46.92,74.95,47.49,74.79,47.94,75.05z M56.26,76.03l3.03,1.72
				c0.45,0.25,0.6,0.82,0.35,1.27l-5.96,10.49c-0.25,0.45-0.82,0.6-1.27,0.35l-3.03-1.72c-0.45-0.25-0.6-0.82-0.35-1.27l5.96-10.49
				C55.25,75.94,55.82,75.78,56.26,76.03z M59.1,93.68l-3.03-1.72c-0.45-0.25-0.6-0.82-0.35-1.27l5.96-10.49
				c0.25-0.45,0.82-0.6,1.27-0.35l3.03,1.72c0.45,0.25,0.6,0.82,0.35,1.27l-5.96,10.49C60.12,93.77,59.55,93.93,59.1,93.68z
				 M83.14,79.88l-13.75-7.85c-0.45-0.26-1.02-0.1-1.27,0.35l-0.23,0.4c-0.26,0.45-0.1,1.02,0.35,1.27l13.76,7.85
				c0.45,0.25,0.6,0.82,0.35,1.27l-1.72,3.03c-0.26,0.45-0.83,0.61-1.28,0.35l-9.37-5.4l0-0.01l-6.69-3.8l0,0l-7.9-4.49
				c-0.45-0.25-1.02-0.1-1.27,0.35l-0.69,1.21c-0.25,0.45-0.82,0.6-1.27,0.35l-5.1-2.9c-0.45-0.25-1.02-0.1-1.27,0.35l-0.44,0.77
				c-0.25,0.45-0.82,0.6-1.27,0.35l-5.06-2.87c-0.45-0.25-1.02-0.1-1.27,0.35l-0.57,1.01c-0.23,0.4-0.71,0.57-1.14,0.41l-10.53-3.99
				c-0.43-0.16-0.68-0.62-0.58-1.07l5.27-23.62c0.11-0.51,0.62-0.82,1.12-0.7l5.87,1.38c1.42,0.33,2.91,0.11,4.18-0.61l12.85-7.27
				c0.26-0.15,0.58-0.16,0.85-0.03l0.72,0.33c0.68,0.32,0.73,1.27,0.08,1.65l-5.05,2.97c-0.21,0.12-0.36,0.32-0.43,0.56L45.97,58
				c-0.13,0.47,0.12,0.95,0.57,1.12l9.22,3.45c0.52,0.19,1.09-0.1,1.23-0.63l3.51-13.21c0.07-0.25,0.24-0.46,0.47-0.59l4.02-2.12
				c0.28-0.15,0.62-0.14,0.9,0.02l27.48,15.91c0.44,0.26,0.6,0.82,0.34,1.27l-1.68,2.95c-0.25,0.45-0.82,0.6-1.27,0.35l-13.78-7.86
				c-0.45-0.26-1.02-0.1-1.27,0.35l-0.23,0.4c-0.26,0.45-0.1,1.02,0.35,1.27l13.75,7.85c0.45,0.25,0.6,0.82,0.35,1.27l-1.73,3.04
				c-0.25,0.45-0.82,0.6-1.27,0.35l-13.75-7.85c-0.45-0.26-1.02-0.1-1.27,0.35l-0.23,0.4c-0.26,0.45-0.1,1.02,0.35,1.27l13.76,7.85
				c0.45,0.25,0.6,0.82,0.35,1.27l-1.72,3.03C84.15,79.98,83.58,80.13,83.14,79.88z M93.84,70.81c-0.79,0.17-1.41-0.67-1.01-1.37
				l0.12-0.21l0.03,0.02l3.91-6.88c0.25-0.45,0.1-1.01-0.34-1.27l-30.6-17.72c-0.28-0.16-0.62-0.17-0.9-0.02l-6.07,3.2
				c-0.23,0.12-0.4,0.33-0.47,0.59L55.4,58.85c-0.14,0.53-0.71,0.83-1.23,0.63l-4.82-1.81c-0.45-0.17-0.7-0.65-0.57-1.12l3.63-13.21
				c0.06-0.23,0.22-0.43,0.43-0.56l7.67-4.52l5.8-3.19c0.29-0.16,0.64-0.15,0.92,0.01l17.7,10.4c0.2,0.11,0.43,0.15,0.65,0.11
				l12.59-2.41c0.5-0.1,0.98,0.22,1.09,0.72l5.07,23.62c0.11,0.5-0.21,0.99-0.71,1.11L93.84,70.81z"/>
		</g>
		<g>
			<circle class="st0" cx="113.81" cy="65.02" r="2.49"/>
		</g>
		<g>
			<circle class="st0" cx="14.48" cy="65.9" r="2.49"/>
		</g>
	</g>
</g>
</svg>
