<?xml version="1.0" encoding="utf-8"?>
<!-- Generator: Adobe Illustrator 28.1.0, SVG Export Plug-In . SVG Version: 6.00 Build 0)  -->
<svg version="1.1" id="Capa_1" xmlns="http://www.w3.org/2000/svg" xmlns:xlink="http://www.w3.org/1999/xlink" x="0px" y="0px"
	 viewBox="0 0 128 128" style="enable-background:new 0 0 128 128;" xml:space="preserve">
<style type="text/css">
	.st0{fill:#8F8F8F;}
	.st1{fill:#FFFFFF;}
</style>
<g>
	<g>
		<g>
			<path class="st1" d="M65.56,71.88c-0.43,0-0.79,0.35-0.79,0.79v10.19h-0.96c-0.38,0-0.71,0.26-0.8,0.64l-0.03,0.11l-0.1-0.06
				c-0.12-0.07-0.24-0.11-0.36-0.11c-0.36,0-0.69,0.21-0.87,0.54c-0.09,0.17-0.26,0.27-0.45,0.28l-0.25,0.01l-0.16,0.02
				c-1.06,0.24-1.88,1.13-2.03,2.21l-0.07,0.51v0.02l-0.01,0.14l-0.13-0.08c-1.22-0.7-4.11-2.14-5.73-2.94l-0.16-0.08h-18.6
				c-0.46,0-0.83,0.37-0.83,0.83c0,0.41,0.33,0.74,0.74,0.74H52.3l0.02,0.01c1.86,0.92,4.01,2.04,5.49,2.83
				c0.11,0.06,0.24,0.09,0.37,0.09c0.21,0,0.41-0.08,0.56-0.23c0.13-0.13,0.21-0.3,0.23-0.48l0.01-0.13l0.11,0.07
				c0.11,0.07,0.22,0.11,0.35,0.13c0.03,0,0.07,0.01,0.1,0.01c0.16,0,0.3-0.05,0.43-0.14c0.15-0.12,0.25-0.28,0.28-0.47l0.08-0.61
				c0.06-0.41,0.34-0.75,0.76-0.88l0.17-0.01c0.9-0.03,1.68-0.62,1.94-1.48l0.03-0.11l0.09,0.06c0.12,0.08,0.26,0.12,0.41,0.12h2.29
				c0.18,0,0.32-0.14,0.32-0.32V72.66C66.34,72.23,65.99,71.88,65.56,71.88z"/>
		</g>
		<g>
			<path class="st1" d="M89.83,59.67c-0.07-0.21-0.22-0.37-0.43-0.44c-0.08-0.03-0.17-0.05-0.25-0.05c-0.12,0-0.25,0.03-0.36,0.1
				c-0.37,0.21-0.96,0.58-1.82,1.11c-1.43,0.89-2.51,2.27-3.03,3.87l-0.91,2.77c-0.17,0.53-0.55,0.93-1.07,1.12
				c-0.19,0.07-0.4,0.11-0.61,0.11c-0.47,0-0.94-0.18-1.31-0.5l-1.65-1.45c-0.66-0.58-1.45-0.98-2.31-1.16l-3.24-0.68
				c-0.97-0.21-1.79-1.22-2.57-2.2l-0.16-0.19c-0.26-0.32-0.55-0.64-0.87-0.94l-1.76-1.65c-0.14-0.13-0.32-0.2-0.51-0.2
				c-0.21,0-0.4,0.08-0.55,0.24c-0.31,0.33-0.29,0.85,0.04,1.16l0.11,0.1l-0.15,0.04c-0.35,0.09-0.6,0.4-0.6,0.76v0.53
				c0,2.83-0.36,5.66-1.07,8.41c-0.11,0.41,0.14,0.84,0.55,0.95c0.07,0.02,0.14,0.03,0.21,0.03c0.14,0,0.27-0.04,0.39-0.11
				c0.18-0.11,0.31-0.28,0.37-0.48c0.74-2.87,1.12-5.84,1.12-8.8v-0.56l0.77,0.72c0.26,0.24,0.5,0.5,0.72,0.77l0.15,0.19
				c0.91,1.14,1.95,2.43,3.47,2.76l3.24,0.68c0.59,0.12,1.14,0.4,1.59,0.8l1.72,1.52c0.62,0.54,1.41,0.84,2.23,0.84
				c0.49,0,0.96-0.1,1.41-0.31c0.85-0.39,1.52-1.15,1.84-2.11l0.88-2.67c0.42-1.26,1.27-2.35,2.39-3.05c0.71-0.45,1.26-0.78,1.63-1
				C89.82,60.49,89.97,60.05,89.83,59.67z"/>
		</g>
		<g>
			<path class="st1" d="M38.49,60.67c0.36,0.21,0.94,0.56,1.7,1.04c1.13,0.71,1.98,1.79,2.39,3.05l0.88,2.67
				c0.32,0.97,1,1.74,1.87,2.12c0.44,0.19,0.9,0.29,1.37,0.29c0.82,0,1.61-0.3,2.23-0.84l1.72-1.52c0.45-0.4,1-0.67,1.59-0.8
				l3.24-0.68c1.53-0.32,2.56-1.61,3.47-2.76l0.15-0.19c0.22-0.27,0.46-0.53,0.72-0.77l0.77-0.72v0.56c0,2.97,0.38,5.93,1.12,8.8
				c0.05,0.2,0.18,0.37,0.37,0.48c0.12,0.07,0.26,0.11,0.39,0.11c0.07,0,0.14-0.01,0.21-0.03c0.41-0.11,0.66-0.54,0.55-0.95
				c-0.71-2.74-1.07-5.57-1.07-8.41V61.6c0-0.36-0.25-0.67-0.6-0.76l-0.15-0.04l0.14-0.13c0.15-0.14,0.24-0.34,0.25-0.55
				c0.01-0.21-0.07-0.41-0.21-0.56c-0.15-0.16-0.35-0.25-0.57-0.25c-0.2,0-0.39,0.08-0.54,0.21l-1.73,1.62
				c-0.32,0.3-0.61,0.61-0.87,0.94l-0.15,0.19c-0.78,0.98-1.6,2-2.57,2.2l-3.24,0.68c-0.85,0.18-1.65,0.58-2.31,1.16l-1.72,1.52
				c-0.34,0.3-0.75,0.45-1.18,0.45c-0.1,0-0.21-0.01-0.31-0.03c-0.66-0.11-1.23-0.63-1.46-1.31l-0.88-2.68
				c-0.53-1.6-1.6-2.98-3.03-3.87c-0.79-0.49-1.38-0.86-1.75-1.07c-0.12-0.07-0.26-0.11-0.4-0.11c-0.09,0-0.18,0.02-0.27,0.05
				c-0.22,0.08-0.39,0.25-0.47,0.48C38.02,60.09,38.17,60.48,38.49,60.67z"/>
		</g>
		<g>
			<path class="st1" d="M61.98,72.66v9.36c0,0.43,0.35,0.79,0.79,0.79s0.79-0.35,0.79-0.79v-9.36c0-0.43-0.35-0.79-0.79-0.79
				S61.98,72.23,61.98,72.66z"/>
		</g>
	</g>
	<path class="st1" d="M75.04,106.37c-1.73,0-3.29-0.31-4.58-0.94c-2.57-1.24-3.94-3.68-3.94-6.92c0-0.13-0.07-0.25-0.19-0.32
		c-0.58-0.33-1.02-0.78-1.33-1.35c-1.03-1.94-0.12-4.6,0.69-6.94c0.12-0.35,0.24-0.7,0.34-1.02c0.1-0.32-0.24-0.59-0.53-0.43
		c-0.01,0-0.01,0.01-0.02,0.01c-0.92,0.53-2.07,0.53-2.99,0c-0.01,0-0.01-0.01-0.02-0.01c-0.29-0.16-0.63,0.11-0.53,0.43
		c0.1,0.32,0.22,0.66,0.34,1.02c0.81,2.34,1.73,5,0.69,6.94c-0.3,0.57-0.75,1.03-1.33,1.35c-0.12,0.07-0.19,0.19-0.19,0.32
		c0,3.24-1.37,5.67-3.94,6.92c-2.41,1.17-5.77,1.25-9.45,0.22c-3.46-0.96-6.82-2.82-9.23-5.08c-3.47-3.26-4.69-6.99-3.47-10.54
		c0.02-0.07,0.02-0.15,0-0.23c-1.1-3.38,1.77-5.66,4.39-7.28c0.27-0.17,0.21-0.59-0.1-0.66c-0.94-0.23-1.78-0.6-2.52-1.12
		c-1.56-1.09-2.59-2.75-3.07-4.95c-0.03-0.11-0.1-0.21-0.21-0.26c-2.67-1.18-4.38-5.1-4.55-8.63c-0.11-2.4,0.49-4.33,1.67-5.5
		c0.13-0.13,0.14-0.35,0.02-0.49c-1.37-1.6-1.56-3.45-1.05-4.89c0.03-0.07,0.03-0.15,0.01-0.22c-1.29-4.19-1.19-13.42,2.47-17.27
		c1.06-1.12,2.33-1.71,3.76-1.77c0.2-0.01,0.35-0.19,0.34-0.39c-0.06-0.82,0.13-1.48,0.36-1.97c0.96-2.04,3.49-3.07,5.47-3.58
		c0.15-0.04,0.26-0.17,0.27-0.32c0.11-1.08,0.6-2.13,1.43-2.97c1.01-1.03,2.34-1.59,3.67-1.58c0.1,0,0.19-0.03,0.25-0.1
		c1.92-1.86,4.73-3.3,7.65-3.89c3.12-0.64,5.98-0.29,8.17,0.99c0.11,0.07,0.25,0.07,0.36,0c2.19-1.27,5.05-1.63,8.17-0.99
		c2.92,0.6,5.73,2.04,7.65,3.89c0.07,0.07,0.16,0.1,0.25,0.1c1.33-0.02,2.65,0.54,3.67,1.58c0.82,0.84,1.32,1.89,1.43,2.97
		c0.02,0.16,0.12,0.29,0.27,0.32c1.98,0.51,4.51,1.54,5.47,3.58c0.23,0.49,0.42,1.16,0.36,1.97c-0.01,0.2,0.14,0.38,0.34,0.39
		c1.43,0.06,2.7,0.66,3.76,1.77c3.65,3.85,3.76,13.09,2.47,17.27c-0.02,0.07-0.02,0.15,0.01,0.22c0.51,1.44,0.32,3.29-1.05,4.89
		c-0.12,0.14-0.11,0.36,0.02,0.49c1.17,1.18,1.78,3.1,1.67,5.5c-0.16,3.54-1.88,7.46-4.55,8.63c-0.11,0.05-0.19,0.14-0.21,0.26
		c-0.48,2.19-1.51,3.85-3.07,4.95c-0.74,0.52-1.58,0.89-2.52,1.12c-0.31,0.08-0.37,0.49-0.1,0.66c2.62,1.62,5.49,3.9,4.39,7.28
		c-0.02,0.07-0.02,0.15,0,0.23c1.21,3.56-0.01,7.28-3.47,10.54c-2.41,2.27-5.77,4.12-9.23,5.08
		C78.2,106.13,76.55,106.37,75.04,106.37z M66.02,86.03c0.7,0,1.51,0.32,2.29,1.37l0.2,0.27c0.06,0.08,0.09,0.19,0.06,0.29
		l-0.07,0.33c-0.14,0.68-0.42,1.48-0.71,2.32c-0.59,1.72-1.41,4.08-0.83,5.17c0.11,0.21,0.33,0.5,1,0.68l0.61,0.16
		c0.17,0.05,0.28,0.21,0.27,0.38l-0.06,0.63c-0.25,2.87,0.64,4.82,2.65,5.79c3.95,1.91,11.66-0.22,16.18-4.48
		c1.69-1.59,4.3-4.83,2.74-8.62l-0.12-0.29c-0.04-0.09-0.04-0.2,0-0.29l0.13-0.29c1.02-2.31-1.26-3.86-4.6-5.81
		c-1.21-0.71-2.36-1.38-3.12-2.11l-1.88-1.8c-0.26-0.25-0.03-0.69,0.33-0.62l2.55,0.53c2.47,0.51,4.51,0.26,5.93-0.73
		c1.24-0.87,2.02-2.33,2.31-4.34l0.08-0.54c0.02-0.16,0.14-0.28,0.3-0.31l0.53-0.09c1.8-0.32,3.51-3.51,3.67-6.84
		c0.04-0.89,0.02-3.84-1.96-4.38l-1.61-0.44c-0.3-0.08-0.37-0.49-0.1-0.66l1.4-0.91c1.34-0.87,2.42-2.47,1.64-3.94l-0.16-0.3
		c-0.05-0.09-0.06-0.2-0.02-0.3l0.12-0.32c1.41-3.64,1.14-12.39-1.81-15.5c-1.04-1.09-2.26-1.35-3.86-0.83l-1.83,0.6
		c-0.32,0.1-0.59-0.24-0.43-0.52l0.94-1.67c0.51-0.91,0.62-1.66,0.32-2.29c-0.64-1.36-3.05-2.24-5.09-2.61l-0.76-0.14
		c-0.2-0.04-0.33-0.23-0.29-0.43l0.16-0.75c0.17-0.81-0.11-1.67-0.77-2.34c-0.68-0.69-1.62-1.03-2.44-0.87l-0.41,0.08
		c-0.12,0.02-0.25-0.02-0.34-0.11l-0.28-0.31c-3.24-3.56-10.42-5.46-14.19-2.59l-0.45,0.34c-0.13,0.1-0.31,0.1-0.44,0l-0.45-0.34
		c-3.77-2.87-10.96-0.98-14.19,2.59l-0.28,0.31c-0.09,0.09-0.21,0.14-0.34,0.11L48.1,28.2c-0.83-0.16-1.76,0.18-2.44,0.87
		c-0.66,0.67-0.94,1.52-0.77,2.34l0.16,0.75c0.04,0.2-0.09,0.4-0.29,0.43L44,32.73c-2.04,0.37-4.46,1.25-5.09,2.61
		c-0.3,0.63-0.19,1.38,0.32,2.29l0.94,1.67c0.16,0.29-0.12,0.63-0.43,0.52l-1.83-0.6c-1.6-0.52-2.83-0.26-3.86,0.83
		c-1.33,1.41-2.26,4.19-2.53,7.64c-0.24,2.98,0.05,6.14,0.72,7.87l0.12,0.32c0.04,0.1,0.03,0.21-0.02,0.3l-0.16,0.3
		c-0.78,1.47,0.3,3.07,1.64,3.94l1.4,0.91c0.26,0.17,0.2,0.57-0.1,0.66l-1.61,0.44c-1.98,0.54-2,3.49-1.96,4.38
		c0.15,3.33,1.87,6.52,3.67,6.84l0.53,0.09c0.15,0.03,0.27,0.15,0.3,0.31l0.08,0.53c0.29,2.01,1.07,3.47,2.31,4.34
		c1.41,0.99,3.46,1.24,5.93,0.73l2.55-0.53c0.36-0.07,0.59,0.37,0.33,0.62l-1.88,1.8c-0.76,0.73-1.91,1.4-3.12,2.11
		c-5.29,3.09-5.24,4.36-4.6,5.81l0.13,0.29c0.04,0.09,0.04,0.19,0,0.29l-0.12,0.29c-1.56,3.79,1.05,7.03,2.74,8.62
		c4.52,4.26,12.24,6.39,16.18,4.48c2.01-0.97,2.9-2.92,2.65-5.79l-0.06-0.63c-0.02-0.18,0.1-0.34,0.27-0.38l0.61-0.16
		c0.67-0.18,0.89-0.47,1-0.68c0.58-1.09-0.24-3.45-0.83-5.17c-0.29-0.85-0.57-1.65-0.71-2.32l-0.07-0.33c-0.02-0.1,0-0.21,0.06-0.29
		l0.2-0.27c1.53-2.04,3.11-1.32,3.92-0.87c0.25,0.14,0.55,0.14,0.79,0C64.78,86.31,65.36,86.03,66.02,86.03z"/>
</g>
</svg>
