<?xml version="1.0" encoding="utf-8"?>
<!-- Generator: Adobe Illustrator 28.1.0, SVG Export Plug-In . SVG Version: 6.00 Build 0)  -->
<svg version="1.1" id="Capa_1" xmlns="http://www.w3.org/2000/svg" xmlns:xlink="http://www.w3.org/1999/xlink" x="0px" y="0px"
	 viewBox="0 0 128 128" style="enable-background:new 0 0 128 128;" xml:space="preserve">
<style type="text/css">
	.st0{fill:#8F8F8F;}
	.st1{fill:#FFFFFF;}
</style>
<path class="st1" d="M93.27,66l-0.3-0.27c-0.18-0.17-0.35-0.35-0.48-0.56c-0.35-0.54-0.59-0.84-0.8-1.01
	c-0.52-0.41-0.83-0.72-0.94-0.87c-0.03-0.04-0.1-0.14-0.19-0.28c-0.35-0.52-0.94-1.39-1.39-1.88c-0.2-0.24-0.63-1.5-0.7-1.95
	c-0.85-5.57-1.34-8.01-2.97-13.43c-0.07-0.24-0.15-1.07-0.24-1.94c-0.21-2.17-0.56-5.78-1.54-9.46c-0.01-0.53-0.05-3.01-0.11-3.86
	c-0.24-3.15-1.88-7.23-5.67-8.38c-0.47-0.14-0.84-0.2-1.24-0.27c-0.7-0.11-1.49-0.24-3.21-0.89L71.49,20
	c-1.29-0.6-1.67-0.83-1.79-0.91c-0.12-0.17-0.3-0.67-0.42-2.2c-0.05-0.66,0-1.35,0.15-2.15l0.22-1.14c0.08-0.03,0.16-0.06,0.24-0.11
	c0.46-0.24,0.83-0.65,1.06-1.16c0.24-0.54,0.4-2.01,0.45-2.61l0-0.07c0-0.27-0.05-0.96-0.56-1.44c-0.12-0.11-0.24-0.2-0.38-0.27
	l0.01-0.2c0.02-0.76-0.03-1.51-0.14-2.21c-0.08-0.49-0.18-0.86-0.3-1.15c-0.96-2.33-3.08-3.61-5.96-3.61c-0.05,0-0.1,0-0.15,0
	c-2.89,0-5.01,1.28-5.97,3.61c-0.12,0.28-0.21,0.66-0.3,1.15c-0.12,0.7-0.17,1.44-0.14,2.21l0.01,0.2
	c-0.14,0.07-0.27,0.16-0.38,0.27c-0.51,0.49-0.56,1.17-0.56,1.44l0,0.07c0.06,0.6,0.21,2.07,0.45,2.61c0.23,0.51,0.6,0.92,1.06,1.16
	c0.08,0.04,0.17,0.08,0.24,0.11l0.22,1.14c0.16,0.81,0.2,1.49,0.15,2.15c-0.12,1.52-0.3,2.03-0.42,2.2
	c-0.12,0.08-0.5,0.31-1.79,0.91l-2.01,0.95c-1.72,0.65-2.51,0.78-3.21,0.89c-0.4,0.06-0.77,0.12-1.24,0.27
	c-3.79,1.15-5.42,5.23-5.67,8.37c-0.07,0.85-0.11,3.33-0.11,3.86c-0.97,3.68-1.32,7.3-1.54,9.46c-0.09,0.88-0.17,1.7-0.24,1.94
	c-1.63,5.42-2.12,7.86-2.97,13.43c-0.07,0.45-0.51,1.71-0.7,1.95c-0.45,0.5-1.04,1.37-1.39,1.89c-0.09,0.14-0.16,0.24-0.19,0.28
	c-0.12,0.15-0.42,0.46-0.95,0.87c-0.21,0.17-0.44,0.46-0.8,1.01c-0.13,0.21-0.29,0.39-0.48,0.56L34.73,66
	c-0.38,0.34-0.57,0.79-0.52,1.23c0.04,0.37,0.25,0.7,0.56,0.9c0.39,0.25,0.88,0.28,1.46,0.09l0.03-0.01
	c0.31-0.11,0.6-0.25,0.87-0.42l-1.29,5.2c-0.12,0.48,0.02,0.99,0.37,1.35c0.32,0.34,0.81,0.48,1.26,0.38
	c0.12-0.03,0.23-0.07,0.33-0.12c0.01,0.44,0.24,0.84,0.62,1.09c0.4,0.26,0.92,0.31,1.35,0.12l0.05-0.02
	c0.22-0.1,0.41-0.25,0.54-0.43c0.18,0.12,0.39,0.18,0.59,0.2c0.76,0.08,1.32-0.34,1.51-1.11c0.02-0.1,0.05-0.22,0.08-0.36
	c0.01,0.01,0.03,0.02,0.04,0.02c0.32,0.18,0.71,0.21,1.05,0.1c0.7-0.23,0.82-0.83,0.88-1.12l0.01-0.08
	c0.01-0.14,0.29-3.28,0.33-4.02l0.33-2.42c0.07-0.55,0.05-1.1-0.08-1.63c-0.04-0.16-0.07-0.56-0.08-0.81
	c0.07-0.7,1.02-2.6,1.34-3.23l0.11-0.23c2.91-5.88,4.65-12.48,4.67-17.64c0.03-0.27,0.34-1.49,0.74-2.89
	c0.12,2.12,0.27,4.72,0.43,7.04c0.21,3.19,0.9,5.54,1.23,6.68c0.05,0.17,0.11,0.36,0.14,0.49c-2.29,4.34-5.53,14.97-2.67,38.28
	c-0.01,0.03-0.03,0.07-0.04,0.12c-0.37,1.06-1.48,4.29,0.59,19.92c0.16,1.23,0.18,2.89-0.16,3.83c-0.14,0.4-0.55,1.16-0.79,1.36
	c-0.27,0.22-0.56,0.45-0.85,0.68c-2.27,1.79-4.61,3.65-4.39,5.53c0.27,2.29,3.23,3.14,5.04,3.14c0.01,0,0.01,0,0.02,0
	c1.35,0,2.41-0.57,3.43-1.12c0.67-0.36,1.3-0.69,1.98-0.85l0.05-0.01c1.25-0.38,2.23-1.58,2.33-2.88c0.06-0.95,0.2-2.87,0.33-4.57
	c0.12-1.68,0.23-3.13,0.25-3.55c0.16-3.04,0.63-5.28,1.08-7.45c0.57-2.74,1.11-5.32,0.88-8.97c-0.25-3.98-0.14-6.42,0.36-7.91
	c1.24-3.68,1.81-10.04,2.31-15.65c0.18-2,0.35-3.94,0.55-5.67c0.2,1.73,0.37,3.68,0.55,5.67c0.5,5.61,1.07,11.97,2.31,15.65
	c0.5,1.49,0.61,3.93,0.36,7.91c-0.23,3.65,0.31,6.23,0.88,8.97c0.45,2.17,0.92,4.41,1.08,7.45c0.02,0.42,0.13,1.87,0.25,3.54
	c0.13,1.7,0.27,3.63,0.33,4.59c0.1,1.28,1.08,2.48,2.33,2.86l0.05,0.01c0.68,0.16,1.31,0.5,1.98,0.85c1.03,0.55,2.09,1.11,3.43,1.12
	c0.01,0,0.01,0,0.02,0c1.81,0,4.76-0.85,5.04-3.14c0.23-1.88-2.12-3.74-4.39-5.53c-0.29-0.23-0.57-0.45-0.85-0.68
	c-0.24-0.19-0.65-0.96-0.79-1.36c-0.34-0.94-0.32-2.6-0.16-3.83c2.06-15.64,0.95-18.86,0.59-19.92c-0.02-0.05-0.03-0.08-0.04-0.12
	c2.86-23.31-0.39-33.94-2.67-38.28c0.04-0.13,0.09-0.32,0.14-0.49c0.33-1.13,1.02-3.49,1.23-6.68c0.15-2.29,0.24-4.79,0.29-6.83
	c0.64,1.8,0.84,2.47,0.88,2.68c0.02,5.18,1.77,11.77,4.67,17.63l0.11,0.23c0.32,0.63,1.26,2.53,1.34,3.23
	c-0.01,0.25-0.04,0.65-0.08,0.81c-0.13,0.54-0.16,1.09-0.08,1.63l0.33,2.42c0.04,0.74,0.32,3.89,0.33,4.02l0.01,0.08
	c0.06,0.29,0.18,0.9,0.88,1.12c0.35,0.11,0.73,0.08,1.05-0.1c0.01-0.01,0.03-0.02,0.04-0.02c0.03,0.13,0.06,0.25,0.08,0.36
	c0.19,0.77,0.75,1.18,1.51,1.11c0.2-0.02,0.41-0.09,0.59-0.2c0.14,0.19,0.33,0.34,0.54,0.43l0.06,0.02
	c0.44,0.19,0.95,0.15,1.35-0.12c0.38-0.25,0.6-0.65,0.62-1.09c0.1,0.05,0.22,0.1,0.33,0.12c0.46,0.1,0.94-0.05,1.26-0.38
	c0.35-0.36,0.49-0.87,0.37-1.35l-1.2-4.84l-0.09-0.36c0.27,0.16,0.57,0.3,0.87,0.42l0.03,0.01c0.58,0.19,1.08,0.16,1.46-0.09
	c0.31-0.2,0.52-0.53,0.56-0.9C93.84,66.79,93.65,66.34,93.27,66z M74.39,41.04c-0.18-0.27-0.4-0.53-0.66-0.76
	c-0.02-0.02-0.05-0.04-0.08-0.07l-0.03-0.03c-0.14-0.12-0.29-0.23-0.45-0.34c0.05-0.04,0.09-0.08,0.13-0.13
	c0.42-0.55,0.74-1.18,0.93-1.84c0.09-0.13,0.17-0.25,0.23-0.39C74.45,38.38,74.43,39.63,74.39,41.04z M70.6,44.89l-0.15,0.05
	c-0.29,0.09-0.49,0.33-0.54,0.61c-1.36-0.39-3.01-0.62-4.77-0.64l0.07-5.36c2.44,0.03,4.71,0.44,6.25,1.14
	c0.47,0.21,0.86,0.45,1.15,0.69l0.08,0.07c0.19,0.17,0.34,0.35,0.44,0.53c0.12,0.21,0.18,0.42,0.18,0.65l0,0.05
	c-0.02,0.39-0.21,0.74-0.59,1.09c-0.15,0.14-0.35,0.29-0.57,0.42C71.73,44.45,71.2,44.69,70.6,44.89z M58,45.55
	c-0.05-0.28-0.25-0.52-0.54-0.61l-0.13-0.04c-0.62-0.2-1.14-0.44-1.57-0.71c-0.22-0.14-0.41-0.28-0.57-0.43
	c-0.38-0.35-0.57-0.7-0.58-1.09l0-0.05c0,0,0,0,0,0c0,0,0,0,0,0c0-0.23,0.06-0.44,0.18-0.65c0.1-0.18,0.26-0.36,0.46-0.54l0.06-0.05
	c0.3-0.25,0.69-0.49,1.16-0.7c1.56-0.71,3.86-1.12,6.33-1.14l0.03,2.61l0.04,2.45l0,0.3C61.07,44.92,59.38,45.15,58,45.55z
	 M53.28,37.05c0.11,0.37,0.3,0.72,0.56,1.04c0.3,0.37,0.7,0.72,1.19,1.02c0.16,0.1,0.32,0.19,0.5,0.28
	c-0.48,0.24-0.89,0.5-1.23,0.79l-0.03,0.03c-0.03,0.02-0.05,0.04-0.07,0.06c-0.28,0.25-0.51,0.52-0.69,0.81
	C53.41,39.46,53.34,38.02,53.28,37.05z M62.76,37.26l0.01,0.72c-1.82,0.01-3.56,0.23-5.04,0.62c-0.74-0.23-1.37-0.49-1.87-0.81
	c-0.34-0.21-0.61-0.44-0.8-0.68c-0.18-0.22-0.28-0.43-0.32-0.67c-0.01-0.07-0.02-0.14-0.02-0.21c0-0.16,0.03-0.31,0.09-0.46
	c0.06-0.14,0.14-0.28,0.24-0.41c0.08-0.11,0.18-0.21,0.3-0.31c0.22-0.2,0.51-0.4,0.86-0.58c0.4-0.21,0.87-0.4,1.4-0.57
	c1.43-0.45,3.23-0.71,5.12-0.74C62.74,34.5,62.75,35.88,62.76,37.26z M62.85,55.72c-1.58,0.29-2.96,0.95-4.03,1.94
	c-0.07,0.06-0.14,0.11-0.2,0.17l0.33-1.46c0.44-1.8,2.05-3.12,3.9-3.21c0,0,0,0,0,0V55.72z M65.13,53.16
	c1.83,0.12,3.41,1.43,3.84,3.19l0.33,1.48c-0.07-0.06-0.13-0.11-0.2-0.17c-1.06-0.98-2.42-1.63-3.97-1.93V53.16z M73.2,36.3
	c-0.17,0.11-0.29,0.29-0.33,0.51l-0.05,0.26c-0.01,0.04-0.02,0.09-0.03,0.13c-0.18,0.21-0.43,0.41-0.73,0.6
	c-0.5,0.31-1.13,0.58-1.86,0.81c-1.46-0.38-3.17-0.6-4.96-0.61l0.01-0.72c0.01-1.38,0.02-2.75,0.03-4.11
	c1.85,0.04,3.62,0.29,5.03,0.74c0.53,0.17,1,0.36,1.4,0.57c0.35,0.18,0.64,0.38,0.87,0.59c0.11,0.09,0.21,0.2,0.29,0.3
	c0.11,0.14,0.19,0.28,0.25,0.42c0.06,0.15,0.09,0.3,0.09,0.46C73.2,36.25,73.2,36.27,73.2,36.3z M37.08,65.88l-0.18,0.16
	c-0.07,0.06-0.14,0.12-0.21,0.18c0.05-0.06,0.09-0.13,0.13-0.2c0.33-0.5,0.44-0.62,0.46-0.63c0.39-0.31,0.92-0.76,1.22-1.15
	c0.04-0.05,0.12-0.17,0.24-0.35c0.31-0.45,0.88-1.3,1.26-1.72c0.51-0.57,1.01-2.29,1.08-2.75c0.85-5.57,1.31-7.85,2.92-13.22
	c0.11-0.37,0.18-0.99,0.3-2.24c0.21-2.14,0.56-5.71,1.51-9.3l0.02-0.09l0-0.1c0-0.03,0.04-2.97,0.11-3.86
	c0.05-0.59,0.56-5.79,4.56-7c0.37-0.11,0.66-0.16,1.04-0.22c0.74-0.12,1.66-0.27,3.55-0.98l2.09-0.99c1.85-0.87,2.12-1.08,2.28-1.27
	c0.56-0.65,0.72-1.89,0.82-3.13c0.06-0.8,0-1.62-0.18-2.57l-0.48-2.47l-0.76,0.14c-0.01,0-0.02,0-0.03,0.01c0,0-0.01,0-0.01,0
	c-0.15-0.08-0.28-0.22-0.36-0.41c-0.1-0.23-0.24-1.25-0.32-2.08c0.01-0.15,0.05-0.26,0.08-0.28c0.01,0,0.03-0.01,0.07-0.01l0,0
	c0.09,0.22,0.22,0.42,0.4,0.59l0.11,0.1c0.21,0.49,0.63,0.86,1.16,1l0.2,0.05c0.17,0.03,0.35,0.05,0.52,0.04
	c0.33,0.33,0.91,0.56,1.92,0.44c0.04,0.24,0.05,0.45,0.06,0.59c-0.01,0.23-0.04,1.41-0.02,1.88c0,0.11,0.01,0.22,0.01,0.32
	c0.01,0.1,0.01,0.2,0.01,0.27c0,0.14,0,0.29,0,0.43l0.02,4.98c-1.44,0.23-3.2,0.84-4.22,1.41c-0.38,0.21-0.51,0.69-0.3,1.06
	c0.14,0.26,0.41,0.4,0.68,0.4c0.13,0,0.26-0.03,0.38-0.1c0.83-0.46,2.27-0.98,3.47-1.2l0.01,2.79l-0.6-0.12
	c-1.19-0.24-2.25-0.19-3.34,0.17c-0.78,0.26-1.37,0.52-1.53,0.59c-0.57,0.26-1.42,0.83-2.18,1.37c-0.06,0.03-0.11,0.06-0.16,0.1
	l-0.16,0.13c-0.69,0.51-1.26,0.95-1.39,1.05c-0.28,0.23-0.55,0.47-0.8,0.73c-0.06,0.07-0.11,0.14-0.14,0.22
	c-0.18,0.18-0.34,0.38-0.5,0.58c0,0,0,0-0.01,0.01c-0.42,0.49-0.83,1.11-1.22,1.8c-0.09,0.12-0.16,0.23-0.22,0.31
	c-0.1,0.12-0.16,0.27-0.17,0.42c-1.43,2.75-2.5,6.08-2.56,6.27l0.01,0c-0.15,0.5-0.95,3.39-5.99,21.49l0,0
	c0,0.01-0.01,0.01-0.01,0.02c-0.09,0.35-0.43,0.93-0.86,1.66c-0.63,1.06-1.48,2.5-2.35,4.52C38.05,65.47,37.48,65.53,37.08,65.88z
	 M51.7,35.53c-0.61,1.64-2.11,6.75-2.11,7.47c-0.02,4.88-1.74,11.39-4.51,16.98l-0.11,0.22c-0.75,1.49-1.44,2.99-1.5,3.86l0,0.04
	l0,0.04c0,0.13,0.03,0.78,0.12,1.17c0.08,0.35,0.1,0.71,0.05,1.06l-0.29,2.13l-0.92,0.24c-0.27,0.07-0.49,0.27-0.58,0.52l0.04-0.34
	l-0.93-0.01c-0.42,0.01-0.77,0.29-0.85,0.68l-0.08,0.39l0.07-0.49c0.05-0.37-0.14-0.72-0.48-0.89c-0.16-0.08-0.34-0.1-0.51-0.07
	c1.09-3.16,2.29-5.18,3.1-6.54c0.51-0.86,0.88-1.48,1.03-2.06l0,0c0,0,5.81-20.85,5.97-21.45c0.08-0.24,1.29-3.98,2.77-6.61
	c0.15-0.21,0.31-0.46,0.49-0.73c0.15-0.23,0.3-0.46,0.45-0.68c0.3-0.45,0.67-0.85,1.09-1.2l1.65-1.36c0.8-0.58,1.71-1.2,2.21-1.43
	c0.14-0.07,0.67-0.3,1.37-0.53c0.83-0.27,1.62-0.31,2.54-0.12l0.92,0.19l0.01,1.48c0,1.28,0.01,2.67,0.01,4.11
	c-2.04,0.03-4.01,0.31-5.58,0.81c-0.62,0.19-1.17,0.42-1.66,0.68c-0.47,0.24-0.87,0.52-1.18,0.8c-0.18,0.16-0.34,0.33-0.49,0.51
	c-0.2,0.26-0.36,0.53-0.47,0.81c-0.06,0.16-0.11,0.33-0.15,0.5l-0.19-3.69L51.7,35.53z M55.47,123.74
	c-0.86,0.21-1.61,0.61-2.33,0.99c-0.9,0.48-1.74,0.93-2.7,0.93c0,0-0.01,0-0.01,0c-1.34,0-3.35-0.62-3.49-1.76
	c-0.12-1.02,2.24-2.89,3.8-4.12c0.29-0.23,0.58-0.46,0.86-0.69c0.65-0.52,1.18-1.75,1.28-2.05c0.58-1.63,0.3-4.08,0.24-4.56
	c-1.34-10.13-1.56-16.6-0.66-19.21c0.08-0.24,0.16-0.46,0.12-0.74c-2.98-24.22,0.83-34.4,2.6-37.65c0.19-0.35,0.11-0.63-0.13-1.46
	c-0.34-1.16-0.97-3.32-1.17-6.34c-0.06-0.86-0.11-1.75-0.17-2.65c0.13,0.16,0.27,0.32,0.43,0.47c0.23,0.21,0.49,0.41,0.8,0.6
	c0.4,0.25,0.87,0.48,1.4,0.68c-0.94,0.49-1.52,1.07-1.73,1.76c-0.05,0.17-0.08,0.35-0.08,0.53c0,0.19,0.03,0.37,0.08,0.54
	c0.12,0.38,0.36,0.74,0.72,1.07c0.14,0.12,0.29,0.24,0.46,0.36c0.12,0.08,0.26,0.16,0.4,0.24v0.02l0.46,0.21
	c0.24,0.11,0.49,0.21,0.77,0.31c0.09,0.03,0.17,0.04,0.26,0.04c0.32,0,0.62-0.2,0.74-0.52c0.14-0.41-0.07-0.85-0.48-1
	c-0.18-0.06-0.35-0.13-0.51-0.2l-0.13-0.06c-0.24-0.11-0.45-0.22-0.63-0.34c-0.11-0.07-0.2-0.15-0.29-0.22
	c-0.14-0.13-0.24-0.26-0.27-0.37c-0.01-0.03-0.01-0.05-0.01-0.07c0-0.03,0-0.05,0.01-0.08c0.03-0.1,0.2-0.46,1.1-0.89
	c1.32-0.63,3.42-1.01,5.65-1.04v5.12c-0.03,0-0.05,0-0.08,0c-2.54,0.13-4.73,1.94-5.34,4.42l-0.97,4.32l-0.01,0.04
	c-0.06,0.34-0.19,0.95-0.36,1.71c-0.16,0.74-0.37,1.64-0.58,2.68c-1.25,5.98-1.08,12.26,0.48,18.2c0.32,1.08,0.43,2.2,0.32,3.32
	l-1.6,15.97c-0.19,1.91-0.12,3.84,0.2,5.73l0.71,4.13c0.18,1.03,0.37,2.16,0.54,3.21c0.19,1.13-0.89,2.26-2.02,3.45
	c-1,1.04-2.03,2.12-2.41,3.41c-0.12,0.41,0.11,0.85,0.52,0.97c0.07,0.02,0.15,0.03,0.22,0.03c0.34,0,0.65-0.22,0.75-0.56
	c0.28-0.94,1.18-1.87,2.05-2.78c0.62-0.65,1.25-1.31,1.72-2.02c-0.12,1.66-0.26,3.49-0.31,4.41
	C56.63,122.9,56.11,123.53,55.47,123.74z M69.63,106.47c-0.57-2.74-1.07-5.12-0.85-8.55c0.27-4.25,0.14-6.79-0.44-8.51
	c-1.18-3.5-1.74-9.77-2.24-15.29c-0.38-4.27-0.75-8.31-1.35-10.65L64,60.53l-0.76,2.93c-0.6,2.34-0.97,6.38-1.35,10.65
	c-0.49,5.52-1.06,11.79-2.24,15.29c-0.58,1.72-0.71,4.26-0.44,8.51c0.22,3.44-0.28,5.81-0.85,8.55c-0.4,1.92-0.81,3.9-1.03,6.42
	c-0.06-0.35-0.12-0.7-0.18-1.04l-0.71-4.14c-0.3-1.75-0.37-3.54-0.19-5.31l1.6-15.97c0.13-1.33,0.01-2.65-0.37-3.9
	c-1.5-5.68-1.65-11.72-0.46-17.46c0.21-1.03,0.41-1.93,0.58-2.66c0.18-0.8,0.31-1.39,0.38-1.77l0-0.02
	c0.15-0.28,0.99-1.09,1.84-1.77l0.04-0.04c0.79-0.73,1.8-1.24,2.98-1.51v0.28c0,0.8,0.49,1.41,1.14,1.41c0.65,0,1.14-0.6,1.14-1.41
	v-0.27c1.15,0.27,2.15,0.77,2.93,1.5l0.04,0.04c0.84,0.68,1.69,1.5,1.84,1.77l0,0.02c0.07,0.38,0.2,0.97,0.38,1.78
	c0.16,0.73,0.36,1.62,0.58,2.65c1.2,5.74,1.04,11.78-0.45,17.43c-0.38,1.28-0.51,2.6-0.38,3.93l1.6,15.97
	c0.18,1.77,0.11,3.56-0.19,5.31l-0.71,4.14c-0.04,0.24-0.08,0.49-0.13,0.74C70.41,110.21,70.02,108.31,69.63,106.47z M75.42,92.54
	c-0.03,0.28,0.04,0.5,0.12,0.74c0.9,2.61,0.68,9.08-0.66,19.21c-0.06,0.47-0.35,2.92,0.24,4.56c0.11,0.3,0.64,1.52,1.28,2.05
	c0.28,0.22,0.57,0.45,0.86,0.69c1.56,1.24,3.93,3.11,3.8,4.12c-0.14,1.14-2.14,1.76-3.49,1.76c0,0-0.01,0-0.01,0
	c-0.96,0-1.81-0.45-2.7-0.93c-0.72-0.38-1.47-0.78-2.33-0.99c-0.64-0.21-1.16-0.84-1.21-1.47c-0.05-0.86-0.18-2.52-0.29-4.08
	c0.47,0.75,1.07,1.48,1.66,2.2c0.85,1.03,1.72,2.1,2,3.03c0.1,0.34,0.41,0.56,0.75,0.56c0.07,0,0.15-0.01,0.22-0.03
	c0.41-0.12,0.65-0.56,0.52-0.97c-0.37-1.23-1.35-2.42-2.29-3.57c-1.15-1.4-2.34-2.86-2.14-4.06c0.18-1.05,0.37-2.18,0.54-3.21
	l0.71-4.14c0.33-1.89,0.4-3.82,0.2-5.73l-1.6-15.97c-0.11-1.12-0.01-2.24,0.33-3.35c1.56-5.91,1.72-12.2,0.48-18.18
	c-0.22-1.04-0.42-1.94-0.58-2.67c-0.17-0.77-0.31-1.38-0.36-1.72l-0.02-0.07c0,0,0,0,0,0c0,0,0,0,0-0.01l-0.96-4.3
	c-0.61-2.46-2.8-4.27-5.34-4.4c-0.01,0-0.02,0-0.03,0v-5l0-0.12c2.22,0.03,4.29,0.41,5.6,1.04c0.89,0.43,1.06,0.79,1.09,0.89
	c0.01,0.03,0.01,0.06,0.01,0.08c0,0.03,0,0.05-0.01,0.08c-0.03,0.11-0.13,0.24-0.27,0.36c-0.09,0.08-0.18,0.15-0.28,0.22
	c-0.18,0.12-0.4,0.24-0.63,0.35l-0.11,0.05c-0.16,0.07-0.34,0.14-0.52,0.2c-0.41,0.14-0.62,0.59-0.48,1
	c0.11,0.32,0.41,0.52,0.74,0.52c0.09,0,0.17-0.01,0.26-0.04c0.27-0.09,0.53-0.2,0.77-0.31l0.46-0.21v-0.02
	c0.14-0.08,0.27-0.16,0.4-0.24c0.16-0.11,0.32-0.23,0.45-0.35c0.36-0.32,0.6-0.68,0.72-1.06c0.06-0.18,0.09-0.36,0.09-0.55
	c0-0.18-0.03-0.35-0.08-0.53c-0.21-0.68-0.79-1.27-1.73-1.75c0.52-0.2,0.99-0.43,1.4-0.68c0.31-0.19,0.57-0.39,0.8-0.6
	c0.19-0.17,0.35-0.36,0.49-0.55c-0.04,0.91-0.09,1.84-0.15,2.73c-0.2,3.02-0.83,5.18-1.17,6.34c-0.24,0.83-0.32,1.11-0.13,1.46
	C74.59,58.14,78.4,68.32,75.42,92.54z M88.38,68.59c-0.34,0.16-0.53,0.52-0.48,0.89l0.07,0.49l-0.08-0.39
	c-0.08-0.4-0.43-0.68-0.84-0.68c0,0,0,0-0.01,0l-0.93,0.01l0.04,0.33c-0.1-0.25-0.31-0.45-0.58-0.52l-0.92-0.24l-0.29-2.13
	c-0.05-0.36-0.03-0.71,0.05-1.06c0.09-0.39,0.12-1.04,0.12-1.17l0-0.04l0-0.04c-0.06-0.87-0.75-2.37-1.5-3.86l-0.11-0.22
	c-2.76-5.59-4.49-12.09-4.51-16.98c0-0.35-0.18-1.12-2.42-7.16l-1.5-4.05l-0.01,3.18c-0.1-0.21-0.23-0.41-0.39-0.61
	c-0.14-0.18-0.31-0.35-0.47-0.49c-0.32-0.29-0.72-0.57-1.19-0.81c-0.49-0.26-1.04-0.48-1.66-0.68c-1.55-0.49-3.49-0.78-5.5-0.81
	c0.01-1.4,0.01-2.78,0.01-4.11l0.01-1.5l0.83-0.17c0.92-0.19,1.7-0.15,2.54,0.12c0.7,0.23,1.23,0.46,1.37,0.53
	c0.51,0.23,1.41,0.85,2.21,1.43l1.65,1.36c0.42,0.35,0.79,0.75,1.09,1.2c0.15,0.22,0.31,0.46,0.45,0.68
	c0.18,0.27,0.34,0.52,0.49,0.73c1.48,2.63,2.69,6.37,2.77,6.61c0.16,0.59,5.91,21.24,5.97,21.45c0,0,0,0.01,0,0.01
	c0.15,0.57,0.52,1.19,1.03,2.05c0.81,1.36,2.01,3.38,3.1,6.53C88.67,68.51,88.52,68.53,88.38,68.59z M91.1,66.05l-0.18-0.16
	c-0.42-0.37-1.02-0.42-1.5-0.15c-0.87-2.04-1.73-3.49-2.36-4.55c-0.43-0.73-0.77-1.3-0.86-1.66c0,0,0-0.01,0-0.01c0,0,0-0.01,0-0.01
	C81.4,42.3,80.42,38.8,80.18,38.03l0.03-0.01c-0.06-0.19-1.12-3.52-2.56-6.27c-0.01-0.15-0.07-0.29-0.17-0.42
	c-0.06-0.08-0.14-0.18-0.22-0.31c-0.39-0.68-0.8-1.3-1.22-1.8c0,0,0,0-0.01-0.01c-0.16-0.2-0.32-0.39-0.5-0.58
	c-0.04-0.08-0.08-0.15-0.14-0.22c-0.25-0.26-0.52-0.51-0.81-0.74c-0.12-0.1-0.69-0.54-1.38-1.04l-0.16-0.13
	c-0.05-0.04-0.11-0.07-0.16-0.1c-0.77-0.55-1.62-1.11-2.18-1.37c-0.16-0.07-0.76-0.34-1.53-0.59c-1.09-0.36-2.15-0.41-3.34-0.17
	l-0.51,0.1l0.01-2.75c1.17,0.23,2.57,0.72,3.38,1.17c0.12,0.07,0.25,0.1,0.38,0.1c0.27,0,0.54-0.14,0.68-0.4
	c0.21-0.38,0.08-0.85-0.3-1.06c-1-0.56-2.71-1.16-4.13-1.4l0.02-5.02c0-0.13,0-0.26,0-0.4c0-0.06,0-0.26,0-0.41l0-0.2
	c0-0.09-0.01-0.26-0.02-0.46c-0.01-0.33-0.05-1.09-0.02-1.29l0.01-0.09c0-0.14,0.02-0.36,0.06-0.62c1.06,0.14,1.65-0.1,1.99-0.43
	c0.14,0,0.27-0.01,0.4-0.04l0.2-0.05c0.53-0.13,0.95-0.51,1.16-1l0.11-0.1c0.18-0.17,0.31-0.37,0.4-0.58l0.06,0
	c0.04,0,0.07,0,0.07,0h0c0.03,0.02,0.08,0.14,0.08,0.29c-0.08,0.83-0.23,1.85-0.32,2.08c-0.08,0.19-0.21,0.33-0.36,0.41
	c0,0-0.01,0-0.01,0c-0.01,0-0.02,0-0.03-0.01l-0.76-0.14l-0.48,2.47c-0.18,0.95-0.24,1.76-0.18,2.57c0.1,1.24,0.26,2.48,0.82,3.13
	c0.16,0.19,0.43,0.4,2.28,1.27l2.04,0.96l0.06,0.02c1.89,0.72,2.81,0.86,3.55,0.98c0.37,0.06,0.67,0.11,1.04,0.22
	c4,1.21,4.52,6.41,4.56,7c0.07,0.89,0.11,3.83,0.11,3.86l0,0.1l0.02,0.09c0.96,3.59,1.31,7.17,1.51,9.31
	c0.12,1.25,0.19,1.87,0.3,2.24c1.61,5.37,2.07,7.64,2.92,13.22c0.07,0.47,0.57,2.18,1.08,2.76c0.38,0.42,0.95,1.26,1.26,1.72
	c0.12,0.17,0.2,0.3,0.24,0.35c0.29,0.39,0.82,0.84,1.21,1.14c0.01,0.01,0.13,0.13,0.46,0.64c0.04,0.07,0.09,0.13,0.13,0.2
	C91.25,66.17,91.17,66.11,91.1,66.05z"/>
</svg>
