<?xml version="1.0" encoding="utf-8"?>
<!-- Generator: Adobe Illustrator 28.1.0, SVG Export Plug-In . SVG Version: 6.00 Build 0)  -->
<svg version="1.1" id="Capa_1" xmlns="http://www.w3.org/2000/svg" xmlns:xlink="http://www.w3.org/1999/xlink" x="0px" y="0px"
	 viewBox="0 0 128 128" style="enable-background:new 0 0 128 128;" xml:space="preserve">
<style type="text/css">
	.st0{fill:#8F8F8F;}
	.st1{fill:#FFFFFF;}
</style>
<g>
	<g>
		<g>
			<path class="st0" d="M9.15,9.86c5.98-5.98,15.11-7.53,22.73-3.87c0.58,0.28,1.28,0.04,1.56-0.55c0.28-0.58,0.04-1.28-0.55-1.56
				C24.38-0.21,14.18,1.53,7.5,8.21C0.82,14.89-0.92,25.09,3.18,33.6c0.2,0.42,0.62,0.66,1.05,0.66c0.17,0,0.34-0.04,0.51-0.12
				c0.58-0.28,0.83-0.98,0.55-1.56C1.62,24.97,3.17,15.84,9.15,9.86z"/>
		</g>
		<g>
			<path class="st0" d="M16.29,17c-4.71,4.71-5.94,11.91-3.05,17.92c0.2,0.42,0.62,0.66,1.05,0.66c0.17,0,0.34-0.04,0.51-0.12
				c0.58-0.28,0.83-0.98,0.55-1.56c-2.46-5.11-1.42-11.24,2.59-15.25c4.01-4.01,10.14-5.06,15.25-2.6c0.58,0.28,1.28,0.04,1.56-0.55
				c0.28-0.58,0.04-1.28-0.55-1.56C28.21,11.06,21.01,12.29,16.29,17z"/>
		</g>
		<g>
			<path class="st0" d="M126.66,124.29l-16.82-16.02c-0.38-0.36-0.39-0.97-0.02-1.34l5.84-5.84c0.28-0.28,0.36-0.72,0.18-1.08
				l-3.99-7.98l-1.13-2.17L98.54,67.01c-0.08-0.15-0.19-0.27-0.33-0.35l-13.39-8.34c0,0,0,0-0.01,0l-12.71-7.92
				c-0.25-0.15-0.41-0.41-0.44-0.7l-1.24-12.24c-0.55-5.43-2.97-10.54-6.83-14.39l-13.6-13.6c-0.37-0.37-0.96-0.37-1.32,0
				L9.14,49.01c-0.37,0.37-0.37,0.96,0,1.32l13.75,13.75c4.02,4.02,9.35,6.46,15.02,6.88l11.67,0.86c0.29,0.02,0.56,0.18,0.72,0.42
				l7.9,12.21c0,0,0,0,0,0l8.73,13.49c0.08,0.12,0.18,0.22,0.31,0.29l21.98,13.11l10.1,5.17c0.36,0.18,0.8,0.12,1.09-0.17l6.44-6.44
				c0.36-0.36,0.94-0.37,1.31-0.02l16.9,16.09c0.23,0.22,0.52,0.32,0.81,0.32c0.31,0,0.62-0.12,0.85-0.36
				C127.14,125.48,127.12,124.74,126.66,124.29z M100.29,98.96L80.5,79.16c-0.39-0.39-0.36-1.03,0.06-1.39
				c5.31-4.42,12.62-5.79,19.2-3.5l8.89,16.7c0.19,0.36,0.13,0.81-0.16,1.1l-6.87,6.87C101.25,99.32,100.66,99.32,100.29,98.96z
				 M71.42,52.71L83.11,60c0.97,5.75-0.62,11.58-4.32,16.01c-0.35,0.42-0.99,0.45-1.38,0.06L62.88,61.55
				c-0.37-0.37-0.37-0.96,0-1.32l7.38-7.38C70.57,52.54,71.05,52.48,71.42,52.71z M98.24,71.41c-4.26-0.98-8.67-0.67-12.69,0.82
				c-0.75,0.28-1.48-0.45-1.2-1.2c1.11-2.99,1.57-6.21,1.32-9.45l11,6.85L98.24,71.41z M24.54,62.43l-12.1-12.1
				c-0.37-0.37-0.37-0.96,0-1.32l36.24-36.24c0.37-0.37,0.96-0.37,1.32,0l11.95,11.95c3.48,3.48,5.66,8.08,6.16,12.97l1.24,12.28
				c0.03,0.28-0.07,0.56-0.27,0.75l-9.26,9.26l-0.08,0.08c0,0,0,0,0,0s0,0,0,0l-9.17,9.17c-0.19,0.19-0.46,0.29-0.73,0.27
				l-11.75-0.87C32.97,68.25,28.17,66.05,24.54,62.43z M61.23,63.2l14.46,14.46c0.4,0.4,0.36,1.06-0.09,1.41
				c-4.44,3.4-10.14,4.76-15.71,3.71l-7.28-11.25c-0.24-0.37-0.19-0.86,0.12-1.17l7.16-7.16C60.27,62.83,60.86,62.83,61.23,63.2z
				 M61.57,85.37c0.68,0.06,1.35,0.1,2.03,0.1c2.64,0,5.25-0.48,7.7-1.39c0.75-0.28,1.48,0.45,1.2,1.2
				c-1.52,4.1-1.81,8.61-0.77,12.93l-3.02-1.8L61.57,85.37z M74.73,100c-2.43-6.42-1.34-13.62,2.78-19.02
				c0.34-0.45,1.01-0.49,1.41-0.09l19.73,19.73c0.37,0.37,0.37,0.96,0,1.32l-7.21,7.21c-0.3,0.3-0.77,0.36-1.14,0.14L74.73,100z
				 M98.85,113.7l-4.62-2.31c-0.57-0.29-0.69-1.05-0.24-1.5l7.67-7.67l0.12-0.12c0,0,0,0,0,0c0,0,0,0,0,0l7.4-7.4
				c0.45-0.45,1.21-0.33,1.5,0.24l2.31,4.62c0.18,0.36,0.11,0.79-0.18,1.08l-12.88,12.88C99.65,113.8,99.21,113.88,98.85,113.7z"/>
		</g>
	</g>
</g>
</svg>
