<?xml version="1.0" encoding="utf-8"?>
<!-- Generator: Adobe Illustrator 28.1.0, SVG Export Plug-In . SVG Version: 6.00 Build 0)  -->
<svg version="1.1" id="Capa_1" xmlns="http://www.w3.org/2000/svg" xmlns:xlink="http://www.w3.org/1999/xlink" x="0px" y="0px"
	 viewBox="0 0 128 128" style="enable-background:new 0 0 128 128;" xml:space="preserve">
<style type="text/css">
	.st0{fill:#8F8F8F;}
	.st1{fill:#FFFFFF;}
</style>
<g>
	<g>
		<g>
			<path class="st0" d="M125.74,127.26l-123.48,0c-0.84,0-1.52-0.68-1.52-1.52l0-123.47C0.73,1.44,1.4,0.75,2.24,0.74h0.03
				C2.68,0.74,3.06,0.9,3.34,1.19c0.29,0.29,0.45,0.69,0.44,1.09l0,121.94l121.94,0c0.43,0,0.82,0.17,1.1,0.46
				c0.28,0.29,0.44,0.67,0.43,1.08C127.25,126.59,126.57,127.26,125.74,127.26z M1.28,2.26c0,0.01,0,0.02,0,0.02V2.26z M3.24,2.25
				v0.03C3.24,2.27,3.24,2.26,3.24,2.25z M80.79,109.81c-0.16,0-0.31-0.01-0.47-0.03c-0.15,0.02-0.31,0.03-0.47,0.03
				c-0.54,0-1-0.3-1.22-0.78l0-0.01c-1.5-1.18-2.71-3.68-3.56-7.39c-1.15-4.98-2.04-12.34-2.98-24.63l-0.04-0.53
				c-0.91-11.88-1.7-22.13-2.85-29.1c-0.62-3.73-1.34-6.52-2.14-8.31c-1.06-2.34-1.81-2.34-2.21-2.34c0,0,0.02,0,0.05-0.01
				c-0.23,0.04-0.45,0.01-0.65-0.07c-0.65,0.08-1.24,0.45-1.98,1.67c-0.78,1.28-1.48,3.31-2.08,6.03
				c-1.15,5.14-1.93,12.76-2.84,21.58l-0.04,0.38c-0.95,9.18-1.84,14.69-3,18.42c-1.2,3.87-3.11,6.07-5.41,6.23
				c-0.07,0.01-0.14,0.01-0.21,0.01c-0.09,0-0.19,0-0.28-0.02c-2.36-0.24-4.21-3.05-5.39-8.16c-1.15-4.98-2.04-12.34-2.98-24.63
				l-0.04-0.53c-0.91-11.88-1.7-22.13-2.85-29.1c-0.62-3.73-1.34-6.53-2.14-8.31c-1.06-2.34-1.84-2.34-2.21-2.34
				c0,0,0.02,0,0.05-0.01c-0.23,0.04-0.46,0.01-0.66-0.07c-0.54,0.15-0.99,0.43-1.47,0.91c-0.72,0.72-1.37,1.88-1.94,3.43
				c-1.12,3.06-1.9,7.65-2.81,12.96l-0.04,0.23c-0.96,5.66-1.88,9.06-3.07,11.4c-1.28,2.5-3.32,3.94-5.6,3.94
				c-0.38,0-0.71-0.14-0.96-0.38l-0.08-0.08c-0.21-0.24-0.32-0.55-0.32-0.87c0-0.74,0.6-1.33,1.33-1.33c1.4,0,2.15-0.35,3.24-2.49
				c1.02-2,1.94-5.47,2.82-10.62l0.19-1.13c0.84-4.95,1.56-9.22,2.78-12.55c0.73-1.98,1.54-3.38,2.57-4.4
				c0.94-0.94,2.14-1.54,3.43-1.73c0.05-0.02,0.11-0.03,0.17-0.04c0.16-0.03,0.29-0.03,0.37-0.03c0.05,0,0.11,0,0.17,0
				c0.16-0.01,0.31-0.01,0.47,0c0.23,0.02,0.45,0.1,0.63,0.23c1.03,0.39,2.3,1.37,3.34,3.68c0.94,2.07,1.69,4.94,2.37,9.05
				c1.19,7.19,1.91,16.57,2.74,27.43l0.19,2.48c0.89,11.64,1.84,19.54,2.91,24.15c1.28,5.58,2.24,6.05,3.11,6.05
				c0.13,0,0.26,0.02,0.38,0.05c0.84-0.16,1.62-0.93,2.67-4.3c1.05-3.4,2-9.24,2.89-17.85l0.19-1.86
				c0.83-8.09,1.55-15.07,2.75-20.45c0.69-3.11,1.47-5.3,2.43-6.88c1.16-1.91,2.77-2.97,4.53-2.97c0.05,0,0.1,0,0.15,0
				c0.06,0,0.11,0,0.15,0c1.06,0,3.07,0.51,4.61,3.92c0.94,2.07,1.69,4.94,2.37,9.05c1.19,7.19,1.9,16.56,2.74,27.41l0.19,2.5
				c0.89,11.64,1.84,19.54,2.91,24.15c1.06,4.61,1.9,5.73,2.65,5.98c0.76-0.25,1.6-1.37,2.66-5.98c1.06-4.61,2.01-12.51,2.91-24.15
				l0.19-2.5c0.83-10.85,1.55-20.23,2.74-27.41c0.68-4.11,1.43-6.99,2.37-9.06c1.54-3.41,3.55-3.92,4.61-3.92
				c0.08,0,0.21,0,0.36,0.03c0.08,0.01,0.15,0.03,0.22,0.06c1.51,0.06,2.92,0.6,4.01,1.53c1.04,0.89,1.87,2.11,2.61,3.85
				c1.23,2.89,1.96,6.57,2.8,10.83l0.19,0.97c0.87,4.39,1.78,7.35,2.78,9.04c1.08,1.82,1.84,2.11,3.26,2.11
				c0.76,0,1.36,0.59,1.36,1.32c0,0.35-0.14,0.68-0.39,0.93l-0.07,0.06c-0.17,0.15-0.46,0.32-0.88,0.32c-2.26,0-4.29-1.24-5.58-3.41
				c-1.21-2.03-2.14-4.99-3.1-9.87l-0.04-0.21c-0.9-4.54-1.68-8.47-2.79-11.06c-0.56-1.31-1.2-2.28-1.9-2.89
				c-0.65-0.55-1.27-0.81-2.12-0.87c-0.21,0.11-0.46,0.16-0.71,0.13c-0.43,0-1.17,0.04-2.22,2.34c-0.81,1.79-1.53,4.58-2.14,8.31
				c-1.15,6.96-1.94,17.22-2.85,29.1L88.54,77c-0.94,12.29-1.83,19.66-2.98,24.64c-0.86,3.71-2.07,6.21-3.57,7.39
				C81.77,109.51,81.31,109.81,80.79,109.81z M64.89,36.72C64.89,36.72,64.89,36.72,64.89,36.72
				C64.89,36.72,64.89,36.72,64.89,36.72z M64.9,36.72C64.9,36.72,64.9,36.72,64.9,36.72C64.9,36.72,64.9,36.72,64.9,36.72z
				 M64.9,36.72C64.9,36.72,64.9,36.72,64.9,36.72C64.9,36.72,64.9,36.72,64.9,36.72z M32.83,17.89
				C32.83,17.89,32.83,17.89,32.83,17.89C32.83,17.89,32.83,17.89,32.83,17.89z M32.84,17.89C32.84,17.89,32.84,17.89,32.84,17.89
				C32.84,17.89,32.84,17.89,32.84,17.89z M32.84,17.89C32.84,17.89,32.84,17.89,32.84,17.89C32.84,17.89,32.84,17.89,32.84,17.89z"
				/>
		</g>
		<g>
			<g>
				<path class="st0" d="M17.63,63.97c-0.08-0.03-0.26-0.04-0.54-0.04h-2.27c-0.19,0-0.34-0.03-0.45-0.09
					c-0.11-0.06-0.17-0.17-0.17-0.33c0-0.12,0.03-0.21,0.08-0.28c0.15,0.04,0.28,0.05,0.4,0.05c0.12,0,0.22-0.01,0.29-0.04
					c0.07-0.03,0.13-0.07,0.18-0.14c0.11-0.14,0.17-0.37,0.18-0.68v-5.57c0-0.29-0.08-0.47-0.24-0.54
					c-0.05-0.03-0.12-0.05-0.21-0.07c-0.09-0.02-0.17-0.04-0.26-0.06c-0.09-0.02-0.16-0.04-0.22-0.07
					c-0.12-0.06-0.17-0.16-0.17-0.29c0-0.13,0.03-0.23,0.08-0.3c0.08,0.03,0.26,0.04,0.54,0.04h2.22c0.19,0,0.34,0.03,0.46,0.09
					c0.11,0.06,0.17,0.17,0.17,0.33c0,0.12-0.03,0.21-0.09,0.28c-0.14-0.04-0.29-0.05-0.45-0.05c-0.35,0-0.53,0.29-0.55,0.86v5.57
					c0,0.29,0.08,0.47,0.24,0.54c0.05,0.02,0.12,0.04,0.21,0.06c0.09,0.02,0.17,0.04,0.26,0.06c0.09,0.02,0.16,0.04,0.22,0.07
					c0.12,0.06,0.18,0.16,0.18,0.29C17.72,63.8,17.69,63.9,17.63,63.97z"/>
			</g>
		</g>
		<g>
			<g>
				<path class="st0" d="M48.3,106.54c-0.08-0.03-0.26-0.04-0.54-0.04h-2.27c-0.19,0-0.34-0.03-0.45-0.09
					c-0.11-0.06-0.17-0.17-0.17-0.33c0-0.12,0.03-0.21,0.08-0.28c0.15,0.04,0.28,0.05,0.4,0.05c0.12,0,0.22-0.01,0.29-0.04
					c0.07-0.03,0.13-0.07,0.18-0.14c0.11-0.14,0.17-0.37,0.18-0.68v-5.57c0-0.29-0.08-0.47-0.24-0.54
					c-0.05-0.03-0.12-0.05-0.21-0.07c-0.09-0.02-0.17-0.04-0.26-0.06c-0.09-0.02-0.16-0.04-0.22-0.07
					c-0.12-0.06-0.17-0.16-0.17-0.29c0-0.13,0.03-0.23,0.08-0.3c0.08,0.03,0.26,0.04,0.54,0.04h2.22c0.19,0,0.34,0.03,0.46,0.09
					c0.11,0.06,0.17,0.17,0.17,0.33c0,0.12-0.03,0.21-0.09,0.28c-0.14-0.04-0.29-0.05-0.45-0.05c-0.35,0-0.53,0.29-0.55,0.86v5.57
					c0,0.29,0.08,0.47,0.24,0.54c0.05,0.02,0.12,0.04,0.21,0.06c0.09,0.02,0.17,0.04,0.26,0.06s0.16,0.04,0.22,0.07
					c0.12,0.06,0.18,0.16,0.18,0.29C48.39,106.37,48.36,106.47,48.3,106.54z"/>
			</g>
			<g>
				<path class="st0" d="M52.98,106.54c-0.08-0.03-0.26-0.04-0.54-0.04h-2.27c-0.19,0-0.34-0.03-0.45-0.09
					c-0.11-0.06-0.17-0.17-0.17-0.33c0-0.12,0.03-0.21,0.08-0.28c0.15,0.04,0.28,0.05,0.4,0.05c0.12,0,0.22-0.01,0.29-0.04
					c0.07-0.03,0.13-0.07,0.18-0.14c0.11-0.14,0.17-0.37,0.18-0.68v-5.57c0-0.29-0.08-0.47-0.24-0.54
					c-0.05-0.03-0.12-0.05-0.21-0.07c-0.09-0.02-0.17-0.04-0.26-0.06c-0.09-0.02-0.16-0.04-0.22-0.07
					c-0.12-0.06-0.17-0.16-0.17-0.29c0-0.13,0.03-0.23,0.08-0.3c0.08,0.03,0.26,0.04,0.54,0.04h2.22c0.19,0,0.34,0.03,0.46,0.09
					c0.11,0.06,0.17,0.17,0.17,0.33c0,0.12-0.03,0.21-0.09,0.28c-0.14-0.04-0.29-0.05-0.45-0.05c-0.35,0-0.53,0.29-0.55,0.86v5.57
					c0,0.29,0.08,0.47,0.24,0.54c0.05,0.02,0.12,0.04,0.21,0.06c0.09,0.02,0.17,0.04,0.26,0.06c0.09,0.02,0.16,0.04,0.22,0.07
					c0.12,0.06,0.18,0.16,0.18,0.29C53.07,106.37,53.04,106.47,52.98,106.54z"/>
			</g>
		</g>
		<g>
			<g>
				<path class="st0" d="M65.94,26.98c-0.08-0.03-0.26-0.04-0.54-0.04h-2.27c-0.19,0-0.34-0.03-0.45-0.09
					c-0.11-0.06-0.17-0.17-0.17-0.33c0-0.12,0.03-0.21,0.08-0.28c0.15,0.04,0.28,0.05,0.4,0.05c0.12,0,0.22-0.01,0.29-0.04
					c0.07-0.03,0.13-0.07,0.18-0.14c0.11-0.14,0.17-0.37,0.18-0.68v-5.57c0-0.29-0.08-0.47-0.24-0.54
					c-0.05-0.03-0.12-0.05-0.21-0.07c-0.09-0.02-0.17-0.04-0.26-0.06c-0.09-0.02-0.16-0.04-0.22-0.07
					c-0.12-0.06-0.17-0.16-0.17-0.29c0-0.13,0.03-0.23,0.08-0.3c0.08,0.03,0.26,0.04,0.54,0.04h2.22c0.19,0,0.34,0.03,0.46,0.09
					c0.11,0.06,0.17,0.17,0.17,0.33c0,0.12-0.03,0.21-0.09,0.28c-0.14-0.04-0.29-0.05-0.45-0.05c-0.35,0-0.53,0.29-0.55,0.86v5.57
					c0,0.29,0.08,0.47,0.24,0.54c0.05,0.02,0.12,0.04,0.21,0.06c0.09,0.02,0.17,0.04,0.26,0.06c0.09,0.02,0.16,0.04,0.22,0.07
					c0.12,0.06,0.18,0.16,0.18,0.29C66.03,26.8,66,26.9,65.94,26.98z"/>
			</g>
			<g>
				<path class="st0" d="M70.62,26.98c-0.08-0.03-0.26-0.04-0.54-0.04H67.8c-0.19,0-0.34-0.03-0.45-0.09
					c-0.11-0.06-0.17-0.17-0.17-0.33c0-0.12,0.03-0.21,0.08-0.28c0.15,0.04,0.28,0.05,0.4,0.05c0.12,0,0.22-0.01,0.29-0.04
					c0.07-0.03,0.13-0.07,0.18-0.14c0.11-0.14,0.17-0.37,0.18-0.68v-5.57c0-0.29-0.08-0.47-0.24-0.54
					c-0.05-0.03-0.12-0.05-0.21-0.07c-0.09-0.02-0.17-0.04-0.26-0.06c-0.09-0.02-0.16-0.04-0.22-0.07
					c-0.12-0.06-0.17-0.16-0.17-0.29c0-0.13,0.03-0.23,0.08-0.3c0.08,0.03,0.26,0.04,0.54,0.04h2.22c0.19,0,0.34,0.03,0.46,0.09
					c0.11,0.06,0.17,0.17,0.17,0.33c0,0.12-0.03,0.21-0.09,0.28c-0.14-0.04-0.29-0.05-0.45-0.05c-0.35,0-0.53,0.29-0.55,0.86v5.57
					c0,0.29,0.08,0.47,0.24,0.54c0.05,0.02,0.12,0.04,0.21,0.06c0.09,0.02,0.17,0.04,0.26,0.06c0.09,0.02,0.16,0.04,0.22,0.07
					c0.12,0.06,0.18,0.16,0.18,0.29C70.7,26.8,70.68,26.9,70.62,26.98z"/>
			</g>
			<g>
				<path class="st0" d="M75.29,26.98c-0.08-0.03-0.26-0.04-0.54-0.04h-2.27c-0.19,0-0.34-0.03-0.45-0.09
					c-0.11-0.06-0.17-0.17-0.17-0.33c0-0.12,0.03-0.21,0.08-0.28c0.15,0.04,0.28,0.05,0.4,0.05c0.12,0,0.22-0.01,0.29-0.04
					c0.07-0.03,0.13-0.07,0.18-0.14c0.11-0.14,0.17-0.37,0.18-0.68v-5.57c0-0.29-0.08-0.47-0.24-0.54
					c-0.05-0.03-0.12-0.05-0.21-0.07c-0.09-0.02-0.17-0.04-0.26-0.06c-0.09-0.02-0.16-0.04-0.22-0.07
					c-0.12-0.06-0.17-0.16-0.17-0.29c0-0.13,0.03-0.23,0.08-0.3c0.08,0.03,0.26,0.04,0.54,0.04h2.22c0.19,0,0.34,0.03,0.46,0.09
					c0.11,0.06,0.17,0.17,0.17,0.33c0,0.12-0.03,0.21-0.09,0.28c-0.14-0.04-0.29-0.05-0.45-0.05c-0.35,0-0.53,0.29-0.55,0.86v5.57
					c0,0.29,0.08,0.47,0.24,0.54c0.05,0.02,0.12,0.04,0.21,0.06c0.09,0.02,0.17,0.04,0.26,0.06c0.09,0.02,0.16,0.04,0.22,0.07
					c0.12,0.06,0.18,0.16,0.18,0.29C75.38,26.8,75.35,26.9,75.29,26.98z"/>
			</g>
		</g>
		<g>
			<g>
				<path class="st0" d="M111.79,81c-0.08-0.03-0.26-0.04-0.54-0.04h-2.27c-0.19,0-0.34-0.03-0.45-0.09
					c-0.11-0.06-0.17-0.17-0.17-0.33c0-0.12,0.03-0.21,0.08-0.28c0.15,0.04,0.28,0.05,0.4,0.05c0.12,0,0.22-0.01,0.29-0.04
					c0.07-0.03,0.13-0.07,0.18-0.14c0.11-0.14,0.17-0.37,0.18-0.68v-5.57c0-0.29-0.08-0.47-0.24-0.54
					c-0.05-0.03-0.12-0.05-0.21-0.07c-0.09-0.02-0.17-0.04-0.26-0.06c-0.09-0.02-0.16-0.04-0.22-0.07
					c-0.12-0.06-0.17-0.16-0.17-0.29c0-0.13,0.03-0.23,0.08-0.3c0.08,0.03,0.26,0.04,0.54,0.04h2.22c0.19,0,0.34,0.03,0.46,0.09
					c0.11,0.06,0.17,0.17,0.17,0.33c0,0.12-0.03,0.21-0.09,0.28c-0.14-0.04-0.29-0.05-0.45-0.05c-0.35,0-0.53,0.29-0.55,0.86v5.57
					c0,0.29,0.08,0.47,0.24,0.54c0.05,0.02,0.12,0.04,0.21,0.06c0.09,0.02,0.17,0.04,0.26,0.06c0.09,0.02,0.16,0.04,0.22,0.07
					c0.12,0.06,0.18,0.16,0.18,0.29C111.87,80.83,111.84,80.93,111.79,81z"/>
			</g>
			<g>
				<path class="st0" d="M120.89,73.3c-0.08-0.04-0.18-0.05-0.32-0.05c-0.13,0-0.24,0.03-0.3,0.08s-0.13,0.14-0.19,0.24
					c-0.06,0.1-0.11,0.22-0.17,0.37l-2.25,6.11c-0.24,0.68-0.65,1.02-1.22,1.02c-0.18,0-0.29-0.05-0.33-0.15l-2.69-6.84
					c-0.03-0.07-0.06-0.15-0.08-0.24c-0.03-0.09-0.05-0.17-0.09-0.25c-0.08-0.19-0.19-0.3-0.33-0.34c-0.08-0.03-0.16-0.05-0.22-0.07
					c-0.06-0.02-0.12-0.04-0.16-0.07c-0.08-0.05-0.13-0.12-0.13-0.21c0-0.13,0.03-0.24,0.09-0.33c0.08,0.03,0.23,0.04,0.43,0.04
					h2.26c0.24,0,0.41,0.02,0.5,0.05c0.17,0.07,0.25,0.19,0.25,0.37c0,0.12-0.03,0.22-0.08,0.28c-0.08-0.04-0.24-0.05-0.47-0.05
					c-0.43,0-0.64,0.18-0.64,0.53c0,0.04,0.01,0.11,0.04,0.19l0.07,0.19c0.02,0.05,0.03,0.09,0.05,0.13l1.96,5.39l2.02-5.78
					c0.02-0.08,0.03-0.15,0.03-0.22s-0.01-0.12-0.04-0.16c-0.03-0.05-0.07-0.08-0.11-0.12c-0.05-0.04-0.14-0.07-0.27-0.1
					c-0.13-0.03-0.24-0.05-0.32-0.07c-0.09-0.02-0.16-0.05-0.22-0.08c-0.12-0.07-0.18-0.17-0.19-0.33c0-0.1,0.02-0.19,0.05-0.26
					c0.08,0.03,0.26,0.04,0.54,0.04h1.89c0.49,0,0.73,0.14,0.73,0.42C120.98,73.14,120.95,73.23,120.89,73.3z"/>
			</g>
		</g>
	</g>
</g>
</svg>
