<?xml version="1.0" encoding="utf-8"?>
<!-- Generator: Adobe Illustrator 28.1.0, SVG Export Plug-In . SVG Version: 6.00 Build 0)  -->
<svg version="1.1" id="Capa_1" xmlns="http://www.w3.org/2000/svg" xmlns:xlink="http://www.w3.org/1999/xlink" x="0px" y="0px"
	 viewBox="0 0 64 64" style="enable-background:new 0 0 64 64;" xml:space="preserve">
<style type="text/css">
	.st0{fill:#8F8F8F;}
	.st1{fill:#FFFFFF;}
</style>
<g>
	<g>
		<g>
			<path class="st0" d="M52.76,40.67h9.98c0.25,0,0.46-0.21,0.46-0.46v-8.04c0-0.25-0.21-0.46-0.46-0.46H1.26
				c-0.25,0-0.46,0.21-0.46,0.46v8.04c0,0.25,0.21,0.46,0.46,0.46h9.98c0.18,0,0.35,0.11,0.42,0.28c1.65,3.8,4.31,7.05,7.75,9.43
				c1.84,1.27,3.84,2.25,5.94,2.91c0.43,0.14,0.43,0.74,0,0.88c-4.22,1.32-7.98,3.89-10.8,7.48l-0.15,0.19
				c-0.24,0.3-0.02,0.74,0.36,0.74h34.46c0.38,0,0.6-0.44,0.36-0.74l-0.15-0.19c-2.82-3.59-6.58-6.16-10.8-7.48
				c-0.43-0.13-0.43-0.74,0-0.88c2.1-0.66,4.1-1.63,5.94-2.91c3.43-2.37,6.1-5.62,7.75-9.43C52.41,40.78,52.58,40.67,52.76,40.67z
				 M51.33,38.65l10.05-5.09c0.31-0.15,0.67,0.07,0.67,0.41v5.09c0,0.25-0.21,0.46-0.46,0.46H51.54
				C51.06,39.52,50.9,38.87,51.33,38.65z M15.26,38.64l-9.75-4.91c-0.43-0.22-0.28-0.87,0.21-0.87h9.75c0.25,0,0.46,0.21,0.46,0.46
				v4.91C15.93,38.58,15.57,38.8,15.26,38.64z M17.53,32.86h28.65c0.25,0,0.46,0.21,0.46,0.46v5.74c0,0.25-0.21,0.46-0.46,0.46
				H17.53c-0.25,0-0.46-0.21-0.46-0.46v-5.74C17.07,33.07,17.28,32.86,17.53,32.86z M48.25,32.86H58.3c0.48,0,0.64,0.65,0.21,0.87
				l-10.05,5.09c-0.31,0.15-0.67-0.07-0.67-0.41v-5.09C47.79,33.07,48,32.86,48.25,32.86z M2.61,33.56l10.12,5.1
				c0.43,0.22,0.28,0.87-0.21,0.87H2.41c-0.25,0-0.46-0.21-0.46-0.46v-5.1C1.95,33.62,2.31,33.4,2.61,33.56z M46.72,61.42H17.28
				c-0.41,0-0.61-0.49-0.33-0.78C20.9,56.59,26.27,54.3,32,54.3c5.73,0,11.1,2.29,15.05,6.34C47.33,60.93,47.12,61.42,46.72,61.42z
				 M32,53.15c-4.29,0-8.42-1.29-11.94-3.72c-3-2.07-5.38-4.85-6.96-8.1c-0.15-0.31,0.08-0.66,0.41-0.66h36.98
				c0.34,0,0.56,0.36,0.41,0.66c-1.58,3.25-3.96,6.03-6.96,8.1C40.42,51.87,36.29,53.15,32,53.15z"/>
		</g>
		<g>
			<path class="st0" d="M54.71,11.41c-2.89-3.12-6.32-5.57-10.19-7.3c-4-1.78-8.27-2.69-12.69-2.69c-7.52,0-14.78,2.71-20.45,7.64
				c-0.81,0.71-1.53,1.52-2.14,2.42l-0.12,0.18c-0.21,0.31,0.01,0.72,0.38,0.72h45.05c0.4,0,0.61-0.48,0.34-0.77L54.71,11.41z
				 M11.91,11.23c-0.41,0-0.62-0.5-0.32-0.79c0.18-0.18,0.36-0.35,0.55-0.51c5.46-4.74,12.45-7.35,19.7-7.35
				c4.26,0,8.37,0.87,12.22,2.59c2.96,1.32,5.65,3.08,8.03,5.26c0.31,0.28,0.11,0.8-0.31,0.8L11.91,11.23z"/>
		</g>
	</g>
</g>
</svg>
