<?xml version="1.0" encoding="utf-8"?>
<!-- Generator: Adobe Illustrator 28.1.0, SVG Export Plug-In . SVG Version: 6.00 Build 0)  -->
<svg version="1.1" id="Capa_1" xmlns="http://www.w3.org/2000/svg" xmlns:xlink="http://www.w3.org/1999/xlink" x="0px" y="0px"
	 viewBox="0 0 64 64" style="enable-background:new 0 0 64 64;" xml:space="preserve">
<style type="text/css">
	.st0{fill:#8F8F8F;}
	.st1{fill:#FFFFFF;}
</style>
<g>
	<g>
		<g>
			<path class="st0" d="M52.81,37.66l8.42-1.81c0.24-0.05,0.4-0.29,0.35-0.54L57.6,16.78c-0.05-0.24-0.29-0.4-0.54-0.35l-8.42,1.81
				c-0.24,0.05-0.4,0.29-0.35,0.54l0.33,1.52c0.05,0.25-0.11,0.49-0.36,0.54l-5.63,1.08c-0.11,0.02-0.22,0-0.31-0.05l-8.75-5.14
				c-0.14-0.08-0.31-0.08-0.45-0.01l-2.93,1.61c-0.13,0.07-0.28,0.07-0.41,0.01l-2.17-1c-0.13-0.06-0.28-0.05-0.41,0.02l-6.72,3.8
				c-0.37,0.21-0.8,0.27-1.21,0.18l-2.97-0.7c-0.24-0.06-0.39-0.29-0.34-0.53l0.34-1.57c0.05-0.24-0.1-0.48-0.35-0.54l-9.02-1.94
				C6.69,16,6.45,16.15,6.4,16.4L2.42,34.93c-0.05,0.24,0.1,0.48,0.35,0.54l9.02,1.94c0.24,0.05,0.48-0.1,0.54-0.35l0.33-1.52
				c0.06-0.27,0.34-0.43,0.6-0.33l4.52,1.71c0.26,0.1,0.37,0.4,0.23,0.64l-1.27,2.23c-0.12,0.22-0.05,0.49,0.17,0.62l2.84,1.61
				l-0.01,0.01L23,43.89l0,0l3.24,1.84l0,0l3.82,2.17c0.22,0.12,0.49,0.05,0.62-0.17l3.44-6.05c0.12-0.22,0.4-0.29,0.62-0.17
				l5.12,2.95c0.22,0.12,0.49,0.05,0.62-0.17l1.89-3.33l0,0l1.84-3.24l0,0l0.5-0.88l6.69-1.48c0.24-0.05,0.49,0.1,0.54,0.35
				l0.35,1.62C52.33,37.56,52.57,37.72,52.81,37.66z M10.93,36.07L4.11,34.6c-0.24-0.05-0.4-0.29-0.35-0.54l3.51-16.33
				c0.05-0.24,0.29-0.4,0.54-0.35l6.82,1.46c0.24,0.05,0.4,0.29,0.35,0.54l-3.14,14.63l-0.36,1.7
				C11.41,35.96,11.17,36.12,10.93,36.07z M49.98,19.11l6.21-1.33c0.24-0.05,0.48,0.1,0.54,0.35l3.51,16.33
				c0.05,0.24-0.1,0.48-0.35,0.54l-6.21,1.33c-0.24,0.05-0.48-0.1-0.54-0.35l-3.51-16.33C49.58,19.4,49.74,19.16,49.98,19.11z
				 M18.28,39.38l1.44-2.54c0.12-0.22,0.4-0.29,0.62-0.17l1.47,0.83c0.22,0.12,0.29,0.4,0.17,0.62l-1.44,2.54
				c-0.12,0.22-0.4,0.29-0.62,0.17l-1.47-0.83C18.23,39.87,18.16,39.59,18.28,39.38z M24.23,37.35l1.47,0.83
				c0.22,0.12,0.29,0.4,0.17,0.62l-2.11,3.71c-0.12,0.22-0.4,0.29-0.62,0.17l-1.47-0.83c-0.22-0.12-0.29-0.4-0.17-0.62l2.11-3.71
				C23.73,37.3,24.01,37.22,24.23,37.35z M28.26,37.82l1.47,0.83c0.22,0.12,0.29,0.4,0.17,0.62l-2.89,5.08
				c-0.12,0.22-0.4,0.29-0.62,0.17l-1.47-0.83c-0.22-0.12-0.29-0.4-0.17-0.62l2.89-5.08C27.76,37.78,28.04,37.7,28.26,37.82z
				 M29.63,46.36l-1.47-0.83c-0.22-0.12-0.29-0.4-0.17-0.62l2.89-5.08c0.12-0.22,0.4-0.29,0.62-0.17l1.47,0.83
				c0.22,0.12,0.29,0.4,0.17,0.62l-2.89,5.08C30.12,46.41,29.85,46.49,29.63,46.36z M41.26,39.68l-6.65-3.8
				c-0.22-0.12-0.49-0.05-0.62,0.17l-0.11,0.2c-0.12,0.22-0.05,0.49,0.17,0.62l6.66,3.8c0.22,0.12,0.29,0.4,0.17,0.61l-0.83,1.46
				c-0.12,0.22-0.4,0.29-0.62,0.17l-4.54-2.61l0,0l-3.24-1.84l0,0l-3.82-2.17c-0.22-0.12-0.49-0.05-0.62,0.17l-0.33,0.58
				c-0.12,0.22-0.4,0.29-0.62,0.17l-2.47-1.4c-0.22-0.12-0.49-0.05-0.62,0.17l-0.21,0.37c-0.12,0.22-0.4,0.29-0.62,0.17l-2.45-1.39
				C19.7,35,19.42,35.08,19.3,35.3l-0.28,0.49c-0.11,0.19-0.34,0.28-0.55,0.2l-5.1-1.93c-0.21-0.08-0.33-0.3-0.28-0.52l2.55-11.43
				c0.05-0.25,0.3-0.4,0.54-0.34l2.84,0.67c0.69,0.16,1.41,0.05,2.02-0.29l6.22-3.52c0.13-0.07,0.28-0.08,0.41-0.02l0.35,0.16
				c0.33,0.15,0.35,0.61,0.04,0.8L25.63,21c-0.1,0.06-0.17,0.16-0.21,0.27l-2.15,7.83c-0.06,0.23,0.06,0.46,0.28,0.54l4.46,1.67
				c0.25,0.09,0.53-0.05,0.59-0.31l1.7-6.39c0.03-0.12,0.11-0.22,0.23-0.28l1.95-1.03c0.14-0.07,0.3-0.07,0.44,0.01l13.3,7.7
				c0.21,0.12,0.29,0.4,0.17,0.61l-0.81,1.43c-0.12,0.22-0.4,0.29-0.62,0.17l-6.67-3.8c-0.22-0.12-0.49-0.05-0.62,0.17l-0.11,0.2
				c-0.12,0.22-0.05,0.49,0.17,0.62l6.66,3.8c0.22,0.12,0.29,0.4,0.17,0.61l-0.84,1.47c-0.12,0.22-0.4,0.29-0.62,0.17l-6.66-3.8
				c-0.22-0.12-0.49-0.05-0.62,0.17l-0.11,0.2c-0.12,0.22-0.05,0.49,0.17,0.62l6.66,3.8c0.22,0.12,0.29,0.4,0.17,0.61l-0.83,1.47
				C41.75,39.73,41.48,39.81,41.26,39.68z M46.44,35.29c-0.38,0.08-0.68-0.32-0.49-0.66l0.06-0.1l0.01,0.01l1.89-3.33
				c0.12-0.22,0.05-0.49-0.17-0.61l-14.81-8.57c-0.13-0.08-0.3-0.08-0.44-0.01l-2.94,1.55c-0.11,0.06-0.19,0.16-0.23,0.28l-1.5,5.67
				c-0.07,0.26-0.34,0.4-0.59,0.31l-2.33-0.87c-0.22-0.08-0.34-0.32-0.28-0.54l1.75-6.39c0.03-0.11,0.1-0.21,0.21-0.27l3.71-2.19
				l2.8-1.54c0.14-0.08,0.31-0.07,0.45,0.01l8.56,5.03c0.09,0.06,0.21,0.07,0.31,0.05l6.09-1.17c0.24-0.05,0.47,0.11,0.53,0.35
				l2.45,11.43c0.05,0.24-0.1,0.48-0.34,0.54L46.44,35.29z"/>
		</g>
		<g>
			<circle class="st0" cx="56.11" cy="32.49" r="1.2"/>
		</g>
		<g>
			<circle class="st0" cx="8.04" cy="32.92" r="1.2"/>
		</g>
	</g>
</g>
</svg>
