<?xml version="1.0" encoding="utf-8"?>
<!-- Generator: Adobe Illustrator 28.1.0, SVG Export Plug-In . SVG Version: 6.00 Build 0)  -->
<svg version="1.1" id="Capa_1" xmlns="http://www.w3.org/2000/svg" xmlns:xlink="http://www.w3.org/1999/xlink" x="0px" y="0px"
	 viewBox="0 0 64 64" style="enable-background:new 0 0 64 64;" xml:space="preserve">
<style type="text/css">
	.st0{fill:#8F8F8F;}
	.st1{fill:#FFFFFF;}
</style>
<g>
	<g>
		<path class="st0" d="M42.98,8.99H21.13c-0.12,0-0.24,0.05-0.32,0.13L9.59,20.23c-0.09,0.09-0.14,0.2-0.14,0.33V31.8
			c0,0.12,0.05,0.23,0.13,0.32l22.09,22.75c0.18,0.19,0.48,0.19,0.66,0l22.09-22.75c0.08-0.09,0.13-0.2,0.13-0.32V20.55
			c0-0.12-0.05-0.24-0.13-0.32L43.3,9.12C43.22,9.03,43.1,8.99,42.98,8.99z M31.43,35.48v14.3c0,0.49-0.67,0.64-0.87,0.2
			l-7.72-16.36c-0.17-0.35,0.16-0.74,0.53-0.64l7.72,2.06C31.29,35.09,31.43,35.27,31.43,35.48z M21.97,31.07V14.61
			c0-0.5,0.69-0.64,0.88-0.18L30.77,33c0.15,0.35-0.17,0.72-0.54,0.62l-7.92-2.11C22.11,31.46,21.97,31.28,21.97,31.07z
			 M32.92,35.11l7.93-2.03c0.38-0.1,0.7,0.29,0.53,0.65l-7.93,16.36c-0.21,0.44-0.87,0.29-0.87-0.2V35.56
			C32.57,35.35,32.72,35.16,32.92,35.11z M33.48,33.02l7.93-18.59c0.2-0.46,0.88-0.32,0.88,0.18v16.56c0,0.21-0.14,0.39-0.35,0.45
			l-7.93,2.03C33.65,33.74,33.33,33.37,33.48,33.02z M31.71,32.27l-9.17-21.5c-0.13-0.3,0.09-0.64,0.42-0.64H41.3
			c0.33,0,0.55,0.34,0.42,0.64l-9.17,21.5C32.39,32.64,31.87,32.64,31.71,32.27z M20.04,29.77l-8.88-8.84
			c-0.18-0.18-0.18-0.47,0-0.65l8.88-8.79c0.29-0.29,0.78-0.08,0.78,0.33v17.63C20.83,29.86,20.33,30.06,20.04,29.77z M28.08,49.53
			L13.34,34.35c-0.26-0.27-0.11-0.72,0.26-0.77l7.09-1.02c0.2-0.03,0.39,0.08,0.48,0.26l7.65,16.21
			C29.05,49.49,28.45,49.91,28.08,49.53z M43.49,32.71l6.87,0.89c0.38,0.05,0.53,0.5,0.27,0.78L36.05,49.39
			c-0.36,0.37-0.97-0.05-0.74-0.52l7.71-15.9C43.1,32.79,43.29,32.69,43.49,32.71z M44.22,11.66l8.63,8.63
			c0.18,0.18,0.18,0.47,0,0.65l-8.63,8.83c-0.29,0.29-0.79,0.09-0.79-0.32V11.98C43.43,11.57,43.93,11.37,44.22,11.66z M11.38,22.76
			l8.09,8.06c0.27,0.27,0.12,0.73-0.26,0.78l-7.25,1.05c-0.15,0.02-0.29-0.03-0.4-0.13l-0.83-0.86c-0.08-0.09-0.13-0.2-0.13-0.32
			v-8.25C10.6,22.68,11.09,22.47,11.38,22.76z M52.04,32.66l-7.11-0.92c-0.38-0.05-0.54-0.51-0.27-0.78l7.96-8.14
			c0.29-0.29,0.79-0.09,0.79,0.32v8.2c0,0.12-0.05,0.23-0.13,0.32l-0.84,0.87C52.33,32.63,52.18,32.68,52.04,32.66z"/>
	</g>
</g>
</svg>
