<?xml version="1.0" encoding="utf-8"?>
<!-- Generator: Adobe Illustrator 28.1.0, SVG Export Plug-In . SVG Version: 6.00 Build 0)  -->
<svg version="1.1" id="Capa_1" xmlns="http://www.w3.org/2000/svg" xmlns:xlink="http://www.w3.org/1999/xlink" x="0px" y="0px"
	 viewBox="0 0 64 64" style="enable-background:new 0 0 64 64;" xml:space="preserve">
<style type="text/css">
	.st0{fill:#8F8F8F;}
	.st1{fill:#FFFFFF;}
</style>
<g>
	<g>
		<g>
			<path class="st0" d="M29.84,41.83c0.03,0,0.05,0.01,0.08,0.01c0.14,0.03,0.29,0.05,0.43,0.07c0.06,0.01,0.13,0.02,0.19,0.02
				c0.12,0.01,0.23,0.03,0.35,0.04c0.1,0.01,0.2,0.02,0.31,0.02c0.08,0.01,0.17,0.01,0.25,0.02c0.19,0.01,0.38,0.01,0.57,0.01
				c0.19,0,0.38-0.01,0.57-0.01c0.08,0,0.17-0.01,0.25-0.02c0.1-0.01,0.2-0.01,0.31-0.02c0.12-0.01,0.23-0.03,0.35-0.04
				c0.06-0.01,0.13-0.02,0.19-0.02c0.15-0.02,0.29-0.05,0.43-0.07c0.03,0,0.05-0.01,0.08-0.01c5.37-1.02,9.45-5.75,9.45-11.42V14.83
				c0-6.41-5.22-11.63-11.63-11.63S20.39,8.42,20.39,14.83v15.58C20.39,36.08,24.47,40.81,29.84,41.83z M33.89,40.69
				c-0.13,0.02-0.25,0.04-0.38,0.06c-0.06,0.01-0.12,0.01-0.18,0.02c-0.1,0.01-0.2,0.03-0.3,0.04c-0.09,0.01-0.18,0.01-0.28,0.02
				c-0.07,0.01-0.15,0.01-0.22,0.02c-0.17,0.01-0.34,0.01-0.51,0.01c-0.17,0-0.34,0-0.51-0.01c-0.07,0-0.15-0.01-0.22-0.02
				c-0.09-0.01-0.18-0.01-0.28-0.02c-0.1-0.01-0.2-0.02-0.3-0.04c-0.06-0.01-0.12-0.01-0.18-0.02c-0.13-0.02-0.26-0.04-0.38-0.06
				c-0.02,0-0.05-0.01-0.07-0.01c-4.34-0.83-7.61-4.39-7.61-8.63c0-4.86,4.28-8.82,9.55-8.82s9.55,3.96,9.55,8.82
				c0,4.25-3.27,7.8-7.61,8.63C33.94,40.68,33.91,40.69,33.89,40.69z M32.02,4.42c5.26,0,9.55,3.96,9.55,8.82s-4.28,8.82-9.55,8.82
				s-9.55-3.96-9.55-8.82S26.75,4.42,32.02,4.42z M36.72,22.22c2.1-0.96,3.81-2.54,4.87-4.48c0.23-0.43,0.88-0.27,0.88,0.22v9.36
				c0,0.49-0.65,0.65-0.88,0.22c-1.06-1.94-2.77-3.52-4.87-4.48C36.35,22.9,36.35,22.38,36.72,22.22z M27.32,23.07
				c-2.1,0.96-3.81,2.54-4.87,4.48c-0.23,0.43-0.88,0.27-0.88-0.22v-9.36c0-0.49,0.65-0.65,0.88-0.22c1.06,1.94,2.77,3.52,4.87,4.48
				C27.68,22.38,27.68,22.9,27.32,23.07z"/>
		</g>
		<g>
			<path class="st0" d="M49.92,29.42c0-0.97-0.84-1.75-1.84-1.63c-0.74,0.08-1.34,0.67-1.44,1.41c-0.09,0.7,0.26,1.33,0.81,1.65
				c0.15,0.08,0.23,0.25,0.23,0.41v0.02c0,8.65-6.93,15.79-15.58,15.84c-8.68,0.05-15.76-7-15.76-15.67v-0.2
				c0-0.17,0.08-0.33,0.22-0.41c0.54-0.32,0.87-0.94,0.78-1.63c-0.1-0.74-0.7-1.33-1.44-1.41c-0.99-0.11-1.83,0.66-1.83,1.64
				c0,0.63,0.35,1.17,0.86,1.45c0.15,0.08,0.23,0.24,0.23,0.4v0.18c0,8.95,7.01,16.28,15.82,16.81c0.25,0.01,0.44,0.22,0.44,0.47
				v10.42c0,0.26-0.21,0.47-0.47,0.47l-15.17,0c-0.32,0-0.6,0.24-0.62,0.56c-0.02,0.34,0.25,0.62,0.59,0.62h32.48
				c0.32,0,0.6-0.24,0.62-0.56c0.02-0.34-0.25-0.62-0.59-0.62h-15.2c-0.26,0-0.47-0.21-0.47-0.47V48.73c0-0.25,0.19-0.45,0.44-0.47
				c8.81-0.53,15.82-7.87,15.82-16.81v-0.2c0-0.16,0.08-0.32,0.22-0.4C49.59,30.56,49.92,30.03,49.92,29.42z"/>
		</g>
	</g>
</g>
</svg>
