<?xml version="1.0" encoding="utf-8"?>
<!-- Generator: Adobe Illustrator 28.1.0, SVG Export Plug-In . SVG Version: 6.00 Build 0)  -->
<svg version="1.1" id="Capa_1" xmlns="http://www.w3.org/2000/svg" xmlns:xlink="http://www.w3.org/1999/xlink" x="0px" y="0px"
	 viewBox="0 0 64 64" style="enable-background:new 0 0 64 64;" xml:space="preserve">
<style type="text/css">
	.st0{fill:#8F8F8F;}
	.st1{fill:#FFFFFF;}
</style>
<g>
	<g>
		<path class="st0" d="M61.2,58.85c0.14-0.14,0.17-0.35,0.09-0.53l-0.94-1.89l0.01-0.01l-0.2-0.37l-0.35-0.7l-0.01,0.01l-0.71-1.33
			c-1.49-2.8-3.69-5.15-6.38-6.83l-2.44-1.52c-0.12-0.08-0.2-0.2-0.21-0.34l-0.29-2.87c-0.14-1.35-0.71-2.62-1.62-3.62
			c-0.08-0.09-0.12-0.2-0.12-0.31V17.27c0-3.13-2.54-5.67-5.67-5.67c-0.27,0-0.54,0.02-0.81,0.07c-0.23,0.04-0.45-0.12-0.51-0.35
			c-0.63-2.46-2.85-4.25-5.47-4.25c-0.56,0-1.13,0.1-1.71,0.31c-0.19,0.07-0.4,0-0.52-0.17c-0.03-0.05-0.07-0.09-0.1-0.14
			c-1.09-1.44-2.71-2.27-4.47-2.27c-1.83,0-3.51,0.89-4.58,2.37c-0.12,0.17-0.33,0.23-0.52,0.16c-0.57-0.2-1.2-0.33-1.86-0.36
			c-0.25-0.01-0.44-0.21-0.44-0.46l-0.03-5.44l-1.15,0.01l0.03,5.67c0,0.2-0.13,0.38-0.33,0.44c-0.39,0.12-0.78,0.28-1.15,0.5
			c-1.12,0.67-2.45,2.09-2.45,5.04l0,19.17c0,0.35-0.38,0.57-0.68,0.4c-1.31-0.74-2.65-1.47-3.71-1.93
			c-0.98-0.43-1.97-0.65-2.95-0.65c-2.57,0-4.4,1.36-5.25,2.64c-0.85,1.28-0.99,2.59-1,2.64c-0.08,0.72,0.2,1.45,0.74,1.93
			c0.09,0.08,9.47,8.53,12.08,11.3c2.54,2.69,5.72,4.16,8.97,4.16c0.07,0,0.14,0,0.21,0h9.64c1.99,0.02,3.9-0.39,5.7-1.21
			c0.09-0.04,0.19-0.05,0.29-0.03c0.29,0.06,0.58,0.11,0.87,0.13l2.72,0.2c0.14,0.01,0.27,0.09,0.35,0.21l1.87,2.9
			c1.5,2.32,3.52,4.27,5.9,5.69l1.77,1.06l1.04,0.58l1.89,0.94c0.18,0.09,0.39,0.05,0.53-0.09L61.2,58.85z M48.96,46.02
			c0.01,0.14,0.09,0.27,0.21,0.34l2.92,1.82c2.51,1.57,4.58,3.78,5.97,6.39l0.71,1.34c0.09,0.18,0.06,0.4-0.08,0.54l-1.14,1.14
			c-0.18,0.18-0.47,0.18-0.65,0L40.26,40.94c-0.18-0.18-0.18-0.47,0-0.65l3.53-3.53c0.18-0.18,0.47-0.18,0.65,0l2.69,2.69
			c0.84,0.84,1.37,1.95,1.49,3.13L48.96,46.02z M34.33,51.26l-9.66,0c-3,0.05-5.96-1.29-8.33-3.8c-2.65-2.8-11.76-11.01-12.15-11.36
			c-0.27-0.24-0.41-0.6-0.37-0.96c0-0.01,0.12-1.09,0.81-2.13c0.69-1.03,2.17-2.13,4.29-2.13c0.81,0,1.65,0.19,2.49,0.55
			c1.33,0.58,3.16,1.62,4.77,2.54l0.54,0.31c0.31,0.17,0.69-0.05,0.69-0.4V12.74c0-1.91,0.65-3.32,1.89-4.06
			c0.1-0.06,0.21-0.12,0.32-0.17c0.27-0.13,0.58,0.06,0.58,0.36l0.01,2.53c0,0.25-0.2,0.46-0.46,0.46H18
			c-0.25,0-0.46,0.21-0.46,0.46v10.12c0,1.65,1.33,2.98,2.98,2.98h2.96c0.25,0,0.46-0.21,0.46-0.46V14.85
			c0-1.38-0.94-2.54-2.22-2.88c-0.2-0.05-0.35-0.23-0.35-0.44l-0.02-2.99c0-0.23,0.19-0.42,0.42-0.41c0.71,0.03,1.43,0.21,2.06,0.53
			L23.7,8.59l0.1,0.05c0.16,0.08,0.26,0.24,0.26,0.42V29.2c0,0.25,0.21,0.46,0.46,0.46h0.23c0.25,0,0.46-0.21,0.46-0.46l0-21.34
			c0-0.11,0.03-0.21,0.1-0.29c0.85-1.02,2.1-1.63,3.44-1.63c1.27,0,2.47,0.56,3.33,1.54c0.07,0.08,0.11,0.19,0.11,0.3l0,22.65
			c0,0.25,0.21,0.46,0.46,0.46h0.23c0.25,0,0.46-0.21,0.46-0.46V9.14c0-0.17,0.1-0.33,0.25-0.41l0.04-0.02
			c0.71-0.36,1.29-0.5,1.93-0.5c1.88,0,3.5,1.16,4.18,2.82c0.02,0.05,0.03,0.11,0.03,0.17l0,17.99c0,0.25,0.21,0.46,0.46,0.46h0.23
			c0.25,0,0.46-0.21,0.46-0.46l0-15.86c0-0.21,0.14-0.39,0.34-0.44c0.38-0.1,0.74-0.16,1.11-0.16c2.5,0,4.53,2.03,4.53,4.53v19.19
			c0,0.41-0.49,0.61-0.78,0.32l-1.64-1.64c-0.18-0.18-0.47-0.18-0.65,0l-2.15,2.15l-4.11-4.11c-0.18-0.18-0.47-0.18-0.65,0
			l-0.16,0.16c-0.18,0.18-0.18,0.47,0,0.65l4.11,4.11l-4.09,4.09l-4.11-4.11c-0.18-0.18-0.47-0.18-0.65,0l-0.16,0.16
			c-0.18,0.18-0.18,0.47,0,0.65l4.11,4.11l-2.27,2.27c-0.18,0.18-0.18,0.47,0,0.65l3.53,3.53c0.2,0.2,0.42,0.39,0.64,0.56
			c0.3,0.23,0.22,0.71-0.15,0.81C36.6,51.13,35.48,51.27,34.33,51.26z M22.79,14.85v8.97c0,0.25-0.21,0.46-0.46,0.46h-1.81
			c-1.01,0-1.83-0.82-1.83-1.83v-8.97c0-0.25,0.21-0.46,0.46-0.46h1.81C21.97,13.01,22.79,13.83,22.79,14.85z M52.62,59.3
			c-2.22-1.33-4.11-3.15-5.52-5.32l-2.18-3.38c-0.08-0.12-0.21-0.2-0.35-0.21l-3.29-0.24c-1.23-0.09-2.39-0.62-3.27-1.5l-2.72-2.72
			c-0.18-0.18-0.18-0.47,0-0.65l3.53-3.53c0.18-0.18,0.47-0.18,0.65,0L56.1,58.4c0.18,0.18,0.18,0.47,0,0.65l-1.21,1.21
			c-0.15,0.15-0.38,0.18-0.56,0.07L52.62,59.3z M56.15,60.62l2.89-2.89c0.22-0.22,0.59-0.16,0.73,0.12l0.12,0.24
			c0.09,0.18,0.05,0.39-0.09,0.53l-2.77,2.77c-0.14,0.14-0.35,0.17-0.53,0.09l-0.24-0.12C55.99,61.22,55.93,60.84,56.15,60.62z"/>
	</g>
</g>
</svg>
