<?xml version="1.0" encoding="utf-8"?>
<!-- Generator: Adobe Illustrator 28.1.0, SVG Export Plug-In . SVG Version: 6.00 Build 0)  -->
<svg version="1.1" id="Capa_1" xmlns="http://www.w3.org/2000/svg" xmlns:xlink="http://www.w3.org/1999/xlink" x="0px" y="0px"
	 viewBox="0 0 64 64" style="enable-background:new 0 0 64 64;" xml:space="preserve">
<style type="text/css">
	.st0{fill:#8F8F8F;}
	.st1{fill:#FFFFFF;}
</style>
<path class="st1" d="M46.36,32.98l-0.15-0.13c-0.09-0.08-0.17-0.17-0.23-0.27c-0.17-0.27-0.29-0.41-0.39-0.5
	c-0.26-0.2-0.41-0.35-0.46-0.43c-0.02-0.02-0.05-0.07-0.09-0.14c-0.17-0.25-0.46-0.68-0.68-0.92c-0.1-0.12-0.31-0.74-0.34-0.96
	c-0.42-2.73-0.66-3.93-1.46-6.59c-0.04-0.12-0.07-0.52-0.12-0.95c-0.1-1.06-0.28-2.83-0.75-4.64c0-0.26-0.02-1.48-0.06-1.9
	c-0.12-1.54-0.92-3.55-2.78-4.11c-0.23-0.07-0.41-0.1-0.61-0.13c-0.34-0.06-0.73-0.12-1.58-0.44l-0.99-0.47
	c-0.63-0.3-0.82-0.41-0.88-0.45c-0.06-0.08-0.15-0.33-0.21-1.08c-0.02-0.32,0-0.66,0.08-1.06l0.11-0.56
	c0.04-0.01,0.08-0.03,0.12-0.05c0.22-0.12,0.41-0.32,0.52-0.57c0.12-0.27,0.2-0.98,0.22-1.28l0-0.04c0-0.13-0.03-0.47-0.28-0.71
	c-0.06-0.05-0.12-0.1-0.19-0.13l0-0.1c0.01-0.37-0.01-0.74-0.07-1.08c-0.04-0.24-0.09-0.42-0.15-0.56
	c-0.47-1.14-1.51-1.77-2.93-1.77c-0.02,0-0.05,0-0.07,0c-1.42,0-2.46,0.63-2.93,1.77c-0.06,0.14-0.11,0.32-0.15,0.56
	c-0.06,0.34-0.08,0.71-0.07,1.08l0,0.1c-0.07,0.03-0.13,0.08-0.19,0.13c-0.25,0.24-0.28,0.57-0.27,0.71l0,0.04
	c0.03,0.3,0.1,1.01,0.22,1.28c0.11,0.25,0.3,0.45,0.52,0.57c0.04,0.02,0.08,0.04,0.12,0.05l0.11,0.56c0.08,0.4,0.1,0.73,0.08,1.06
	c-0.06,0.75-0.15,0.99-0.21,1.08c-0.06,0.04-0.25,0.15-0.88,0.45l-0.99,0.47c-0.84,0.32-1.23,0.38-1.58,0.44
	c-0.19,0.03-0.38,0.06-0.61,0.13c-1.86,0.56-2.66,2.57-2.78,4.11c-0.03,0.42-0.05,1.63-0.06,1.9c-0.48,1.81-0.65,3.58-0.75,4.64
	c-0.04,0.43-0.08,0.84-0.12,0.95c-0.8,2.66-1.04,3.86-1.46,6.59c-0.03,0.22-0.25,0.84-0.34,0.95c-0.22,0.24-0.51,0.67-0.68,0.93
	c-0.05,0.07-0.08,0.12-0.09,0.14c-0.06,0.07-0.21,0.23-0.46,0.43c-0.1,0.08-0.22,0.22-0.39,0.5c-0.07,0.1-0.14,0.19-0.23,0.27
	l-0.15,0.13c-0.19,0.17-0.28,0.39-0.26,0.6c0.02,0.18,0.12,0.34,0.28,0.44c0.19,0.12,0.43,0.14,0.72,0.05l0.01-0.01
	c0.15-0.06,0.29-0.12,0.43-0.2l-0.63,2.55c-0.06,0.24,0.01,0.48,0.18,0.66c0.16,0.17,0.4,0.24,0.62,0.19
	c0.06-0.01,0.11-0.03,0.16-0.06c0.01,0.22,0.12,0.41,0.3,0.54c0.2,0.13,0.45,0.15,0.66,0.06l0.03-0.01c0.11-0.05,0.2-0.12,0.27-0.21
	c0.09,0.06,0.19,0.09,0.29,0.1c0.37,0.04,0.65-0.17,0.74-0.54c0.01-0.05,0.03-0.11,0.04-0.17c0.01,0,0.01,0.01,0.02,0.01
	c0.16,0.09,0.35,0.1,0.52,0.05c0.34-0.11,0.4-0.41,0.43-0.55l0.01-0.04c0.01-0.07,0.14-1.61,0.16-1.97l0.16-1.19
	c0.04-0.27,0.02-0.54-0.04-0.8c-0.02-0.08-0.03-0.27-0.04-0.4c0.03-0.34,0.5-1.27,0.66-1.58l0.06-0.11
	c1.43-2.88,2.28-6.12,2.29-8.65c0.01-0.13,0.17-0.73,0.36-1.42c0.06,1.04,0.13,2.32,0.21,3.46c0.1,1.56,0.44,2.72,0.61,3.28
	c0.02,0.09,0.05,0.18,0.07,0.24c-1.12,2.13-2.71,7.34-1.31,18.78c-0.01,0.02-0.01,0.04-0.02,0.06c-0.18,0.52-0.72,2.1,0.29,9.77
	c0.08,0.6,0.09,1.42-0.08,1.88c-0.07,0.19-0.27,0.57-0.39,0.67c-0.13,0.11-0.27,0.22-0.42,0.33c-1.11,0.88-2.26,1.79-2.15,2.72
	c0.13,1.12,1.58,1.54,2.47,1.54c0,0,0.01,0,0.01,0c0.66,0,1.18-0.28,1.68-0.55c0.33-0.18,0.64-0.34,0.97-0.42l0.02-0.01
	c0.61-0.19,1.1-0.78,1.15-1.41c0.03-0.46,0.1-1.41,0.16-2.24c0.06-0.82,0.11-1.53,0.12-1.74c0.08-1.49,0.31-2.59,0.53-3.65
	c0.28-1.34,0.55-2.61,0.43-4.4c-0.12-1.95-0.07-3.15,0.18-3.88c0.61-1.81,0.89-4.93,1.13-7.68c0.09-0.98,0.17-1.94,0.27-2.78
	c0.1,0.85,0.18,1.8,0.27,2.78c0.25,2.75,0.53,5.87,1.13,7.68c0.25,0.73,0.3,1.93,0.18,3.88c-0.11,1.79,0.15,3.06,0.43,4.4
	c0.22,1.06,0.45,2.17,0.53,3.65c0.01,0.2,0.06,0.92,0.12,1.74c0.06,0.83,0.13,1.78,0.16,2.25c0.05,0.63,0.53,1.22,1.15,1.4L36,62.05
	c0.33,0.08,0.64,0.24,0.97,0.42c0.5,0.27,1.02,0.55,1.68,0.55c0,0,0.01,0,0.01,0c0.89,0,2.34-0.42,2.47-1.54
	c0.11-0.92-1.04-1.83-2.15-2.72c-0.14-0.11-0.28-0.22-0.42-0.33c-0.12-0.1-0.32-0.47-0.39-0.67c-0.16-0.46-0.16-1.28-0.08-1.88
	c1.01-7.67,0.47-9.25,0.29-9.77c-0.01-0.02-0.01-0.04-0.02-0.06c1.4-11.44-0.19-16.65-1.31-18.78c0.02-0.06,0.04-0.16,0.07-0.24
	c0.16-0.56,0.5-1.71,0.61-3.28c0.08-1.12,0.12-2.35,0.14-3.35c0.31,0.88,0.41,1.21,0.43,1.32c0.01,2.54,0.87,5.77,2.29,8.65
	l0.06,0.11c0.15,0.31,0.62,1.24,0.66,1.58c0,0.12-0.02,0.32-0.04,0.4c-0.06,0.26-0.08,0.53-0.04,0.8l0.16,1.19
	c0.02,0.36,0.16,1.91,0.16,1.97l0.01,0.04c0.03,0.14,0.09,0.44,0.43,0.55c0.17,0.06,0.36,0.04,0.52-0.05c0.01,0,0.01-0.01,0.02-0.01
	c0.01,0.07,0.03,0.12,0.04,0.17c0.09,0.38,0.37,0.58,0.74,0.55c0.1-0.01,0.2-0.04,0.29-0.1c0.07,0.09,0.16,0.16,0.27,0.21l0.03,0.01
	c0.21,0.09,0.47,0.07,0.66-0.06c0.19-0.12,0.3-0.32,0.3-0.54c0.05,0.03,0.11,0.05,0.16,0.06c0.22,0.05,0.46-0.02,0.62-0.19
	c0.17-0.18,0.24-0.43,0.18-0.66l-0.59-2.37l-0.04-0.18c0.13,0.08,0.28,0.15,0.43,0.2l0.01,0.01c0.29,0.09,0.53,0.08,0.72-0.05
	c0.15-0.1,0.25-0.26,0.27-0.44C46.64,33.37,46.55,33.15,46.36,32.98z M37.1,20.74c-0.09-0.13-0.2-0.26-0.32-0.37
	c-0.01-0.01-0.02-0.02-0.04-0.03l-0.02-0.01c-0.07-0.06-0.14-0.11-0.22-0.17c0.02-0.02,0.05-0.04,0.07-0.07
	c0.21-0.27,0.36-0.58,0.45-0.9c0.04-0.06,0.08-0.12,0.11-0.19C37.13,19.43,37.12,20.04,37.1,20.74z M35.24,22.62l-0.07,0.02
	c-0.14,0.04-0.24,0.16-0.26,0.3c-0.67-0.19-1.48-0.3-2.34-0.32L32.6,20c1.2,0.01,2.31,0.21,3.06,0.56c0.23,0.1,0.42,0.22,0.56,0.34
	l0.04,0.03c0.09,0.08,0.17,0.17,0.22,0.26c0.06,0.1,0.09,0.2,0.09,0.32l0,0.02c-0.01,0.19-0.1,0.37-0.29,0.54
	c-0.08,0.07-0.17,0.14-0.28,0.21C35.79,22.41,35.53,22.52,35.24,22.62z M29.06,22.95c-0.02-0.14-0.12-0.26-0.26-0.3l-0.06-0.02
	c-0.3-0.1-0.56-0.22-0.77-0.35c-0.11-0.07-0.2-0.14-0.28-0.21c-0.18-0.17-0.28-0.34-0.29-0.53l0-0.03c0,0,0,0,0,0c0,0,0,0,0,0
	c0-0.11,0.03-0.22,0.09-0.32c0.05-0.09,0.13-0.18,0.22-0.26l0.03-0.02c0.15-0.12,0.34-0.24,0.57-0.34c0.76-0.35,1.89-0.55,3.1-0.56
	l0.01,1.28l0.02,1.2l0,0.15C30.56,22.64,29.73,22.75,29.06,22.95z M26.74,18.78c0.05,0.18,0.15,0.35,0.28,0.51
	c0.15,0.18,0.34,0.35,0.58,0.5c0.08,0.05,0.16,0.09,0.25,0.14c-0.23,0.12-0.44,0.25-0.61,0.39l-0.02,0.01
	c-0.01,0.01-0.03,0.02-0.03,0.03c-0.14,0.12-0.25,0.26-0.34,0.4C26.81,19.96,26.77,19.25,26.74,18.78z M31.39,18.88l0,0.35
	c-0.89,0.01-1.75,0.11-2.47,0.3c-0.36-0.11-0.67-0.24-0.92-0.4c-0.17-0.1-0.3-0.22-0.39-0.33c-0.09-0.11-0.14-0.21-0.16-0.33
	c-0.01-0.03-0.01-0.07-0.01-0.1c0-0.08,0.01-0.15,0.04-0.23c0.03-0.07,0.07-0.14,0.12-0.2c0.04-0.05,0.09-0.1,0.15-0.15
	c0.11-0.1,0.25-0.2,0.42-0.29c0.2-0.1,0.43-0.2,0.69-0.28c0.7-0.22,1.59-0.35,2.51-0.36C31.38,17.52,31.39,18.2,31.39,18.88z
	 M31.44,27.94c-0.77,0.14-1.45,0.47-1.97,0.95c-0.04,0.03-0.07,0.06-0.1,0.08l0.16-0.72c0.22-0.88,1-1.53,1.91-1.58c0,0,0,0,0,0
	V27.94z M32.55,26.68c0.9,0.06,1.67,0.7,1.89,1.57l0.16,0.73c-0.03-0.03-0.06-0.05-0.1-0.08c-0.52-0.48-1.19-0.8-1.95-0.94V26.68z
	 M36.51,18.41c-0.08,0.06-0.14,0.14-0.16,0.25l-0.02,0.13c0,0.02-0.01,0.04-0.02,0.06c-0.09,0.1-0.21,0.2-0.36,0.29
	c-0.24,0.15-0.55,0.29-0.91,0.4c-0.72-0.19-1.56-0.29-2.43-0.3l0-0.36c0.01-0.68,0.01-1.35,0.01-2.02c0.91,0.02,1.78,0.14,2.47,0.36
	c0.26,0.08,0.49,0.18,0.69,0.28c0.17,0.09,0.31,0.19,0.43,0.29c0.05,0.05,0.1,0.1,0.14,0.15c0.05,0.07,0.09,0.14,0.12,0.2
	c0.03,0.07,0.04,0.15,0.04,0.23C36.52,18.39,36.51,18.4,36.51,18.41z M18.79,32.92L18.7,33c-0.03,0.03-0.07,0.06-0.11,0.09
	c0.02-0.03,0.04-0.06,0.07-0.1c0.16-0.25,0.22-0.31,0.22-0.31c0.19-0.15,0.45-0.37,0.6-0.56c0.02-0.02,0.06-0.09,0.12-0.17
	c0.15-0.22,0.43-0.64,0.62-0.84c0.25-0.28,0.49-1.12,0.53-1.35c0.42-2.73,0.64-3.85,1.43-6.49c0.05-0.18,0.09-0.49,0.15-1.1
	c0.1-1.05,0.27-2.8,0.74-4.56l0.01-0.05l0-0.05c0-0.01,0.02-1.46,0.05-1.89c0.02-0.29,0.28-2.84,2.24-3.43
	c0.18-0.05,0.33-0.08,0.51-0.11c0.36-0.06,0.81-0.13,1.74-0.48l1.02-0.48c0.91-0.43,1.04-0.53,1.12-0.62
	c0.27-0.32,0.36-0.93,0.4-1.54c0.03-0.39,0-0.8-0.09-1.26l-0.23-1.21l-0.37,0.07c-0.01,0-0.01,0-0.01,0c0,0,0,0,0,0
	c-0.07-0.04-0.14-0.11-0.18-0.2c-0.05-0.11-0.12-0.61-0.16-1.02c0-0.07,0.03-0.13,0.04-0.14c0,0,0.01,0,0.04,0l0,0
	c0.04,0.11,0.11,0.21,0.2,0.29l0.05,0.05c0.1,0.24,0.31,0.42,0.57,0.49l0.1,0.02c0.08,0.02,0.17,0.02,0.26,0.02
	c0.16,0.16,0.45,0.28,0.94,0.22c0.02,0.12,0.02,0.22,0.03,0.29c0,0.11-0.02,0.69-0.01,0.92c0,0.05,0,0.11,0.01,0.16
	c0,0.05,0.01,0.1,0.01,0.13c0,0.07,0,0.14,0,0.21l0.01,2.44c-0.71,0.11-1.57,0.41-2.07,0.69c-0.18,0.1-0.25,0.34-0.15,0.52
	c0.07,0.13,0.2,0.2,0.33,0.2c0.06,0,0.13-0.02,0.19-0.05c0.41-0.23,1.12-0.48,1.7-0.59l0.01,1.37l-0.29-0.06
	c-0.58-0.12-1.1-0.09-1.64,0.08c-0.38,0.13-0.67,0.25-0.75,0.29c-0.28,0.13-0.69,0.41-1.07,0.67c-0.03,0.01-0.06,0.03-0.08,0.05
	l-0.08,0.07c-0.34,0.25-0.62,0.47-0.68,0.51c-0.14,0.11-0.27,0.23-0.39,0.36c-0.03,0.03-0.05,0.07-0.07,0.11
	c-0.09,0.09-0.17,0.18-0.24,0.28c0,0,0,0,0,0c-0.21,0.24-0.41,0.55-0.6,0.88c-0.04,0.06-0.08,0.11-0.11,0.15
	c-0.05,0.06-0.08,0.13-0.08,0.2c-0.7,1.35-1.23,2.99-1.25,3.08l0,0c-0.07,0.25-0.47,1.66-2.94,10.54l0,0c0,0,0,0.01,0,0.01
	c-0.04,0.17-0.21,0.46-0.42,0.81c-0.31,0.52-0.73,1.22-1.15,2.22C19.27,32.72,18.99,32.75,18.79,32.92z M25.97,18.03
	c-0.3,0.81-1.03,3.31-1.04,3.66c-0.01,2.4-0.86,5.59-2.21,8.33l-0.05,0.11c-0.37,0.73-0.71,1.47-0.74,1.89l0,0.02l0,0.02
	c0,0.06,0.01,0.38,0.06,0.57c0.04,0.17,0.05,0.35,0.03,0.52l-0.14,1.04l-0.45,0.12c-0.13,0.03-0.24,0.13-0.29,0.25l0.02-0.16
	L20.7,34.4c-0.2,0-0.38,0.14-0.41,0.33l-0.04,0.19l0.03-0.24c0.02-0.18-0.07-0.36-0.24-0.44c-0.08-0.04-0.17-0.05-0.25-0.03
	c0.53-1.55,1.12-2.54,1.52-3.21c0.25-0.42,0.43-0.73,0.51-1.01l0,0c0,0,2.85-10.23,2.93-10.52c0.04-0.12,0.63-1.95,1.36-3.24
	c0.07-0.11,0.15-0.23,0.24-0.36c0.07-0.11,0.15-0.23,0.22-0.34c0.15-0.22,0.33-0.42,0.54-0.59l0.81-0.67
	c0.39-0.29,0.84-0.59,1.09-0.7c0.07-0.03,0.33-0.15,0.67-0.26c0.41-0.13,0.79-0.15,1.25-0.06l0.45,0.09l0,0.73
	c0,0.63,0,1.31,0.01,2.02c-1,0.01-1.97,0.15-2.74,0.4c-0.3,0.1-0.58,0.21-0.81,0.33c-0.23,0.12-0.43,0.25-0.58,0.39
	c-0.09,0.08-0.17,0.16-0.24,0.25c-0.1,0.13-0.18,0.26-0.23,0.4c-0.03,0.08-0.06,0.16-0.07,0.24l-0.09-1.81L25.97,18.03z
	 M27.81,61.31c-0.42,0.1-0.79,0.3-1.14,0.49c-0.44,0.23-0.86,0.46-1.33,0.46c0,0,0,0-0.01,0c-0.66,0-1.64-0.31-1.71-0.86
	c-0.06-0.5,1.1-1.42,1.87-2.02c0.14-0.11,0.29-0.23,0.42-0.34c0.32-0.26,0.58-0.86,0.63-1c0.29-0.8,0.15-2,0.12-2.24
	c-0.66-4.97-0.76-8.14-0.32-9.42c0.04-0.12,0.08-0.22,0.06-0.36c-1.46-11.88,0.41-16.88,1.28-18.47c0.09-0.17,0.05-0.31-0.06-0.72
	c-0.17-0.57-0.48-1.63-0.58-3.11c-0.03-0.42-0.06-0.86-0.08-1.3c0.06,0.08,0.13,0.16,0.21,0.23c0.11,0.1,0.24,0.2,0.39,0.3
	c0.2,0.12,0.43,0.23,0.68,0.33c-0.46,0.24-0.75,0.53-0.85,0.86c-0.03,0.09-0.04,0.17-0.04,0.26c0,0.09,0.01,0.18,0.04,0.27
	c0.06,0.19,0.18,0.36,0.35,0.52c0.07,0.06,0.14,0.12,0.22,0.17c0.06,0.04,0.13,0.08,0.19,0.12v0.01l0.22,0.1
	c0.12,0.05,0.24,0.1,0.38,0.15c0.04,0.01,0.08,0.02,0.13,0.02c0.16,0,0.31-0.1,0.36-0.26c0.07-0.2-0.04-0.42-0.24-0.49
	c-0.09-0.03-0.17-0.06-0.25-0.1l-0.06-0.03c-0.12-0.05-0.22-0.11-0.31-0.17c-0.05-0.04-0.1-0.07-0.14-0.11
	c-0.07-0.06-0.12-0.13-0.13-0.18c0-0.01-0.01-0.02-0.01-0.04s0-0.03,0.01-0.04c0.02-0.05,0.1-0.23,0.54-0.44
	c0.65-0.31,1.68-0.5,2.77-0.51v2.51c-0.01,0-0.03,0-0.04,0c-1.24,0.06-2.32,0.95-2.62,2.17L28.3,30.2l0,0.02
	c-0.03,0.17-0.09,0.46-0.18,0.84c-0.08,0.36-0.18,0.81-0.29,1.32c-0.61,2.93-0.53,6.02,0.24,8.93c0.16,0.53,0.21,1.08,0.16,1.63
	l-0.79,7.83c-0.09,0.94-0.06,1.88,0.1,2.81l0.35,2.03c0.09,0.51,0.18,1.06,0.27,1.58c0.09,0.56-0.43,1.11-0.99,1.69
	c-0.49,0.51-0.99,1.04-1.18,1.67c-0.06,0.2,0.05,0.42,0.26,0.48c0.04,0.01,0.07,0.02,0.11,0.02c0.16,0,0.32-0.11,0.37-0.27
	c0.14-0.46,0.58-0.92,1-1.37c0.3-0.32,0.61-0.64,0.84-0.99c-0.06,0.81-0.13,1.71-0.15,2.16C28.38,60.9,28.13,61.21,27.81,61.31z
	 M34.76,52.84c-0.28-1.35-0.52-2.51-0.42-4.2c0.13-2.08,0.07-3.33-0.22-4.18c-0.58-1.72-0.85-4.79-1.1-7.5
	c-0.19-2.1-0.37-4.08-0.66-5.22L32,30.3l-0.37,1.44c-0.3,1.15-0.47,3.13-0.66,5.23c-0.24,2.71-0.52,5.78-1.1,7.5
	c-0.28,0.84-0.35,2.09-0.22,4.18c0.11,1.69-0.14,2.85-0.42,4.2c-0.2,0.94-0.4,1.91-0.5,3.15c-0.03-0.17-0.06-0.35-0.09-0.51
	l-0.35-2.03c-0.15-0.86-0.18-1.74-0.09-2.61l0.79-7.83c0.07-0.65,0-1.3-0.18-1.92c-0.73-2.79-0.81-5.75-0.22-8.57
	c0.11-0.51,0.2-0.95,0.28-1.3c0.09-0.39,0.15-0.68,0.18-0.87l0-0.01c0.07-0.14,0.49-0.54,0.9-0.87l0.02-0.02
	c0.39-0.36,0.88-0.61,1.46-0.74v0.14c0,0.39,0.24,0.69,0.56,0.69c0.32,0,0.56-0.3,0.56-0.69v-0.13c0.56,0.13,1.05,0.38,1.44,0.73
	l0.02,0.02c0.41,0.33,0.83,0.73,0.9,0.87l0,0.01c0.03,0.19,0.1,0.48,0.18,0.87c0.08,0.36,0.18,0.8,0.28,1.3
	c0.59,2.82,0.51,5.78-0.22,8.55c-0.19,0.63-0.25,1.28-0.18,1.93l0.79,7.83c0.09,0.87,0.06,1.75-0.09,2.61l-0.35,2.03
	c-0.02,0.12-0.04,0.24-0.06,0.36C35.15,54.67,34.95,53.74,34.76,52.84z M37.6,46c-0.02,0.14,0.02,0.25,0.06,0.36
	c0.44,1.28,0.33,4.45-0.32,9.42c-0.03,0.23-0.17,1.43,0.12,2.24c0.05,0.15,0.31,0.75,0.63,1c0.14,0.11,0.28,0.22,0.42,0.34
	c0.77,0.61,1.93,1.52,1.87,2.02c-0.07,0.56-1.05,0.86-1.71,0.86c0,0,0,0-0.01,0c-0.47,0-0.89-0.22-1.33-0.46
	c-0.35-0.19-0.72-0.38-1.14-0.49c-0.31-0.1-0.57-0.41-0.59-0.72c-0.03-0.42-0.09-1.23-0.14-2c0.23,0.37,0.52,0.73,0.81,1.08
	c0.42,0.51,0.85,1.03,0.98,1.49c0.05,0.17,0.2,0.27,0.37,0.27c0.04,0,0.07-0.01,0.11-0.02c0.2-0.06,0.32-0.27,0.26-0.48
	c-0.18-0.6-0.66-1.19-1.12-1.75c-0.57-0.69-1.15-1.4-1.05-1.99c0.09-0.52,0.18-1.07,0.27-1.58l0.35-2.03
	c0.16-0.93,0.19-1.87,0.1-2.81l-0.79-7.83c-0.06-0.55,0-1.1,0.16-1.64c0.76-2.9,0.84-5.98,0.23-8.92c-0.11-0.51-0.2-0.95-0.29-1.31
	c-0.08-0.38-0.15-0.68-0.18-0.84l-0.01-0.03c0,0,0,0,0,0c0,0,0,0,0,0l-0.47-2.11c-0.3-1.21-1.37-2.09-2.62-2.16c0,0-0.01,0-0.01,0
	v-2.45l0-0.06c1.09,0.02,2.11,0.2,2.75,0.51c0.44,0.21,0.52,0.39,0.54,0.44c0,0.01,0.01,0.03,0.01,0.04s0,0.02-0.01,0.04
	c-0.02,0.05-0.06,0.12-0.13,0.18c-0.04,0.04-0.09,0.07-0.14,0.11c-0.09,0.06-0.2,0.12-0.31,0.17L35.2,24.9
	c-0.08,0.03-0.17,0.07-0.26,0.1c-0.2,0.07-0.31,0.29-0.24,0.49c0.06,0.16,0.2,0.26,0.36,0.26c0.04,0,0.08-0.01,0.13-0.02
	c0.13-0.05,0.26-0.1,0.38-0.15l0.22-0.1v-0.01c0.07-0.04,0.13-0.08,0.2-0.12c0.08-0.05,0.15-0.11,0.22-0.17
	c0.18-0.16,0.3-0.34,0.35-0.52c0.03-0.09,0.04-0.18,0.04-0.27c0-0.09-0.01-0.17-0.04-0.26c-0.1-0.33-0.39-0.62-0.85-0.86
	c0.26-0.1,0.49-0.21,0.68-0.33c0.15-0.09,0.28-0.19,0.39-0.3c0.09-0.08,0.17-0.17,0.24-0.27c-0.02,0.45-0.04,0.9-0.07,1.34
	c-0.1,1.48-0.41,2.54-0.58,3.11c-0.12,0.41-0.16,0.54-0.06,0.72C37.2,29.13,39.06,34.12,37.6,46z M43.96,34.25
	c-0.17,0.08-0.26,0.25-0.24,0.44l0.03,0.24l-0.04-0.19c-0.04-0.19-0.21-0.33-0.41-0.33c0,0,0,0,0,0l-0.45,0.01l0.02,0.16
	c-0.05-0.12-0.15-0.22-0.29-0.25l-0.45-0.12l-0.14-1.04c-0.02-0.17-0.01-0.35,0.03-0.52c0.05-0.19,0.06-0.51,0.06-0.57l0-0.02
	l0-0.02c-0.03-0.43-0.37-1.16-0.74-1.89l-0.05-0.11c-1.36-2.74-2.2-5.93-2.21-8.33c0-0.17-0.09-0.55-1.19-3.51l-0.74-1.99l0,1.56
	c-0.05-0.1-0.11-0.2-0.19-0.3c-0.07-0.09-0.15-0.17-0.23-0.24c-0.16-0.14-0.35-0.28-0.58-0.4c-0.24-0.13-0.51-0.24-0.81-0.33
	c-0.76-0.24-1.71-0.38-2.7-0.4c0-0.69,0-1.36,0.01-2.02l0-0.74l0.41-0.08c0.45-0.09,0.84-0.07,1.25,0.06
	c0.34,0.11,0.6,0.23,0.67,0.26c0.25,0.11,0.69,0.42,1.09,0.7l0.81,0.67c0.21,0.17,0.39,0.37,0.54,0.59
	c0.07,0.11,0.15,0.22,0.22,0.34c0.09,0.13,0.17,0.25,0.24,0.36c0.73,1.29,1.32,3.13,1.36,3.24c0.08,0.29,2.9,10.42,2.93,10.52
	c0,0,0,0,0,0c0.07,0.28,0.25,0.58,0.5,1c0.4,0.67,0.98,1.66,1.52,3.21C44.1,34.21,44.03,34.22,43.96,34.25z M45.3,33l-0.09-0.08
	c-0.21-0.18-0.5-0.21-0.74-0.07c-0.43-1-0.85-1.71-1.16-2.23c-0.21-0.36-0.38-0.64-0.42-0.81c0,0,0,0,0,0c0,0,0,0,0,0
	c-2.35-8.44-2.83-10.16-2.95-10.54l0.01,0c-0.03-0.09-0.55-1.73-1.25-3.08c-0.01-0.07-0.03-0.14-0.08-0.21
	c-0.03-0.04-0.07-0.09-0.11-0.15c-0.19-0.33-0.39-0.64-0.6-0.88c0,0,0,0,0,0c-0.08-0.1-0.16-0.19-0.24-0.28
	c-0.02-0.04-0.04-0.07-0.07-0.11c-0.12-0.13-0.25-0.25-0.4-0.36c-0.06-0.05-0.34-0.26-0.68-0.51l-0.08-0.06
	c-0.02-0.02-0.05-0.04-0.08-0.05c-0.38-0.27-0.79-0.55-1.07-0.67c-0.08-0.04-0.37-0.17-0.75-0.29c-0.54-0.18-1.06-0.2-1.64-0.08
	l-0.25,0.05l0.01-1.35c0.57,0.11,1.26,0.35,1.66,0.58c0.06,0.03,0.12,0.05,0.19,0.05c0.13,0,0.26-0.07,0.33-0.2
	c0.1-0.18,0.04-0.42-0.15-0.52c-0.49-0.27-1.33-0.57-2.03-0.69l0.01-2.46c0-0.06,0-0.13,0-0.2c0-0.03,0-0.13,0-0.2l0-0.1
	c0-0.04,0-0.13-0.01-0.23c-0.01-0.16-0.02-0.54-0.01-0.63l0-0.05c0-0.07,0.01-0.18,0.03-0.3c0.52,0.07,0.81-0.05,0.98-0.21
	c0.07,0,0.13-0.01,0.2-0.02l0.1-0.02c0.26-0.07,0.47-0.25,0.57-0.49l0.06-0.05c0.09-0.08,0.15-0.18,0.2-0.29l0.03,0
	c0.02,0,0.03,0,0.03,0h0c0.01,0.01,0.04,0.07,0.04,0.14c-0.04,0.41-0.11,0.91-0.16,1.02c-0.04,0.09-0.1,0.16-0.18,0.2c0,0,0,0,0,0
	c0,0-0.01,0-0.01,0l-0.37-0.07l-0.23,1.21c-0.09,0.47-0.12,0.87-0.09,1.26c0.05,0.61,0.13,1.22,0.4,1.54
	c0.08,0.09,0.21,0.2,1.12,0.62l1,0.47l0.03,0.01c0.93,0.35,1.38,0.42,1.74,0.48c0.18,0.03,0.33,0.05,0.51,0.11
	c1.96,0.59,2.22,3.15,2.24,3.43c0.03,0.44,0.05,1.88,0.05,1.89l0,0.05l0.01,0.05c0.47,1.76,0.64,3.52,0.74,4.57
	c0.06,0.61,0.09,0.92,0.15,1.1c0.79,2.64,1.02,3.75,1.43,6.48c0.03,0.23,0.28,1.07,0.53,1.35c0.19,0.21,0.47,0.62,0.62,0.84
	c0.06,0.08,0.1,0.15,0.12,0.17c0.14,0.19,0.4,0.41,0.59,0.56c0.01,0.01,0.07,0.06,0.23,0.32c0.02,0.03,0.04,0.06,0.07,0.1
	C45.37,33.06,45.33,33.03,45.3,33z"/>
</svg>
