<?xml version="1.0" encoding="utf-8"?>
<!-- Generator: Adobe Illustrator 28.1.0, SVG Export Plug-In . SVG Version: 6.00 Build 0)  -->
<svg version="1.1" id="Capa_1" xmlns="http://www.w3.org/2000/svg" xmlns:xlink="http://www.w3.org/1999/xlink" x="0px" y="0px"
	 viewBox="0 0 64 64" style="enable-background:new 0 0 64 64;" xml:space="preserve">
<style type="text/css">
	.st0{fill:#8F8F8F;}
	.st1{fill:#FFFFFF;}
</style>
<g>
	<g>
		<g>
			<path class="st0" d="M5.09,5.44c2.93-2.93,7.41-3.7,11.15-1.9c0.29,0.14,0.63,0.02,0.77-0.27c0.14-0.29,0.02-0.63-0.27-0.77
				C12.56,0.5,7.56,1.35,4.28,4.63C1,7.9,0.15,12.91,2.16,17.08c0.1,0.21,0.3,0.32,0.52,0.32c0.08,0,0.17-0.02,0.25-0.06
				c0.29-0.14,0.41-0.48,0.27-0.77C1.39,12.85,2.16,8.37,5.09,5.44z"/>
		</g>
		<g>
			<path class="st0" d="M8.59,8.94c-2.31,2.31-2.91,5.85-1.49,8.79c0.1,0.21,0.3,0.32,0.52,0.32c0.08,0,0.17-0.02,0.25-0.06
				c0.29-0.14,0.41-0.48,0.27-0.77c-1.21-2.51-0.7-5.51,1.27-7.48c1.97-1.97,4.98-2.48,7.48-1.27c0.29,0.14,0.63,0.02,0.77-0.27
				c0.14-0.29,0.02-0.63-0.27-0.77C14.44,6.03,10.91,6.63,8.59,8.94z"/>
		</g>
		<g>
			<path class="st0" d="M62.74,61.58l-8.25-7.86c-0.19-0.18-0.19-0.47-0.01-0.66l2.86-2.86c0.14-0.14,0.17-0.35,0.09-0.53
				l-1.96-3.92l-0.56-1.07l-5.97-11.21c-0.04-0.07-0.09-0.13-0.16-0.17l-6.57-4.09c0,0,0,0,0,0l-6.23-3.89
				c-0.12-0.08-0.2-0.2-0.21-0.34l-0.61-6.01c-0.27-2.66-1.46-5.17-3.35-7.06l-6.67-6.67c-0.18-0.18-0.47-0.18-0.65,0l-19.4,19.4
				c-0.18,0.18-0.18,0.47,0,0.65l6.75,6.75c1.97,1.97,4.59,3.17,7.37,3.38l5.73,0.42c0.14,0.01,0.27,0.09,0.35,0.21l3.88,5.99
				c0,0,0,0,0,0l4.28,6.62c0.04,0.06,0.09,0.11,0.15,0.14l10.78,6.43l4.95,2.54c0.18,0.09,0.39,0.06,0.53-0.08l3.16-3.16
				c0.18-0.18,0.46-0.18,0.64-0.01l8.29,7.89c0.11,0.11,0.25,0.16,0.4,0.16c0.15,0,0.3-0.06,0.42-0.18
				C62.98,62.16,62.97,61.8,62.74,61.58z M49.81,49.15l-9.71-9.71c-0.19-0.19-0.18-0.51,0.03-0.68c2.6-2.17,6.19-2.84,9.42-1.72
				l4.36,8.19c0.09,0.18,0.06,0.4-0.08,0.54l-3.37,3.37C50.28,49.33,49.99,49.33,49.81,49.15z M35.64,26.46l5.74,3.58
				c0.48,2.82-0.3,5.68-2.12,7.86c-0.17,0.21-0.49,0.22-0.68,0.03l-7.13-7.13c-0.18-0.18-0.18-0.47,0-0.65l3.62-3.62
				C35.22,26.38,35.46,26.35,35.64,26.46z M48.8,35.64c-2.09-0.48-4.26-0.33-6.23,0.4c-0.37,0.14-0.73-0.22-0.59-0.59
				c0.55-1.47,0.77-3.05,0.65-4.64l5.4,3.36L48.8,35.64z M12.64,31.23l-5.94-5.94c-0.18-0.18-0.18-0.47,0-0.65L24.49,6.86
				c0.18-0.18,0.47-0.18,0.65,0L31,12.72c1.71,1.71,2.78,3.97,3.02,6.37l0.61,6.02c0.01,0.14-0.03,0.27-0.13,0.37l-4.54,4.54
				l-0.04,0.04c0,0,0,0,0,0c0,0,0,0,0,0l-4.5,4.5c-0.09,0.09-0.23,0.14-0.36,0.13l-5.77-0.43C16.78,34.09,14.42,33.01,12.64,31.23z
				 M30.64,31.61l7.1,7.1c0.2,0.2,0.18,0.52-0.04,0.69c-2.18,1.67-4.97,2.34-7.71,1.82l-3.57-5.52c-0.12-0.18-0.09-0.42,0.06-0.57
				l3.51-3.51C30.17,31.43,30.46,31.43,30.64,31.61z M30.81,42.48c0.33,0.03,0.66,0.05,1,0.05c1.3,0,2.58-0.23,3.78-0.68
				c0.37-0.14,0.73,0.22,0.59,0.59c-0.75,2.01-0.89,4.22-0.38,6.35l-1.48-0.88L30.81,42.48z M37.26,49.66
				c-1.19-3.15-0.66-6.68,1.36-9.33c0.17-0.22,0.49-0.24,0.69-0.04L49,49.96c0.18,0.18,0.18,0.47,0,0.65l-3.54,3.54
				c-0.15,0.15-0.38,0.18-0.56,0.07L37.26,49.66z M49.1,56.38l-2.27-1.13c-0.28-0.14-0.34-0.51-0.12-0.73l3.76-3.76l0.06-0.06
				c0,0,0,0,0,0c0,0,0,0,0,0l3.63-3.63c0.22-0.22,0.59-0.16,0.73,0.12l1.13,2.27c0.09,0.18,0.05,0.39-0.09,0.53l-6.32,6.32
				C49.49,56.44,49.28,56.47,49.1,56.38z"/>
		</g>
	</g>
</g>
</svg>
