<?xml version="1.0" encoding="utf-8"?>
<!-- Generator: Adobe Illustrator 28.1.0, SVG Export Plug-In . SVG Version: 6.00 Build 0)  -->
<svg version="1.1" id="Capa_1" xmlns="http://www.w3.org/2000/svg" xmlns:xlink="http://www.w3.org/1999/xlink" x="0px" y="0px"
	 viewBox="0 0 64 64" style="enable-background:new 0 0 64 64;" xml:space="preserve">
<style type="text/css">
	.st0{fill:#8F8F8F;}
	.st1{fill:#FFFFFF;}
</style>
<g>
	<g>
		<g>
			<path class="st0" d="M62.29,63.04l-60.58,0c-0.41,0-0.75-0.33-0.75-0.75l0-60.58C0.96,1.31,1.29,0.97,1.7,0.96h0.02
				c0.2,0,0.39,0.08,0.52,0.22c0.14,0.14,0.22,0.34,0.22,0.53l0,59.83l59.83,0c0.21,0,0.4,0.08,0.54,0.23
				c0.14,0.14,0.21,0.33,0.21,0.53C63.03,62.71,62.7,63.04,62.29,63.04z M1.23,1.71c0,0,0,0.01,0,0.01V1.71z M2.19,1.7v0.01
				C2.19,1.71,2.19,1.71,2.19,1.7z M40.24,54.48c-0.08,0-0.15-0.01-0.23-0.02c-0.08,0.01-0.15,0.02-0.23,0.02
				c-0.26,0-0.49-0.15-0.6-0.38l0,0c-0.73-0.58-1.33-1.81-1.75-3.62c-0.56-2.44-1-6.06-1.46-12.09l-0.02-0.26
				c-0.45-5.83-0.83-10.86-1.4-14.28c-0.3-1.83-0.66-3.2-1.05-4.08c-0.52-1.15-0.89-1.15-1.08-1.15c0,0,0.01,0,0.02,0
				c-0.11,0.02-0.22,0-0.32-0.03c-0.32,0.04-0.61,0.22-0.97,0.82c-0.38,0.63-0.73,1.63-1.02,2.96c-0.56,2.52-0.95,6.26-1.39,10.59
				l-0.02,0.19c-0.46,4.5-0.9,7.21-1.47,9.04c-0.59,1.9-1.53,2.98-2.65,3.06c-0.03,0-0.07,0.01-0.1,0c-0.05,0-0.09,0-0.14-0.01
				c-1.16-0.12-2.07-1.5-2.64-4c-0.56-2.44-1-6.06-1.46-12.09l-0.02-0.26c-0.45-5.83-0.83-10.86-1.4-14.28
				c-0.3-1.83-0.66-3.2-1.05-4.08c-0.52-1.15-0.9-1.15-1.08-1.15c0,0,0.01,0,0.02,0c-0.11,0.02-0.22,0-0.32-0.04
				c-0.26,0.07-0.49,0.21-0.72,0.44c-0.35,0.35-0.67,0.92-0.95,1.68c-0.55,1.5-0.93,3.75-1.38,6.36l-0.02,0.11
				c-0.47,2.78-0.92,4.45-1.51,5.59c-0.63,1.23-1.63,1.93-2.75,1.93c-0.18,0-0.35-0.07-0.47-0.19l-0.04-0.04
				c-0.1-0.12-0.16-0.27-0.16-0.43c0-0.36,0.29-0.65,0.65-0.65c0.69,0,1.06-0.17,1.59-1.22c0.5-0.98,0.95-2.68,1.38-5.21l0.09-0.55
				c0.41-2.43,0.77-4.52,1.36-6.16c0.36-0.97,0.76-1.66,1.26-2.16c0.46-0.46,1.05-0.76,1.68-0.85C16.45,8,16.48,7.99,16.5,7.99
				c0.08-0.01,0.14-0.01,0.18-0.01c0.03,0,0.05,0,0.08,0c0.08,0,0.15,0,0.23,0c0.12,0.01,0.22,0.05,0.31,0.11
				c0.51,0.19,1.13,0.67,1.64,1.81c0.46,1.01,0.83,2.43,1.16,4.44c0.58,3.53,0.93,8.13,1.34,13.46l0.09,1.22
				c0.44,5.71,0.9,9.59,1.43,11.85c0.63,2.74,1.1,2.97,1.53,2.97c0.06,0,0.13,0.01,0.19,0.03c0.41-0.08,0.8-0.46,1.31-2.11
				c0.52-1.67,0.98-4.53,1.42-8.76l0.09-0.91c0.41-3.97,0.76-7.39,1.35-10.03c0.34-1.53,0.72-2.6,1.19-3.38
				c0.57-0.94,1.36-1.46,2.22-1.46c0.02,0,0.05,0,0.07,0c0.03,0,0.05,0,0.07,0c0.52,0,1.5,0.25,2.26,1.92
				c0.46,1.01,0.83,2.43,1.16,4.44c0.58,3.53,0.93,8.13,1.34,13.45l0.09,1.22c0.44,5.71,0.9,9.59,1.43,11.85
				c0.52,2.26,0.93,2.81,1.3,2.93c0.37-0.12,0.79-0.67,1.31-2.93c0.52-2.26,0.99-6.14,1.43-11.85l0.09-1.22
				c0.41-5.32,0.76-9.92,1.34-13.45c0.33-2.02,0.7-3.43,1.16-4.44c0.75-1.67,1.74-1.92,2.26-1.92c0.04,0,0.1,0,0.18,0.01
				c0.04,0.01,0.07,0.02,0.11,0.03c0.74,0.03,1.43,0.29,1.97,0.75c0.51,0.44,0.92,1.04,1.28,1.89c0.6,1.42,0.96,3.22,1.37,5.32
				l0.09,0.48c0.43,2.16,0.87,3.61,1.37,4.43c0.53,0.89,0.9,1.03,1.6,1.03c0.37,0,0.67,0.29,0.67,0.65c0,0.17-0.07,0.34-0.19,0.46
				l-0.03,0.03c-0.08,0.07-0.23,0.16-0.43,0.16c-1.11,0-2.1-0.61-2.74-1.67c-0.59-1-1.05-2.45-1.52-4.84l-0.02-0.1
				c-0.44-2.23-0.82-4.15-1.37-5.43c-0.27-0.64-0.59-1.12-0.93-1.42c-0.32-0.27-0.62-0.4-1.04-0.43c-0.11,0.05-0.23,0.08-0.35,0.06
				c-0.21,0-0.57,0.02-1.09,1.15c-0.4,0.88-0.75,2.25-1.05,4.08c-0.57,3.42-0.95,8.45-1.4,14.28l-0.02,0.26
				c-0.46,6.03-0.9,9.64-1.46,12.09c-0.42,1.82-1.02,3.05-1.75,3.63C40.72,54.33,40.49,54.48,40.24,54.48z M32.44,18.62
				C32.44,18.62,32.44,18.62,32.44,18.62C32.44,18.62,32.44,18.62,32.44,18.62z M32.44,18.62C32.44,18.62,32.44,18.62,32.44,18.62
				C32.44,18.62,32.44,18.62,32.44,18.62z M32.44,18.62C32.44,18.62,32.44,18.62,32.44,18.62C32.44,18.62,32.44,18.62,32.44,18.62z
				 M16.71,9.38C16.71,9.38,16.71,9.38,16.71,9.38C16.71,9.38,16.71,9.38,16.71,9.38z M16.71,9.38C16.71,9.38,16.71,9.38,16.71,9.38
				C16.71,9.38,16.71,9.38,16.71,9.38z M16.71,9.38C16.71,9.38,16.71,9.38,16.71,9.38C16.71,9.38,16.71,9.38,16.71,9.38z"/>
		</g>
		<g>
			<g>
				<path class="st0" d="M9.25,31.98c-0.04-0.01-0.13-0.02-0.26-0.02H7.87c-0.09,0-0.17-0.01-0.22-0.04
					c-0.06-0.03-0.08-0.08-0.08-0.16c0-0.06,0.01-0.1,0.04-0.14c0.07,0.02,0.14,0.03,0.2,0.03c0.06,0,0.11-0.01,0.14-0.02
					c0.03-0.01,0.06-0.03,0.09-0.07c0.06-0.07,0.08-0.18,0.09-0.33v-2.73c0-0.14-0.04-0.23-0.12-0.26c-0.02-0.01-0.06-0.02-0.1-0.03
					c-0.04-0.01-0.09-0.02-0.13-0.03c-0.04-0.01-0.08-0.02-0.11-0.04c-0.06-0.03-0.09-0.08-0.09-0.14c0-0.07,0.01-0.11,0.04-0.15
					c0.04,0.01,0.13,0.02,0.26,0.02h1.09c0.09,0,0.17,0.01,0.22,0.04c0.06,0.03,0.08,0.08,0.08,0.16c0,0.06-0.01,0.1-0.04,0.14
					c-0.07-0.02-0.14-0.03-0.22-0.03c-0.17,0-0.26,0.14-0.27,0.42v2.73c0,0.14,0.04,0.23,0.12,0.27c0.02,0.01,0.06,0.02,0.1,0.03
					c0.04,0.01,0.09,0.02,0.13,0.03c0.04,0.01,0.08,0.02,0.11,0.04c0.06,0.03,0.09,0.08,0.09,0.14C9.29,31.9,9.28,31.95,9.25,31.98z
					"/>
			</g>
		</g>
		<g>
			<g>
				<path class="st0" d="M24.3,52.87c-0.04-0.01-0.13-0.02-0.26-0.02h-1.12c-0.09,0-0.17-0.01-0.22-0.04
					c-0.06-0.03-0.08-0.08-0.08-0.16c0-0.06,0.01-0.1,0.04-0.14c0.07,0.02,0.14,0.03,0.2,0.03c0.06,0,0.11-0.01,0.14-0.02
					c0.03-0.01,0.06-0.03,0.09-0.07c0.06-0.07,0.08-0.18,0.09-0.33v-2.73c0-0.14-0.04-0.23-0.12-0.26c-0.02-0.01-0.06-0.02-0.1-0.03
					c-0.04-0.01-0.09-0.02-0.13-0.03c-0.04-0.01-0.08-0.02-0.11-0.04c-0.06-0.03-0.09-0.08-0.09-0.14c0-0.07,0.01-0.11,0.04-0.15
					c0.04,0.01,0.13,0.02,0.26,0.02h1.09c0.09,0,0.17,0.01,0.22,0.04c0.06,0.03,0.08,0.08,0.08,0.16c0,0.06-0.01,0.1-0.04,0.14
					c-0.07-0.02-0.14-0.03-0.22-0.03c-0.17,0-0.26,0.14-0.27,0.42v2.73c0,0.14,0.04,0.23,0.12,0.27c0.02,0.01,0.06,0.02,0.1,0.03
					c0.04,0.01,0.09,0.02,0.13,0.03c0.04,0.01,0.08,0.02,0.11,0.04c0.06,0.03,0.09,0.08,0.09,0.14
					C24.34,52.79,24.33,52.83,24.3,52.87z"/>
			</g>
			<g>
				<path class="st0" d="M26.59,52.87c-0.04-0.01-0.13-0.02-0.26-0.02h-1.12c-0.09,0-0.17-0.01-0.22-0.04
					c-0.06-0.03-0.08-0.08-0.08-0.16c0-0.06,0.01-0.1,0.04-0.14c0.07,0.02,0.14,0.03,0.2,0.03c0.06,0,0.11-0.01,0.14-0.02
					c0.03-0.01,0.06-0.03,0.09-0.07c0.06-0.07,0.08-0.18,0.09-0.33v-2.73c0-0.14-0.04-0.23-0.12-0.26c-0.02-0.01-0.06-0.02-0.1-0.03
					c-0.04-0.01-0.09-0.02-0.13-0.03c-0.04-0.01-0.08-0.02-0.11-0.04c-0.06-0.03-0.09-0.08-0.09-0.14c0-0.07,0.01-0.11,0.04-0.15
					c0.04,0.01,0.13,0.02,0.26,0.02h1.09c0.09,0,0.17,0.01,0.22,0.04c0.06,0.03,0.08,0.08,0.08,0.16c0,0.06-0.01,0.1-0.04,0.14
					c-0.07-0.02-0.14-0.03-0.22-0.03c-0.17,0-0.26,0.14-0.27,0.42v2.73c0,0.14,0.04,0.23,0.12,0.27c0.02,0.01,0.06,0.02,0.1,0.03
					c0.04,0.01,0.09,0.02,0.13,0.03c0.04,0.01,0.08,0.02,0.11,0.04c0.06,0.03,0.09,0.08,0.09,0.14
					C26.64,52.79,26.62,52.83,26.59,52.87z"/>
			</g>
		</g>
		<g>
			<g>
				<path class="st0" d="M32.95,13.83c-0.04-0.01-0.13-0.02-0.26-0.02h-1.12c-0.09,0-0.17-0.01-0.22-0.04
					c-0.06-0.03-0.08-0.08-0.08-0.16c0-0.06,0.01-0.1,0.04-0.14c0.07,0.02,0.14,0.03,0.2,0.03c0.06,0,0.11-0.01,0.14-0.02
					c0.03-0.01,0.06-0.03,0.09-0.07c0.06-0.07,0.08-0.18,0.09-0.33v-2.73c0-0.14-0.04-0.23-0.12-0.26c-0.02-0.01-0.06-0.02-0.1-0.03
					c-0.04-0.01-0.09-0.02-0.13-0.03c-0.04-0.01-0.08-0.02-0.11-0.04c-0.06-0.03-0.09-0.08-0.09-0.14c0-0.07,0.01-0.11,0.04-0.15
					c0.04,0.01,0.13,0.02,0.26,0.02h1.09c0.09,0,0.17,0.01,0.22,0.04c0.06,0.03,0.08,0.08,0.08,0.16c0,0.06-0.01,0.1-0.04,0.14
					c-0.07-0.02-0.14-0.03-0.22-0.03c-0.17,0-0.26,0.14-0.27,0.42v2.73c0,0.14,0.04,0.23,0.12,0.27c0.02,0.01,0.06,0.02,0.1,0.03
					c0.04,0.01,0.09,0.02,0.13,0.03c0.04,0.01,0.08,0.02,0.11,0.04c0.06,0.03,0.09,0.08,0.09,0.14
					C32.99,13.75,32.98,13.8,32.95,13.83z"/>
			</g>
			<g>
				<path class="st0" d="M35.25,13.83c-0.04-0.01-0.13-0.02-0.26-0.02h-1.12c-0.09,0-0.17-0.01-0.22-0.04
					c-0.06-0.03-0.08-0.08-0.08-0.16c0-0.06,0.01-0.1,0.04-0.14c0.07,0.02,0.14,0.03,0.2,0.03c0.06,0,0.11-0.01,0.14-0.02
					c0.03-0.01,0.06-0.03,0.09-0.07c0.06-0.07,0.08-0.18,0.09-0.33v-2.73c0-0.14-0.04-0.23-0.12-0.26c-0.02-0.01-0.06-0.02-0.1-0.03
					c-0.04-0.01-0.09-0.02-0.13-0.03c-0.04-0.01-0.08-0.02-0.11-0.04c-0.06-0.03-0.09-0.08-0.09-0.14c0-0.07,0.01-0.11,0.04-0.15
					c0.04,0.01,0.13,0.02,0.26,0.02h1.09c0.09,0,0.17,0.01,0.22,0.04c0.06,0.03,0.08,0.08,0.08,0.16c0,0.06-0.01,0.1-0.04,0.14
					c-0.07-0.02-0.14-0.03-0.22-0.03c-0.17,0-0.26,0.14-0.27,0.42v2.73c0,0.14,0.04,0.23,0.12,0.27c0.02,0.01,0.06,0.02,0.1,0.03
					c0.04,0.01,0.09,0.02,0.13,0.03c0.04,0.01,0.08,0.02,0.11,0.04c0.06,0.03,0.09,0.08,0.09,0.14
					C35.29,13.75,35.27,13.8,35.25,13.83z"/>
			</g>
			<g>
				<path class="st0" d="M37.54,13.83c-0.04-0.01-0.13-0.02-0.26-0.02h-1.12c-0.09,0-0.17-0.01-0.22-0.04
					c-0.06-0.03-0.08-0.08-0.08-0.16c0-0.06,0.01-0.1,0.04-0.14c0.07,0.02,0.14,0.03,0.2,0.03c0.06,0,0.11-0.01,0.14-0.02
					c0.03-0.01,0.06-0.03,0.09-0.07c0.06-0.07,0.08-0.18,0.09-0.33v-2.73c0-0.14-0.04-0.23-0.12-0.26c-0.02-0.01-0.06-0.02-0.1-0.03
					c-0.04-0.01-0.09-0.02-0.13-0.03c-0.04-0.01-0.08-0.02-0.11-0.04c-0.06-0.03-0.09-0.08-0.09-0.14c0-0.07,0.01-0.11,0.04-0.15
					c0.04,0.01,0.13,0.02,0.26,0.02h1.09c0.09,0,0.17,0.01,0.22,0.04c0.06,0.03,0.08,0.08,0.08,0.16c0,0.06-0.01,0.1-0.04,0.14
					c-0.07-0.02-0.14-0.03-0.22-0.03c-0.17,0-0.26,0.14-0.27,0.42v2.73c0,0.14,0.04,0.23,0.12,0.27c0.02,0.01,0.06,0.02,0.1,0.03
					c0.04,0.01,0.09,0.02,0.13,0.03c0.04,0.01,0.08,0.02,0.11,0.04c0.06,0.03,0.09,0.08,0.09,0.14
					C37.58,13.75,37.57,13.8,37.54,13.83z"/>
			</g>
		</g>
		<g>
			<g>
				<path class="st0" d="M55.44,40.34c-0.04-0.01-0.13-0.02-0.26-0.02h-1.12c-0.09,0-0.17-0.01-0.22-0.04
					c-0.06-0.03-0.08-0.08-0.08-0.16c0-0.06,0.01-0.1,0.04-0.14C53.87,40,53.94,40,54,40c0.06,0,0.11-0.01,0.14-0.02
					c0.03-0.01,0.06-0.03,0.09-0.07c0.06-0.07,0.08-0.18,0.09-0.33v-2.73c0-0.14-0.04-0.23-0.12-0.26c-0.02-0.01-0.06-0.02-0.1-0.03
					c-0.04-0.01-0.09-0.02-0.13-0.03c-0.04-0.01-0.08-0.02-0.11-0.04c-0.06-0.03-0.09-0.08-0.09-0.14c0-0.07,0.01-0.11,0.04-0.15
					c0.04,0.01,0.13,0.02,0.26,0.02h1.09c0.09,0,0.17,0.01,0.22,0.04c0.06,0.03,0.08,0.08,0.08,0.16c0,0.06-0.01,0.1-0.04,0.14
					c-0.07-0.02-0.14-0.03-0.22-0.03c-0.17,0-0.26,0.14-0.27,0.42v2.73c0,0.14,0.04,0.23,0.12,0.27c0.02,0.01,0.06,0.02,0.1,0.03
					c0.04,0.01,0.09,0.02,0.13,0.03s0.08,0.02,0.11,0.04c0.06,0.03,0.09,0.08,0.09,0.14C55.49,40.26,55.47,40.31,55.44,40.34z"/>
			</g>
			<g>
				<path class="st0" d="M59.91,36.56c-0.04-0.02-0.09-0.03-0.16-0.03c-0.07,0-0.12,0.01-0.15,0.04c-0.03,0.03-0.06,0.07-0.09,0.12
					c-0.03,0.05-0.06,0.11-0.08,0.18l-1.1,3c-0.12,0.33-0.32,0.5-0.6,0.5c-0.09,0-0.14-0.02-0.16-0.08l-1.32-3.36
					c-0.01-0.04-0.03-0.07-0.04-0.12c-0.01-0.04-0.03-0.08-0.04-0.12c-0.04-0.09-0.09-0.15-0.16-0.17
					c-0.04-0.01-0.08-0.03-0.11-0.04c-0.03-0.01-0.06-0.02-0.08-0.03c-0.04-0.03-0.06-0.06-0.06-0.1c0-0.06,0.01-0.12,0.04-0.16
					c0.04,0.01,0.11,0.02,0.21,0.02h1.11c0.12,0,0.2,0.01,0.24,0.02c0.08,0.03,0.12,0.09,0.12,0.18c0,0.06-0.01,0.11-0.04,0.14
					c-0.04-0.02-0.12-0.03-0.23-0.03c-0.21,0-0.32,0.09-0.32,0.26c0,0.02,0.01,0.05,0.02,0.09l0.03,0.09
					c0.01,0.02,0.02,0.04,0.02,0.06l0.96,2.64l0.99-2.84c0.01-0.04,0.02-0.07,0.02-0.11c0-0.03-0.01-0.06-0.02-0.08
					c-0.01-0.02-0.03-0.04-0.06-0.06c-0.03-0.02-0.07-0.03-0.13-0.05c-0.06-0.01-0.12-0.03-0.16-0.04
					c-0.04-0.01-0.08-0.02-0.11-0.04c-0.06-0.03-0.09-0.09-0.09-0.16c0-0.05,0.01-0.09,0.03-0.13c0.04,0.01,0.13,0.02,0.26,0.02
					h0.93c0.24,0,0.36,0.07,0.36,0.21C59.95,36.48,59.94,36.53,59.91,36.56z"/>
			</g>
		</g>
	</g>
</g>
</svg>
