<?xml version="1.0" encoding="utf-8"?>
<!-- Generator: Adobe Illustrator 28.1.0, SVG Export Plug-In . SVG Version: 6.00 Build 0)  -->
<svg version="1.1" id="Capa_1" xmlns="http://www.w3.org/2000/svg" xmlns:xlink="http://www.w3.org/1999/xlink" x="0px" y="0px"
	 viewBox="0 0 64 64" style="enable-background:new 0 0 64 64;" xml:space="preserve">
<style type="text/css">
	.st0{fill:#8F8F8F;}
	.st1{fill:#FFFFFF;}
</style>
<g>
	<g>
		<path class="st0" d="M58.39,16.61l-0.22-0.33c-0.14-0.21-0.42-0.27-0.63-0.14l-9.14,5.91c-0.3,0.2-0.71-0.02-0.71-0.38v-5.1
			c0-0.25-0.2-0.46-0.46-0.46H1.6c-0.25,0-0.46,0.2-0.46,0.46v30.86c0,0.25,0.2,0.46,0.46,0.46h45.64c0.25,0,0.46-0.2,0.46-0.46
			v-5.24c0-0.37,0.41-0.58,0.71-0.38l8.98,6.04c0.21,0.14,0.49,0.09,0.63-0.12l0.06-0.09c3.07-4.54,4.72-9.88,4.77-15.46
			C62.91,26.59,61.37,21.21,58.39,16.61z M46.09,46.74H2.74c-0.25,0-0.46-0.2-0.46-0.46V17.71c0-0.25,0.2-0.46,0.46-0.46h43.35
			c0.25,0,0.46,0.2,0.46,0.46v5.54v7.72c0,0.25-0.2,0.46-0.46,0.46H33.32L17.3,22.18c-0.3-0.18-0.69,0.04-0.69,0.4v18.86
			c0,0.35,0.38,0.57,0.69,0.4l16.03-9.25h12.77c0.25,0,0.46,0.2,0.46,0.46v7.53v5.72C46.55,46.54,46.34,46.74,46.09,46.74z
			 M18.21,32.57h11.12c0.47,0,0.63,0.62,0.23,0.85l-11.12,6.42c-0.31,0.18-0.69-0.04-0.69-0.4v-6.42
			C17.75,32.78,17.96,32.57,18.21,32.57z M17.75,30.97v-6.42c0-0.35,0.38-0.57,0.69-0.4l11.12,6.42c0.41,0.23,0.24,0.85-0.23,0.85
			H18.21C17.96,31.43,17.75,31.22,17.75,30.97z M57.06,46.25l-9.17-6.17c-0.13-0.08-0.2-0.23-0.2-0.38V24.12
			c0-0.16,0.08-0.3,0.21-0.38l9.29-6.01c0.22-0.14,0.51-0.08,0.64,0.14c5.21,8.59,5.15,19.72-0.13,28.25
			C57.57,46.34,57.28,46.4,57.06,46.25z"/>
	</g>
</g>
</svg>
