<?xml version="1.0" encoding="utf-8"?>
<!-- Generator: Adobe Illustrator 28.1.0, SVG Export Plug-In . SVG Version: 6.00 Build 0)  -->
<svg version="1.1" id="Capa_1" xmlns="http://www.w3.org/2000/svg" xmlns:xlink="http://www.w3.org/1999/xlink" x="0px" y="0px"
	 viewBox="0 0 64 64" style="enable-background:new 0 0 64 64;" xml:space="preserve">
<style type="text/css">
	.st0{fill:#8F8F8F;}
	.st1{fill:#FFFFFF;}
</style>
<g>
	<g>
		<g>
			<path class="st1" d="M32.76,35.87c-0.21,0-0.39,0.17-0.39,0.39v5h-0.47c-0.19,0-0.35,0.13-0.39,0.31l-0.01,0.05l-0.05-0.03
				c-0.06-0.03-0.12-0.05-0.18-0.05c-0.18,0-0.34,0.1-0.43,0.26c-0.04,0.08-0.13,0.13-0.22,0.14l-0.12,0l-0.08,0.01
				c-0.52,0.12-0.92,0.55-1,1.09l-0.03,0.25v0.01l-0.01,0.07l-0.06-0.04c-0.6-0.34-2.02-1.05-2.81-1.44l-0.08-0.04h-9.12
				c-0.22,0-0.41,0.18-0.41,0.41c0,0.2,0.16,0.36,0.36,0.36h8.99l0.01,0c0.91,0.45,1.97,1,2.69,1.39c0.06,0.03,0.12,0.05,0.18,0.05
				c0.1,0,0.2-0.04,0.27-0.11c0.06-0.06,0.1-0.15,0.11-0.24l0.01-0.07l0.06,0.04c0.05,0.03,0.11,0.06,0.17,0.06
				c0.02,0,0.03,0,0.05,0c0.08,0,0.15-0.02,0.21-0.07c0.07-0.06,0.12-0.14,0.14-0.23l0.04-0.3c0.03-0.2,0.17-0.37,0.37-0.43l0.09,0
				c0.44-0.01,0.83-0.3,0.95-0.72l0.02-0.05l0.04,0.03c0.06,0.04,0.13,0.06,0.2,0.06h1.12c0.09,0,0.16-0.07,0.16-0.16v-5.61
				C33.15,36.04,32.98,35.87,32.76,35.87z"/>
		</g>
		<g>
			<path class="st1" d="M44.67,29.87c-0.03-0.1-0.11-0.18-0.21-0.22c-0.04-0.02-0.08-0.02-0.12-0.02c-0.06,0-0.12,0.02-0.18,0.05
				c-0.18,0.1-0.47,0.28-0.89,0.55c-0.7,0.44-1.23,1.11-1.49,1.9l-0.45,1.36c-0.09,0.26-0.27,0.46-0.52,0.55
				c-0.09,0.04-0.2,0.05-0.3,0.05c-0.23,0-0.46-0.09-0.64-0.25l-0.81-0.71c-0.32-0.28-0.71-0.48-1.13-0.57l-1.59-0.33
				c-0.48-0.1-0.88-0.6-1.26-1.08L35,31.06c-0.13-0.16-0.27-0.31-0.43-0.46l-0.86-0.81c-0.07-0.06-0.16-0.1-0.25-0.1
				c-0.1,0-0.2,0.04-0.27,0.12c-0.15,0.16-0.14,0.42,0.02,0.57l0.05,0.05l-0.07,0.02c-0.17,0.04-0.29,0.2-0.29,0.37v0.26
				c0,1.39-0.18,2.78-0.52,4.12c-0.05,0.2,0.07,0.41,0.27,0.47c0.03,0.01,0.07,0.01,0.1,0.01c0.07,0,0.13-0.02,0.19-0.05
				c0.09-0.05,0.15-0.14,0.18-0.24c0.36-1.41,0.55-2.86,0.55-4.32v-0.28l0.38,0.35c0.13,0.12,0.25,0.25,0.35,0.38l0.08,0.09
				c0.45,0.56,0.96,1.19,1.7,1.35l1.59,0.33c0.29,0.06,0.56,0.2,0.78,0.39l0.85,0.74c0.3,0.27,0.69,0.41,1.09,0.41
				c0.24,0,0.47-0.05,0.69-0.15c0.42-0.19,0.75-0.57,0.9-1.03l0.43-1.31c0.2-0.62,0.62-1.15,1.17-1.5c0.35-0.22,0.62-0.38,0.8-0.49
				C44.67,30.28,44.74,30.06,44.67,29.87z"/>
		</g>
		<g>
			<path class="st1" d="M19.48,30.37c0.18,0.11,0.46,0.28,0.83,0.51c0.55,0.35,0.97,0.88,1.17,1.5l0.43,1.31
				c0.16,0.47,0.49,0.85,0.92,1.04c0.22,0.09,0.44,0.14,0.67,0.14c0.4,0,0.79-0.15,1.09-0.41l0.85-0.74
				c0.22-0.2,0.49-0.33,0.78-0.39l1.59-0.33c0.75-0.16,1.26-0.79,1.7-1.35l0.07-0.09c0.11-0.13,0.22-0.26,0.35-0.38l0.38-0.35v0.28
				c0,1.46,0.18,2.91,0.55,4.32c0.03,0.1,0.09,0.18,0.18,0.24c0.06,0.03,0.13,0.05,0.19,0.05c0.03,0,0.07,0,0.1-0.01
				c0.2-0.06,0.32-0.27,0.27-0.47c-0.35-1.35-0.52-2.73-0.52-4.12v-0.26c0-0.18-0.12-0.33-0.29-0.37l-0.07-0.02l0.07-0.06
				c0.08-0.07,0.12-0.17,0.12-0.27c0-0.1-0.03-0.2-0.1-0.28c-0.07-0.08-0.17-0.12-0.28-0.12c-0.1,0-0.19,0.04-0.26,0.1l-0.85,0.8
				c-0.16,0.15-0.3,0.3-0.43,0.46l-0.08,0.09c-0.39,0.48-0.78,0.98-1.26,1.08l-1.59,0.33c-0.42,0.09-0.81,0.28-1.13,0.57l-0.85,0.74
				c-0.17,0.15-0.37,0.22-0.58,0.22c-0.05,0-0.1,0-0.15-0.01c-0.32-0.05-0.6-0.31-0.71-0.64l-0.43-1.32
				c-0.26-0.79-0.79-1.46-1.49-1.9c-0.39-0.24-0.68-0.42-0.86-0.53c-0.06-0.03-0.13-0.05-0.19-0.05c-0.04,0-0.09,0.01-0.13,0.02
				c-0.11,0.04-0.19,0.12-0.23,0.23C19.26,30.08,19.33,30.27,19.48,30.37z"/>
		</g>
		<g>
			<path class="st1" d="M31.01,36.25v4.59c0,0.21,0.17,0.39,0.39,0.39s0.39-0.17,0.39-0.39v-4.59c0-0.21-0.17-0.39-0.39-0.39
				S31.01,36.04,31.01,36.25z"/>
		</g>
	</g>
	<path class="st1" d="M37.42,52.79c-0.85,0-1.61-0.15-2.25-0.46c-1.26-0.61-1.93-1.81-1.93-3.39c0-0.07-0.04-0.12-0.09-0.16
		c-0.28-0.16-0.5-0.38-0.65-0.66c-0.51-0.95-0.06-2.26,0.34-3.41c0.06-0.17,0.12-0.34,0.17-0.5c0.05-0.15-0.12-0.29-0.26-0.21
		c0,0-0.01,0-0.01,0.01c-0.45,0.26-1.01,0.26-1.47,0c0,0-0.01,0-0.01-0.01c-0.14-0.08-0.31,0.06-0.26,0.21
		c0.05,0.16,0.11,0.33,0.17,0.5c0.4,1.15,0.85,2.45,0.34,3.41c-0.15,0.28-0.37,0.5-0.65,0.66c-0.06,0.03-0.09,0.09-0.09,0.16
		c0,1.59-0.67,2.78-1.93,3.39c-1.18,0.57-2.83,0.61-4.64,0.11c-1.7-0.47-3.35-1.38-4.53-2.49c-1.7-1.6-2.3-3.43-1.7-5.17
		c0.01-0.04,0.01-0.07,0-0.11c-0.54-1.66,0.87-2.77,2.15-3.57c0.13-0.08,0.1-0.29-0.05-0.32c-0.46-0.11-0.87-0.3-1.24-0.55
		c-0.77-0.54-1.27-1.35-1.51-2.43c-0.01-0.06-0.05-0.1-0.1-0.13c-1.31-0.58-2.15-2.5-2.23-4.24c-0.05-1.18,0.24-2.12,0.82-2.7
		c0.07-0.07,0.07-0.17,0.01-0.24c-0.67-0.79-0.76-1.69-0.51-2.4c0.01-0.04,0.01-0.07,0-0.11c-0.63-2.05-0.58-6.59,1.21-8.47
		c0.52-0.55,1.14-0.84,1.84-0.87c0.1,0,0.17-0.09,0.17-0.19c-0.03-0.4,0.06-0.73,0.18-0.97c0.47-1,1.71-1.51,2.69-1.76
		c0.07-0.02,0.13-0.08,0.13-0.16c0.05-0.53,0.3-1.05,0.7-1.46c0.5-0.51,1.15-0.78,1.8-0.77c0.05,0,0.09-0.02,0.12-0.05
		c0.94-0.91,2.32-1.62,3.75-1.91c1.53-0.31,2.93-0.14,4.01,0.48c0.06,0.03,0.12,0.03,0.18,0c1.07-0.63,2.48-0.8,4.01-0.48
		c1.43,0.29,2.81,1,3.75,1.91c0.03,0.03,0.08,0.05,0.13,0.05c0.65-0.01,1.3,0.27,1.8,0.77c0.4,0.41,0.65,0.93,0.7,1.46
		c0.01,0.08,0.06,0.14,0.13,0.16c0.97,0.25,2.21,0.75,2.69,1.76c0.11,0.24,0.21,0.57,0.18,0.97c-0.01,0.1,0.07,0.19,0.17,0.19
		c0.7,0.03,1.32,0.32,1.84,0.87c1.79,1.89,1.84,6.42,1.21,8.47c-0.01,0.04-0.01,0.07,0,0.11c0.25,0.71,0.16,1.61-0.51,2.4
		c-0.06,0.07-0.05,0.18,0.01,0.24c0.58,0.58,0.87,1.52,0.82,2.7c-0.08,1.74-0.92,3.66-2.23,4.24c-0.05,0.02-0.09,0.07-0.1,0.13
		c-0.24,1.08-0.74,1.89-1.51,2.43c-0.36,0.25-0.78,0.44-1.24,0.55c-0.15,0.04-0.18,0.24-0.05,0.32c1.28,0.79,2.69,1.91,2.15,3.57
		c-0.01,0.04-0.01,0.08,0,0.11c0.59,1.75,0,3.57-1.7,5.17c-1.18,1.11-2.83,2.02-4.53,2.49C38.97,52.67,38.16,52.79,37.42,52.79z
		 M32.99,42.81c0.34,0,0.74,0.16,1.13,0.67l0.1,0.13c0.03,0.04,0.04,0.09,0.03,0.14l-0.03,0.16c-0.07,0.33-0.2,0.73-0.35,1.14
		c-0.29,0.85-0.69,2-0.41,2.54c0.05,0.1,0.16,0.24,0.49,0.33l0.3,0.08c0.08,0.02,0.14,0.1,0.13,0.19l-0.03,0.31
		c-0.12,1.41,0.31,2.36,1.3,2.84c1.94,0.94,5.72-0.11,7.94-2.2c0.83-0.78,2.11-2.37,1.34-4.23l-0.06-0.14
		c-0.02-0.05-0.02-0.1,0-0.14l0.06-0.14c0.5-1.13-0.62-1.9-2.26-2.85c-0.59-0.35-1.16-0.68-1.53-1.03l-0.92-0.88
		c-0.13-0.12-0.02-0.34,0.16-0.3l1.25,0.26c1.21,0.25,2.21,0.13,2.91-0.36c0.61-0.43,0.99-1.14,1.13-2.13l0.04-0.26
		c0.01-0.08,0.07-0.14,0.15-0.15l0.26-0.05c0.88-0.16,1.72-1.72,1.8-3.35c0.02-0.44,0.01-1.88-0.96-2.15l-0.79-0.22
		c-0.15-0.04-0.18-0.24-0.05-0.32l0.69-0.45c0.66-0.43,1.19-1.21,0.8-1.93l-0.08-0.15c-0.02-0.05-0.03-0.1-0.01-0.15l0.06-0.16
		c0.69-1.79,0.56-6.08-0.89-7.61c-0.51-0.54-1.11-0.66-1.9-0.41l-0.9,0.29c-0.15,0.05-0.29-0.12-0.21-0.26l0.46-0.82
		c0.25-0.45,0.3-0.81,0.16-1.12c-0.31-0.67-1.5-1.1-2.5-1.28l-0.37-0.07c-0.1-0.02-0.16-0.11-0.14-0.21l0.08-0.37
		c0.08-0.4-0.05-0.82-0.38-1.15c-0.33-0.34-0.79-0.5-1.2-0.43l-0.2,0.04c-0.06,0.01-0.12-0.01-0.17-0.06l-0.14-0.15
		c-1.59-1.75-5.11-2.68-6.96-1.27l-0.22,0.17c-0.06,0.05-0.15,0.05-0.22,0L31.67,13c-1.85-1.41-5.38-0.48-6.96,1.27l-0.14,0.15
		c-0.04,0.05-0.1,0.07-0.17,0.06l-0.2-0.04c-0.41-0.08-0.86,0.09-1.2,0.43c-0.32,0.33-0.46,0.75-0.38,1.15l0.08,0.37
		c0.02,0.1-0.04,0.19-0.14,0.21l-0.37,0.07c-1,0.18-2.19,0.61-2.5,1.28c-0.15,0.31-0.09,0.68,0.16,1.12l0.46,0.82
		c0.08,0.14-0.06,0.31-0.21,0.26l-0.9-0.29c-0.79-0.26-1.39-0.13-1.9,0.41c-0.65,0.69-1.11,2.06-1.24,3.75
		c-0.12,1.46,0.03,3.01,0.35,3.86l0.06,0.16c0.02,0.05,0.02,0.1-0.01,0.15l-0.08,0.15c-0.38,0.72,0.15,1.51,0.8,1.93l0.69,0.45
		c0.13,0.08,0.1,0.28-0.05,0.32l-0.79,0.22c-0.97,0.27-0.98,1.71-0.96,2.15c0.08,1.63,0.92,3.2,1.8,3.36l0.26,0.05
		c0.08,0.01,0.13,0.07,0.15,0.15l0.04,0.26c0.14,0.99,0.52,1.7,1.13,2.13c0.69,0.48,1.7,0.61,2.91,0.36l1.25-0.26
		c0.18-0.04,0.29,0.18,0.16,0.3l-0.92,0.88c-0.37,0.36-0.94,0.69-1.53,1.03c-2.59,1.52-2.57,2.14-2.26,2.85l0.06,0.14
		c0.02,0.04,0.02,0.1,0,0.14l-0.06,0.14c-0.77,1.86,0.51,3.45,1.34,4.23c2.22,2.09,6,3.14,7.94,2.2c0.99-0.48,1.42-1.43,1.3-2.84
		l-0.03-0.31c-0.01-0.09,0.05-0.17,0.13-0.19l0.3-0.08c0.33-0.09,0.44-0.23,0.49-0.33c0.28-0.53-0.12-1.69-0.41-2.54
		c-0.14-0.42-0.28-0.81-0.35-1.14l-0.03-0.16c-0.01-0.05,0-0.1,0.03-0.14l0.1-0.13c0.75-1,1.53-0.65,1.92-0.43
		c0.12,0.07,0.27,0.07,0.39,0C32.39,42.95,32.67,42.81,32.99,42.81z"/>
</g>
</svg>
