<?xml version="1.0" encoding="utf-8"?>
<!-- Generator: Adobe Illustrator 24.0.2, SVG Export Plug-In . SVG Version: 6.00 Build 0)  -->
<svg version="1.1" id="Capa_1" xmlns="http://www.w3.org/2000/svg" xmlns:xlink="http://www.w3.org/1999/xlink" x="0px" y="0px"
	 viewBox="0 0 400 250" style="enable-background:new 0 0 400 250;" xml:space="preserve">
<style type="text/css">
	.st0{fill:none;stroke:#000000;stroke-width:2;stroke-miterlimit:10;}
	
		.st1{fill:none;stroke:#000000;stroke-width:2;stroke-linecap:round;stroke-linejoin:round;stroke-miterlimit:10;stroke-dasharray:0,3.4901;}
	.st2{fill:none;stroke:#000000;stroke-width:6;stroke-miterlimit:10;}
</style>
<g>
	<rect x="20.39" y="13.88" class="st0" width="222.06" height="222.06"/>
	<rect x="242.45" y="13.88" class="st0" width="137.16" height="137.16"/>
	<rect x="294.71" y="151.04" class="st0" width="84.9" height="84.9"/>
	<rect x="242.44" y="183.68" class="st0" width="52.25" height="52.25"/>
	<rect x="242.44" y="151.05" class="st0" width="32.6" height="32.64"/>
	<rect x="275.05" y="151.05" class="st0" width="19.67" height="19.67"/>
	<rect x="281.71" y="170.72" class="st0" width="13.01" height="12.97"/>
	<rect x="275.05" y="177.02" class="st0" width="6.66" height="6.66"/>
	<path class="st0" d="M20.65,236.12c0-122.83,99.39-222.23,222.23-222.23h-0.52c75.72,0,137,61.27,137,137
		c0,47.11-38.12,85.23-85.23,85.23h0.52c-28.9,0-52.29-23.39-52.29-52.29c0-18.21,14.73-32.94,32.94-32.94h-0.52
		c10.98,0,19.87,8.89,19.87,19.87c0,7.23-5.85,13.07-13.07,13.07c-3.47,0-6.27-3.04-6.27-6.8"/>
</g>
</svg>
