<?xml version="1.0" encoding="utf-8"?>
<!-- Generator: Adobe Illustrator 24.0.2, SVG Export Plug-In . SVG Version: 6.00 Build 0)  -->
<svg version="1.1" id="Capa_1" xmlns="http://www.w3.org/2000/svg" xmlns:xlink="http://www.w3.org/1999/xlink" x="0px" y="0px"
	 viewBox="0 0 300 100" style="enable-background:new 0 0 300 100;" xml:space="preserve">
<style type="text/css">
	.st0{fill:none;stroke:#000000;stroke-width:2;stroke-miterlimit:10;}
	
		.st1{fill:none;stroke:#000000;stroke-width:2;stroke-linecap:round;stroke-linejoin:round;stroke-miterlimit:10;stroke-dasharray:0,3.4901;}
	.st2{fill:none;stroke:#000000;stroke-width:6;stroke-miterlimit:10;}
</style>
<g>
	<g>
		<path d="M233.77,45.84c1.19-1.76,0.73-4.16-1.04-5.36c-1.77-1.19-4.16-0.73-5.36,1.03c-1.2,1.77-0.73,4.16,1.03,5.36
			C230.18,48.07,232.57,47.61,233.77,45.84z"/>
		<line class="st0" x1="69.99" y1="84.38" x2="230.57" y2="43.68"/>
	</g>
	<g>
		<path d="M67.6,57.41c-1.87-1.01-2.58-3.35-1.57-5.23c1.01-1.88,3.35-2.58,5.22-1.57c1.88,1.01,2.58,3.35,1.57,5.23
			C71.81,57.72,69.48,58.42,67.6,57.41z"/>
		<line class="st0" x1="230.57" y1="15.62" x2="69.43" y2="54.01"/>
	</g>
</g>
</svg>
