<?xml version="1.0" encoding="utf-8"?>
<!-- Generator: Adobe Illustrator 24.0.2, SVG Export Plug-In . SVG Version: 6.00 Build 0)  -->
<svg version="1.1" id="Capa_1" xmlns="http://www.w3.org/2000/svg" xmlns:xlink="http://www.w3.org/1999/xlink" x="0px" y="0px"
	 viewBox="0 0 450 300" style="enable-background:new 0 0 450 300;" xml:space="preserve">
<style type="text/css">
	.st0{fill:none;stroke:#000000;stroke-width:2;stroke-miterlimit:10;}
	
		.st1{fill:none;stroke:#000000;stroke-width:2;stroke-linecap:round;stroke-linejoin:round;stroke-miterlimit:10;stroke-dasharray:0,3.4901;}
	.st2{fill:none;stroke:#000000;stroke-width:6;stroke-miterlimit:10;}
</style>
<g>
	<rect x="19.29" y="20.33" class="st0" width="144.36" height="267.67"/>
	<path class="st0" d="M163.65,287.99c0-51.68-29.29-96.5-72.17-118.8c-18.45-9.6-39.43-15.03-61.66-15.03
		c-3.54,0-7.05,0.14-10.52,0.41"/>
	<path class="st0" d="M19.29,153.76c3.47,0.27,6.98,0.41,10.52,0.41c22.23,0,43.21-5.43,61.66-15.03
		c42.89-22.3,72.17-67.13,72.17-118.81"/>
	<polyline class="st0" points="19.29,288 19.29,287.99 19.29,154.58 19.29,153.76 19.29,20.33 	"/>
	<rect x="19.29" y="20.33" class="st0" width="267.68" height="267.67"/>
	<path class="st0" d="M19.29,288c0-73.92,59.92-133.83,133.84-133.83S286.97,214.08,286.97,288"/>
	<path class="st0" d="M286.97,20.33c0,73.92-59.92,133.84-133.84,133.84S19.29,94.25,19.29,20.33"/>
	<rect x="163.65" y="20.33" class="st0" width="267.67" height="267.67"/>
	<path class="st0" d="M163.64,288c0-73.92,59.92-133.83,133.84-133.83S431.32,214.08,431.32,288"/>
	<path class="st0" d="M431.32,20.33c0,73.92-59.92,133.84-133.84,133.84S163.64,94.25,163.64,20.33"/>
	<rect x="286.97" y="20.33" class="st0" width="144.35" height="267.67"/>
	<path class="st0" d="M431.32,154.58c-3.47-0.27-6.98-0.41-10.51-0.41c-22.23,0-43.21,5.43-61.66,15.03
		c-42.89,22.29-72.17,67.12-72.17,118.8"/>
	<polyline class="st0" points="431.32,20.33 431.32,153.76 431.32,154.58 431.32,287.99 431.32,288 	"/>
	<path class="st0" d="M286.97,20.33c0,51.69,29.29,96.52,72.17,118.81c18.45,9.6,39.43,15.03,61.66,15.03
		c3.54,0,7.04-0.14,10.51-0.41"/>
</g>
</svg>
