<?xml version="1.0" encoding="utf-8"?>
<!-- Generator: Adobe Illustrator 24.0.2, SVG Export Plug-In . SVG Version: 6.00 Build 0)  -->
<svg version="1.1" id="Capa_1" xmlns="http://www.w3.org/2000/svg" xmlns:xlink="http://www.w3.org/1999/xlink" x="0px" y="0px"
	 viewBox="0 0 300 300" style="enable-background:new 0 0 300 300;" xml:space="preserve">
<style type="text/css">
	.st0{fill:none;stroke:#000000;stroke-width:2;stroke-miterlimit:10;}
	
		.st1{fill:none;stroke:#000000;stroke-width:2;stroke-linecap:round;stroke-linejoin:round;stroke-miterlimit:10;stroke-dasharray:0,3.4901;}
	.st2{fill:none;stroke:#000000;stroke-width:6;stroke-miterlimit:10;}
</style>
<g>
	<path class="st0" d="M27.86,98.84c-6.58,15.88-10.16,33.32-10.03,51.59c0.54,73.06,60.19,131.85,133.25,131.31
		c73.05-0.54,131.84-60.19,131.31-133.25c-0.54-73.06-60.19-131.84-133.25-131.31c-19.25,0.14-37.5,4.39-53.94,11.9"/>
	<path class="st1" d="M95.2,29.08C64.84,42.95,40.66,67.96,27.86,98.84"/>
	<path class="st0" d="M27.86,98.84c-6.58,15.88-10.16,33.32-10.03,51.59c0.54,73.06,60.19,131.85,133.25,131.31
		c73.05-0.54,131.84-60.19,131.31-133.25c-0.54-73.06-60.19-131.84-133.25-131.31c-19.25,0.14-37.5,4.39-53.94,11.9"/>
	<path class="st1" d="M229.87,240.06c25.33-22.32,41.21-55.08,40.94-91.48c-0.49-66.67-54.93-120.31-121.59-119.82
		c-16.67,0.12-32.52,3.62-46.91,9.83"/>
	<path class="st0" d="M102.31,38.59C59.12,57.23,29.04,100.35,29.4,150.35c0.49,66.67,54.93,120.31,121.59,119.82
		c30.25-0.22,57.83-11.56,78.88-30.11"/>
	<path class="st0" d="M150.9,257.45c59.64-0.44,107.64-49.14,107.2-108.78c-0.44-59.64-49.14-107.64-108.78-107.2
		c-51.46,0.38-94.25,36.68-104.74,84.94"/>
	<path class="st1" d="M44.58,126.42c-1.67,7.68-2.52,15.65-2.46,23.84c0.44,59.64,49.14,107.64,108.78,107.2"/>
</g>
</svg>
