<?xml version="1.0" encoding="utf-8"?>
<!-- Generator: Adobe Illustrator 24.0.2, SVG Export Plug-In . SVG Version: 6.00 Build 0)  -->
<svg version="1.1" id="Capa_1" xmlns="http://www.w3.org/2000/svg" xmlns:xlink="http://www.w3.org/1999/xlink" x="0px" y="0px"
	 viewBox="0 0 300 300" style="enable-background:new 0 0 300 300;" xml:space="preserve">
<style type="text/css">
	.st0{fill:#BABABA;}
	.st1{fill:#FFFFFF;}
	.st2{fill:#1C1C1C;}
	.st3{fill:#C44900;}
	.st4{fill:#8F3400;}
	.st5{fill:#8F8F8F;}
</style>
<g>
	<circle cx="150.1" cy="202.29" r="5.34"/>
	<path d="M253.89,42.51H45.7c-1.69,0-3.05,1.37-3.05,3.05v208.89c0,1.67,1.36,3.03,3.03,3.03h208.65c1.67,0,3.03-1.37,3.03-3.03
		V45.98C257.36,44.06,255.8,42.51,253.89,42.51z M48.1,46.31h203.37c1.12,0,2.04,0.94,2,2.05c-2.05,54.05-45.7,97.62-99.78,99.51
		c-0.06,0.01-0.12,0.01-0.18,0.01h-1.64V129.2c0-0.27,0.07-0.52,0.2-0.75l1.04-1.78l24.04-41.64l2.27-3.94l8.66-15
		c0.59-1.01-0.14-2.27-1.3-2.27h-73.49c-1.17,0-1.9,1.26-1.31,2.27l8.66,14.99l2.26,3.93v0.01l13.6,23.54l10.46,18.11l0.99,1.73
		c0.13,0.22,0.19,0.48,0.19,0.74v18.74h-1.81v-0.03c-35.44-1.27-68.15-20.8-86.02-51.66C51.8,81.54,47.11,64.92,46.54,47.92
		C46.51,47.05,47.22,46.31,48.1,46.31z M179.71,205.06c-1.15,14.42-12.84,26.11-27.26,27.25c-18.33,1.46-33.57-13.78-32.12-32.11
		c1.15-14.43,12.84-26.11,27.26-27.26C165.92,171.48,181.17,186.72,179.71,205.06z M148.13,115.94c0,1.53-2.02,2.07-2.79,0.75
		l-20.43-35.42l-2.1-3.64l-4.57-7.91c-0.59-1,0.14-2.27,1.3-2.27h27.09c0.83,0,1.49,0.67,1.49,1.49V115.94z M151.86,115.95v-47
		c0-0.83,0.68-1.51,1.51-1.51h27.1c1.16,0,1.89,1.26,1.3,2.27l-4.57,7.92l-2.1,3.64l-20.45,35.42
		C153.89,118.02,151.86,117.48,151.86,115.95z M46.43,82.31c0-1.7,2.33-2.08,2.92-0.49c4.92,13.19,12.35,25.15,21.72,35.31
		c0.13,0.15,0.26,0.29,0.38,0.42c0.63,0.67,1.28,1.36,1.93,2.02c0.04,0.05,0.1,0.1,0.15,0.15c0.68,0.69,1.38,1.38,2.07,2.05
		c0.81,0.78,1.62,1.55,2.46,2.29c1.05,0.94,2.1,1.86,3.17,2.75c0.57,0.47,1.13,0.94,1.71,1.39c0.17,0.14,0.34,0.28,0.51,0.41
		c11.78,9.29,25.43,16.06,40.03,19.81c1.51,0.38,1.51,2.51,0,2.89c-13.82,3.54-26.79,9.81-38.14,18.35
		c-0.66,0.5-1.32,1.01-1.97,1.53c-0.97,0.77-1.92,1.56-2.87,2.36c-0.95,0.81-1.89,1.64-2.81,2.49c-0.61,0.56-1.21,1.11-1.8,1.68
		c-0.26,0.25-0.51,0.49-0.77,0.74c-0.73,0.71-1.45,1.43-2.15,2.16c-0.64,0.66-1.26,1.32-1.89,2c-0.03,0.03-0.06,0.07-0.09,0.1
		c-5.29,5.73-10.02,12.06-14,18.95c-3,5.18-5.55,10.59-7.62,16.18c-0.45,1.21-1.88,1.28-2.57,0.52c-0.1-0.11-0.17-0.23-0.23-0.37
		c-0.09-0.19-0.13-0.39-0.13-0.63V82.31z M251.93,253.68H48.07c-0.86,0-1.57-0.72-1.55-1.57c0.53-17.1,5.24-33.83,13.76-48.56
		c17.9-30.92,50.71-50.47,86.24-51.67c0.86-0.03,1.59,0.67,1.59,1.54v14.37c0,0.78-0.61,1.41-1.38,1.48
		c-17.84,1.75-31.62,17.53-30.11,36.12c1.32,16.36,14.63,29.52,31.01,30.67c19.56,1.38,35.92-14.15,35.92-33.43
		c0-17.38-13.3-31.71-30.26-33.36c-0.78-0.07-1.38-0.7-1.38-1.49v-14.38c0-0.85,0.73-1.57,1.59-1.54
		c54.41,1.81,98.31,45.78,99.99,100.23C253.51,252.95,252.8,253.68,251.93,253.68z M253.57,217.35c0,1.71-2.35,2.1-2.95,0.5
		c-12.18-32.6-39.77-57.75-73.88-66.52c-1.53-0.4-1.53-2.54,0-2.94c34.11-8.77,61.73-33.94,73.9-66.58c0.6-1.59,2.92-1.21,2.92,0.49
		V217.35z"/>
	<path d="M73.39,119.57c0.05,0.05,0.1,0.1,0.15,0.15C73.49,119.67,73.44,119.62,73.39,119.57z"/>
	<path d="M73.54,119.72c0.68,0.69,1.37,1.38,2.07,2.05C74.92,121.1,74.23,120.41,73.54,119.72z"/>
	<path d="M78.07,124.06c-0.83-0.75-1.65-1.52-2.45-2.29C76.43,122.54,77.24,123.31,78.07,124.06z"/>
	<path d="M75.13,178.45c-11.27,10.98-20.15,24.4-25.75,39.4c-0.51,1.38-2.34,1.28-2.82,0.13c0.5,1.13,2.29,1.23,2.81-0.15
		c2.07-5.59,4.62-11.01,7.62-16.18C61.99,193.01,68.13,185.24,75.13,178.45z"/>
	<path d="M80.51,173.55c-0.95,0.81-1.89,1.64-2.81,2.49C78.62,175.19,79.55,174.36,80.51,173.55z"/>
	<path d="M77.69,176.03c-0.61,0.55-1.2,1.12-1.8,1.68C76.49,177.15,77.09,176.58,77.69,176.03z"/>
	<path d="M75.9,177.72c-0.26,0.24-0.51,0.49-0.77,0.74C75.38,178.2,75.64,177.96,75.9,177.72z"/>
</g>
</svg>
