<?xml version="1.0" encoding="utf-8"?>
<!-- Generator: Adobe Illustrator 24.0.2, SVG Export Plug-In . SVG Version: 6.00 Build 0)  -->
<svg version="1.1" id="Capa_1" xmlns="http://www.w3.org/2000/svg" xmlns:xlink="http://www.w3.org/1999/xlink" x="0px" y="0px"
	 viewBox="0 0 300 100" style="enable-background:new 0 0 300 100;" xml:space="preserve">
<style type="text/css">
	.st0{fill:#BABABA;}
	.st1{fill:#FFFFFF;}
	.st2{fill:#1C1C1C;}
	.st3{fill:#C44900;}
	.st4{fill:#8F3400;}
	.st5{fill:#8F8F8F;}
</style>
<g>
	<g>
		<path class="st1" d="M114.8,61.9c0.66-0.56,1.36-0.85,2.1-0.85c1.13,0,1.78,0.16,1.95,0.48c0.96,1.92,1.44,5.08,1.44,9.51
			c0,3.07-0.34,5.29-1.03,6.67c-0.22,0.39-0.45,0.59-0.7,0.59H77.88c-2.92,0-4.38-0.87-4.38-2.62c0-0.93,0.2-1.65,0.59-2.14
			c0.83,0.25,1.65,0.37,2.43,0.37c0.79,0,1.46-0.06,2.03-0.18c0.56-0.12,1.09-0.38,1.58-0.77c1.18-0.91,1.77-2.44,1.77-4.61V31.03
			c0-2.14-0.86-3.5-2.58-4.09c-0.49-0.17-1-0.33-1.53-0.46c-0.53-0.13-1.03-0.27-1.51-0.41c-0.48-0.13-0.9-0.29-1.27-0.46
			c-0.84-0.44-1.25-1.04-1.25-1.81c0-1.01,0.2-1.73,0.59-2.17c0.44,0.12,0.88,0.18,1.33,0.18h37.69c2.26,0,3.67,0.21,4.24,0.63
			c1.03,0.74,1.55,2.36,1.55,4.86c0,2.41-0.2,4.37-0.61,5.9c-0.4,1.52-0.69,2.43-0.87,2.73c-0.25,0.44-0.72,0.66-1.44,0.66
			c-1.03,0-1.74-0.13-2.12-0.39c-0.38-0.26-0.58-0.45-0.61-0.57c-0.32-3.51-0.87-5.75-1.66-6.72c-0.79-0.97-1.71-1.63-2.78-1.99
			c-1.07-0.36-2.46-0.53-4.18-0.53h-8.22c-2.6,0-4.19,0.26-4.77,0.77c-0.58,0.52-0.94,1.11-1.09,1.79c-0.15,0.68-0.22,1.54-0.22,2.6
			v15.7l2.17,0.04c5.43,0,10.46-0.48,15.11-1.44c0.34,0.17,0.65,0.66,0.92,1.46c0.27,0.8,0.4,1.59,0.4,2.38
			c0,1.33-0.22,2.48-0.66,3.46c-1.62,0.15-3.49,0.22-5.6,0.22c-2.11,0-6.23-0.34-12.34-1.03v16.62c0,1.84,0.49,3.08,1.47,3.72
			c0.83,0.54,2.33,0.81,4.5,0.81l5.56-0.15c5.38-0.2,8.88-0.95,10.5-2.25c0.91-0.74,1.51-1.71,1.81-2.91
			c0.29-1.2,0.44-2.41,0.44-3.63C114.87,63.32,114.85,62.44,114.8,61.9z"/>
		<path class="st1" d="M146.87,78.66l-10.5-0.41h-9.51c-1.28,0-2.35-0.21-3.21-0.64c-0.86-0.43-1.29-0.96-1.29-1.6
			c0-1.18,0.18-2,0.55-2.47c0.88,0.25,1.78,0.37,2.69,0.37c0.91,0,1.68-0.06,2.3-0.18c0.63-0.12,1.18-0.38,1.68-0.77
			c1.13-0.88,1.7-2.42,1.7-4.61V30.8c0-2.28-1.42-3.71-4.27-4.27c-1.77-0.37-2.92-0.77-3.45-1.2c-0.53-0.43-0.79-0.9-0.79-1.42
			c0-1.13,0.2-1.89,0.59-2.28c0.44,0.12,0.85,0.18,1.22,0.18h11.16c0.56,0,1.31-0.02,2.25-0.07l3.13-0.18
			c3.07-0.15,6.22-0.22,9.45-0.22c3.23,0,6.37,0.39,9.41,1.16c3.05,0.77,5.68,1.82,7.9,3.15c2.22,1.33,4.08,2.87,5.56,4.62
			c1.49,1.76,2.68,3.62,3.59,5.58c1.62,3.61,2.43,7.66,2.43,12.16c0,8.15-2.11,14.93-6.34,20.34c-3.32,4.25-8.19,7.25-14.63,8.99
			C155.18,78.22,151.3,78.66,146.87,78.66z M139.98,69.42c0,1.84,0.58,3.03,1.73,3.57c0.98,0.44,3.33,0.66,7.06,0.66
			c3.72,0,7.03-0.61,9.93-1.84c2.9-1.23,5.21-2.89,6.93-4.97c3.09-3.76,4.64-9.05,4.64-15.88c0-11.72-4.14-19.37-12.42-22.95
			c-3-1.3-6.69-1.95-11.09-1.95c-2.92,0-4.7,0.29-5.34,0.87c-0.64,0.58-1.04,1.29-1.2,2.14c-0.16,0.85-0.24,1.98-0.24,3.41V69.42z"
			/>
		<path class="st1" d="M179.51,78.3c-3.07,0-4.61-1.02-4.61-3.06c0-0.76,0.2-1.34,0.59-1.73c0.54,0.22,1.29,0.33,2.25,0.33
			c0.96,0,1.77-0.1,2.43-0.31c0.66-0.21,1.33-0.53,1.99-0.98c1.28-0.88,2.7-2.36,4.27-4.42l13.56-16.91l-15.77-20.15
			c-0.37-0.39-0.75-0.82-1.14-1.29c-0.39-0.47-0.79-0.91-1.18-1.33c-0.98-1.01-1.81-1.61-2.49-1.81c-0.68-0.2-1.29-0.36-1.84-0.5
			c-0.55-0.13-1.03-0.31-1.42-0.53c-0.81-0.42-1.22-1.15-1.22-2.21c0-0.69,0.18-1.3,0.55-1.84c0.61,0.17,1.83,0.26,3.65,0.26h15.88
			c2.41,0,3.93,0.43,4.57,1.29c0.27,0.37,0.4,0.79,0.4,1.25c0,1.06-0.2,1.78-0.59,2.17c-1.2-0.27-2.4-0.41-3.57-0.41
			c-1.92,0-2.87,0.52-2.87,1.55c0,0.54,0.47,1.44,1.4,2.69l11.02,15.29l10.06-14.41c0.74-1.11,1.11-1.9,1.11-2.4
			c0-0.49-0.1-0.88-0.31-1.16c-0.21-0.28-0.47-0.51-0.79-0.68c-0.32-0.17-0.68-0.3-1.07-0.39c-0.39-0.09-0.84-0.18-1.34-0.29
			c-0.5-0.11-0.99-0.23-1.45-0.35c-0.47-0.12-0.86-0.28-1.18-0.48c-0.64-0.39-0.96-0.92-0.96-1.58c0-1.03,0.2-1.81,0.59-2.32
			c0.49,0.15,1.69,0.22,3.61,0.22h14.3c2.43,0,3.97,0.43,4.61,1.29c0.27,0.37,0.41,0.79,0.41,1.25c0,1.08-0.16,1.81-0.48,2.17
			c-0.57-0.22-1.3-0.33-2.19-0.33s-1.71,0.22-2.43,0.64c-0.73,0.43-1.47,0.99-2.23,1.68c-1.5,1.35-2.92,2.95-4.27,4.79l-12.56,16.73
			l15.29,18.97l1.18,1.33c1.55,1.79,2.76,2.82,3.65,3.08c0.88,0.26,1.61,0.45,2.19,0.57c0.58,0.12,1.06,0.28,1.46,0.48
			c0.88,0.47,1.33,1.2,1.33,2.21c0,0.64-0.18,1.25-0.55,1.84c-0.49-0.15-1.71-0.22-3.65-0.22h-16.06c-2.24,0-3.63-0.48-4.2-1.44
			c-0.25-0.39-0.37-0.81-0.37-1.25c0-0.96,0.2-1.66,0.59-2.1l0.77,0.15c0.88,0.2,1.74,0.29,2.56,0.28c0.82-0.01,1.43-0.07,1.82-0.17
			c0.39-0.1,0.59-0.36,0.59-0.77c0-0.74-0.53-1.83-1.58-3.28l-10.46-14l-10.28,14.15c-0.64,0.79-0.96,1.47-0.96,2.04
			c0,0.58,0.29,0.99,0.87,1.23c0.58,0.25,1.2,0.44,1.86,0.59l1.77,0.37c1.2,0.22,1.97,0.56,2.3,1.01c0.33,0.45,0.5,0.9,0.5,1.34
			c0,0.79-0.18,1.47-0.55,2.06c-0.49-0.15-1.71-0.22-3.65-0.22H179.51z"/>
	</g>
	<g>
		<path class="st1" d="M31.65,78.28c-1.81,0-2.71-0.5-2.71-1.5c0-0.44,0.11-0.8,0.32-1.07c0.39,0.11,0.79,0.16,1.19,0.16
			c0.4,0,0.75-0.01,1.03-0.04c0.28-0.03,0.55-0.14,0.79-0.34c0.5-0.46,0.81-1.48,0.93-3.05l2.08-21.48c0.03-0.34-0.09-0.6-0.34-0.79
			c-0.26-0.19-0.57-0.32-0.95-0.4c-0.38-0.08-0.7-0.15-0.98-0.2c-0.28-0.05-0.52-0.13-0.72-0.24c-0.42-0.2-0.63-0.55-0.63-1.04
			c0-0.49,0.09-0.86,0.28-1.1c0.26,0.07,0.49,0.1,0.69,0.1h5.99c2.01,0,3.24,0.49,3.7,1.48l7.52,17.66l7.77-17.76
			c0.26-0.59,0.64-0.97,1.15-1.13c0.51-0.16,1.17-0.24,1.96-0.24h3.92c1.82,0,2.73,0.48,2.73,1.44c0,0.51-0.1,0.88-0.3,1.11
			c-0.54-0.15-0.98-0.22-1.32-0.22c-0.34,0-0.65,0.03-0.92,0.08c-0.27,0.05-0.49,0.16-0.65,0.3c-0.34,0.28-0.47,0.85-0.38,1.7
			l2.18,22.12c0.09,0.94,0.6,1.54,1.52,1.78c0.26,0.07,0.53,0.15,0.81,0.24l0.79,0.26c0.5,0.16,0.8,0.37,0.91,0.64
			c0.11,0.26,0.16,0.52,0.16,0.76c0,0.34-0.1,0.63-0.3,0.89c-0.31-0.07-0.63-0.1-0.95-0.1H59.7c-1.65,0-2.47-0.49-2.47-1.48
			c0-0.16,0.05-0.37,0.14-0.62c0.09-0.25,0.17-0.41,0.22-0.48c0.4,0.11,0.78,0.16,1.12,0.16c0.34,0,0.7-0.03,1.07-0.08
			c0.37-0.05,0.68-0.18,0.94-0.38c0.55-0.46,0.79-1.33,0.71-2.61l-1.31-17.35l-0.18-3.38l-9.3,20.61c-0.18,0.11-0.44,0.16-0.81,0.16
			c-0.36,0-0.74-0.13-1.12-0.39c-0.38-0.26-0.73-0.59-1.04-0.98c-0.5-0.63-0.98-1.44-1.44-2.43L38.71,51.4l-1.64,22.02
			c-0.05,0.77,0.05,1.29,0.32,1.56c0.34,0.34,0.78,0.58,1.33,0.73c0.55,0.15,0.98,0.26,1.29,0.33c0.31,0.07,0.58,0.17,0.81,0.29
			c0.5,0.24,0.75,0.65,0.75,1.21c0,0.28-0.11,0.56-0.32,0.83c-0.24-0.07-0.47-0.1-0.69-0.1H31.65z"/>
	</g>
	<g>
		<path class="st1" d="M241.46,38.23h-1.86V21.67h1.86v1.11c1.05-0.94,2.35-1.41,3.84-1.41c3.41,0,5.87,2.62,5.87,6.21
			c0,3.58-2.47,6.2-5.87,6.2c-1.49,0-2.79-0.47-3.84-1.4V38.23z M249.15,27.57c0-2.53-1.58-4.32-3.84-4.32
			c-2.26,0-3.86,1.78-3.86,4.32c0,2.52,1.59,4.3,3.86,4.3C247.57,31.88,249.15,30.1,249.15,27.57z"/>
		<path class="st1" d="M255.06,33.47h-1.86v-11.8h1.86v0.68c0.66-0.56,1.73-0.93,2.86-0.93c0.31,0,0.67,0.03,1.05,0.09v1.91
			c-0.39-0.09-0.74-0.15-1.03-0.15c-1.75,0-2.88,1.2-2.88,3.04V33.47z"/>
		<path class="st1" d="M259.31,27.56c0-3.59,2.47-6.21,5.87-6.21c3.41,0,5.88,2.62,5.88,6.21c0,3.58-2.48,6.2-5.88,6.2
			C261.77,33.76,259.31,31.14,259.31,27.56z M269.03,27.56c0-2.53-1.59-4.32-3.86-4.32c-2.26,0-3.84,1.78-3.84,4.32
			c0,2.52,1.58,4.3,3.84,4.3C267.44,31.87,269.03,30.09,269.03,27.56z"/>
	</g>
</g>
</svg>
