<?xml version="1.0" standalone="no"?>
<!DOCTYPE svg PUBLIC "-//W3C//DTD SVG 20010904//EN"
 "http://www.w3.org/TR/2001/REC-SVG-20010904/DTD/svg10.dtd">
<svg version="1.0" xmlns="http://www.w3.org/2000/svg"
 width="376.000000pt" height="376.000000pt" viewBox="0 0 376.000000 376.000000"
 preserveAspectRatio="xMidYMid meet">

<g transform="translate(0.000000,376.000000) scale(0.100000,-0.100000)"
fill="#000000" stroke="none">
<path d="M1050 3130 l0 -40 835 0 835 0 0 40 0 40 -835 0 -835 0 0 -40z"/>
<path d="M1170 2793 l0 -197 325 -326 325 -325 -325 -325 -325 -326 0 -262 0
-262 710 0 710 0 0 263 0 262 -320 320 c-176 176 -320 324 -320 330 0 6 144
154 320 330 l320 320 0 197 0 198 -710 0 -710 0 0 -197z m1340 -21 l0 -137
-315 -315 -315 -315 -310 310 -310 310 0 142 0 143 625 0 625 0 0 -138z m-313
-1204 l313 -313 0 -202 0 -203 -625 0 -625 0 0 207 0 208 307 307 c170 170
310 308 313 308 3 0 146 -141 317 -312z"/>
<path d="M1050 630 l0 -40 835 0 835 0 0 40 0 40 -835 0 -835 0 0 -40z"/>
</g>
</svg>
