<?xml version="1.0" encoding="utf-8"?>
<!-- Generator: Adobe Illustrator 24.0.2, SVG Export Plug-In . SVG Version: 6.00 Build 0)  -->
<svg version="1.1" id="ICONOS" xmlns="http://www.w3.org/2000/svg" xmlns:xlink="http://www.w3.org/1999/xlink" x="0px" y="0px"
	 viewBox="0 0 90 90" style="enable-background:new 0 0 90 90;" xml:space="preserve">
<style type="text/css">
	.st0{fill:none;stroke:#000000;stroke-width:2;stroke-miterlimit:10;}
	.st1{fill:none;stroke:#000000;stroke-width:2;stroke-linecap:square;stroke-miterlimit:10;}
	.st2{fill:#FFFFFF;}
</style>
<g id="brain">
	<g>
		<path class="st0" d="M45.12,61.02c0,0,0,7.32-4.79,7.32h-8.68c-1.82,0-3.29-1.47-3.29-3.29c0,0-2.39-8.68-2.65-8.68l-2.88-1.21
			c-1.57-0.66-2.31-2.46-1.66-4.03l4.8-9.65v-0.67c0-11.9,9.65-21.55,21.55-21.55s21.55,9.65,21.55,21.55
			c0,5.12-1.8,9.84-4.79,13.54v16.39"/>
		<path class="st0" d="M39.05,43.72c-0.14,0.42-0.11,0.49-0.11,0.96c0,2.25,1.83,4.08,4.09,4.08c1.2,0,2.11-0.7,2.91-1.49"/>
		<path class="st0" d="M53.85,30.98c0.14-0.01,0.29-0.02,0.43-0.02c2.25,0,4.08,1.83,4.08,4.09c0,1.17-0.63,2.49-1.42,3.22"/>
		<path class="st0" d="M53.85,30.98c-0.99-2.77-3.64-4.73-6.74-4.73c-3.78,0-6.59,3.01-7.48,6.5"/>
		<path class="st1" d="M45.94,47.17l1.2,1.01c1.92,1.34,3.08,3.52,3.09,5.87c0.01,2.61,0.02,5.66,0.02,5.66"/>
		<path class="st1" d="M43.93,39.98c-3.68,0-4.76,3.36-4.76,3.36l-1.19,0.13c-3.03,0-5.48-2.45-5.48-5.48
			c0-3.03,2.45-5.48,5.48-5.48c0.71,0,1.05,0.04,1.67,0.22"/>
		<path class="st0" d="M57.6,37.99c2.26,0,4.09,1.83,4.09,4.09c0,2.25-1.83,4.08-4.09,4.08c-2.25,0-4.08-1.83-4.08-4.08
			c0,0-3.2,1.39-4.54-1.53"/>
		<path class="st0" d="M47.56,33.37c2.89,3.66,8.31-1.32,4.69-4.94"/>
	</g>
</g>
</svg>
