<?xml version="1.0" encoding="utf-8"?>
<!-- Generator: Adobe Illustrator 24.0.2, SVG Export Plug-In . SVG Version: 6.00 Build 0)  -->
<svg version="1.1" id="ICONOS" xmlns="http://www.w3.org/2000/svg" xmlns:xlink="http://www.w3.org/1999/xlink" x="0px" y="0px"
	 viewBox="0 0 90 90" style="enable-background:new 0 0 90 90;" xml:space="preserve">
<style type="text/css">
	.st0{fill:none;stroke:#000000;stroke-width:2;stroke-miterlimit:10;}
	.st1{fill:none;stroke:#000000;stroke-width:2;stroke-linecap:square;stroke-miterlimit:10;}
	.st2{fill:#FFFFFF;}
</style>
<g id="chat">
	<g>
		<polygon class="st0" points="54.14,38.32 54.14,45.92 47.43,45.92 47.43,52.64 39.83,52.64 39.83,45.92 33.12,45.92 33.12,38.32 
			39.83,38.32 39.83,31.61 47.43,31.61 47.43,38.32 		"/>
		<path class="st0" d="M61.89,60.63H23.31c-4.69,0-8.5-4.4-8.5-9.82V32.62c0-5.42,3.8-9.82,8.5-9.82h41.42
			c4.69,0,8.49,4.4,8.49,9.82v18.19c0,0.1,0,0.19-0.01,0.29l1.98,16.1L61.89,60.63z"/>
	</g>
</g>
</svg>
