<?xml version="1.0" standalone="no"?>
<!DOCTYPE svg PUBLIC "-//W3C//DTD SVG 20010904//EN"
 "http://www.w3.org/TR/2001/REC-SVG-20010904/DTD/svg10.dtd">
<svg version="1.0" xmlns="http://www.w3.org/2000/svg"
 width="512.000000pt" height="512.000000pt" viewBox="0 0 512.000000 512.000000"
 preserveAspectRatio="xMidYMid meet">

<g transform="translate(0.000000,512.000000) scale(0.100000,-0.100000)"
fill="#000000" stroke="none">
<path d="M454 4665 c-33 -7 -92 -28 -130 -46 -94 -45 -217 -167 -262 -261 -64
-131 -62 -86 -62 -1378 0 -1290 -2 -1244 61 -1376 44 -90 168 -217 254 -258
136 -66 12 -61 1560 -66 l1410 -5 7 -57 c31 -246 215 -518 440 -649 303 -177
678 -168 969 23 428 281 546 849 264 1273 -100 150 -268 289 -418 345 l-67 25
0 960 c0 1055 1 1031 -61 1161 -46 96 -168 219 -262 263 -134 64 -34 61 -1922
60 -1385 0 -1732 -3 -1781 -14z m3596 -173 c113 -46 196 -129 242 -242 l23
-55 3 -962 2 -963 -47 6 c-30 4 -56 15 -69 28 -12 11 -229 260 -484 551 -254
292 -485 553 -513 582 -31 32 -73 62 -110 78 -53 24 -69 27 -141 23 -147 -8
-117 20 -740 -691 -440 -503 -551 -626 -561 -615 -7 7 -123 140 -259 296 -136
155 -264 294 -285 308 -109 72 -255 70 -359 -6 -23 -16 -164 -170 -314 -341
l-273 -312 -3 984 c-2 859 0 991 13 1043 28 108 93 197 187 253 109 66 -12 62
1898 60 l1735 -2 55 -23z m-1003 -1129 c28 -16 980 -1091 971 -1097 -1 -1 -49
-17 -106 -35 -320 -104 -581 -413 -621 -736 l-6 -50 -1045 -3 -1044 -2 31 32
c17 18 391 446 832 951 441 504 816 926 834 937 40 25 111 26 154 3z m-2043
-653 c30 -15 111 -102 299 -316 l257 -296 -23 -28 c-13 -15 -143 -164 -288
-330 l-264 -301 -250 3 c-231 3 -254 5 -305 26 -205 83 -318 308 -238 472 35
71 611 735 665 767 47 28 95 29 147 3z m3391 -615 c207 -56 390 -207 485 -400
59 -121 74 -189 74 -335 0 -146 -15 -214 -74 -335 -96 -195 -278 -344 -490
-402 -90 -24 -290 -24 -380 0 -212 58 -394 207 -490 402 -50 103 -69 177 -77
295 -23 372 232 701 607 785 81 18 260 13 345 -10z"/>
<path d="M1533 4176 c-185 -60 -302 -249 -272 -437 20 -126 108 -242 224 -296
54 -25 71 -28 165 -28 88 0 113 4 154 23 309 142 313 572 8 715 -55 26 -81 32
-152 34 -53 2 -101 -2 -127 -11z m191 -157 c51 -14 128 -91 144 -145 25 -86 9
-165 -46 -226 -49 -54 -102 -78 -178 -78 -109 0 -200 72 -223 178 -14 65 -5
111 33 174 54 90 159 128 270 97z"/>
<path d="M4038 1624 c-73 -75 -136 -144 -140 -155 -16 -42 31 -99 80 -99 15 0
45 21 83 57 l59 56 0 -237 0 -237 25 -24 c32 -33 78 -33 110 0 l25 24 0 237 0
237 59 -56 c38 -36 68 -57 83 -57 49 0 96 57 80 99 -4 11 -67 80 -140 155
-110 113 -138 136 -162 136 -24 0 -52 -23 -162 -136z"/>
</g>
</svg>
